STARTFONT 2.3
FONT -FontForge-Roboto-Book-I-Normal--24-240-72-72-P-131-ISO10646-1
SIZE 24 72 72  2
FONTBOUNDINGBOX 45 33 -17 -7
COMMENT "Generated by fontforge, http://fontforge.sourceforge.net"
COMMENT "Copyright 2011 Google Inc. All Rights Reserved."
STARTPROPERTIES 43
FOUNDRY "FontForge"
FAMILY_NAME "Roboto"
WEIGHT_NAME "Book"
SLANT "I"
SETWIDTH_NAME "Normal"
ADD_STYLE_NAME ""
PIXEL_SIZE 24
POINT_SIZE 240
RESOLUTION_X 72
RESOLUTION_Y 72
SPACING "P"
AVERAGE_WIDTH 131
CHARSET_REGISTRY "ISO10646"
CHARSET_ENCODING "1"
FONTNAME_REGISTRY ""
CHARSET_COLLECTIONS "ISO8859-2 ISO8859-5 ISO8859-7 ISO8859-9 ISO8859-4 ISO10646-1"
BITS_PER_PIXEL 2
FONT_NAME "Roboto-Italic"
FACE_NAME "Roboto Italic"
COPYRIGHT "Copyright 2011 Google Inc. All Rights Reserved."
FONT_VERSION "2.137; 2017"
FONT_ASCENT 18
FONT_DESCENT 6
UNDERLINE_POSITION -2
UNDERLINE_THICKNESS 2
X_HEIGHT 12
CAP_HEIGHT 16
DEFAULT_CHAR 1
RAW_ASCENT 750
RAW_DESCENT 250
ITALIC_ANGLE 4992
NORM_SPACE 6
RELATIVE_WEIGHT 40
RELATIVE_SETWIDTH 50
SUPERSCRIPT_X 0
SUPERSCRIPT_Y 11
SUPERSCRIPT_SIZE 15
SUBSCRIPT_X 0
SUBSCRIPT_Y 3
SUBSCRIPT_SIZE 15
FIGURE_WIDTH 13
AVG_LOWERCASE_WIDTH 128
AVG_UPPERCASE_WIDTH 153
ENDPROPERTIES
CHARS 1296
STARTCHAR glyph1.dup1
ENCODING 0
SWIDTH 0 0
DWIDTH 0 0
BBX 1 1 0 0
BITMAP
00
ENDCHAR
STARTCHAR uni0002
ENCODING 2
SWIDTH 0 0
DWIDTH 0 0
BBX 1 1 0 0
BITMAP
00
ENDCHAR
STARTCHAR uni000D
ENCODING 13
SWIDTH 245 0
DWIDTH 6 0
BBX 1 1 0 0
BITMAP
00
ENDCHAR
STARTCHAR space
ENCODING 32
SWIDTH 245 0
DWIDTH 6 0
BBX 1 1 0 0
BITMAP
00
ENDCHAR
STARTCHAR exclam
ENCODING 33
SWIDTH 254 0
DWIDTH 6 0
BBX 5 17 1 0
BITMAP
0780
0B80
0B40
0F40
0F00
1E00
1E00
2D00
2D00
3C00
3C00
7800
0000
0000
5000
F400
A000
ENDCHAR
STARTCHAR quotedbl
ENCODING 34
SWIDTH 314 0
DWIDTH 8 0
BBX 6 6 2 12
BITMAP
28A0
38E0
34E0
75D0
71C0
A180
ENDCHAR
STARTCHAR numbersign
ENCODING 35
SWIDTH 602 0
DWIDTH 14 0
BBX 14 17 1 0
BITMAP
000381D0
000B0380
000E0740
001D0B00
0FFFFFF0
0ABABE90
00B03800
00E07400
01D0B000
02C0E000
FFFFFF00
ABABEA00
0B038000
0E074000
1D0B0000
2C0E0000
381D0000
ENDCHAR
STARTCHAR dollar
ENCODING 36
SWIDTH 549 0
DWIDTH 13 0
BBX 12 23 1 -3
BITMAP
000240
000380
000740
006FD0
02FFF8
0BD07C
0F402D
0F002E
0F0015
0F8000
07F400
01FF40
001BE0
0001F4
5000B4
F000B4
F400F4
BC06F0
3FFFC0
0BF900
01D000
02D000
014000
ENDCHAR
STARTCHAR percent
ENCODING 37
SWIDTH 715 0
DWIDTH 17 0
BBX 14 17 2 0
BITMAP
0BE00000
2EB80000
742C0240
B01C0B00
B02C2D00
B0387400
79B5E000
1B93C000
000B0000
001D7E40
0079E6C0
00E380D0
02C740E0
0B4740D0
1D0741D0
1802DB80
0000BE00
ENDCHAR
STARTCHAR ampersand
ENCODING 38
SWIDTH 607 0
DWIDTH 15 0
BBX 13 17 1 0
BITMAP
006F8000
01FFF000
03D0B800
07807800
0780B400
07C2E000
03EF8000
01FD0000
07F80000
2F7D0740
7D1F0B40
F40B8F00
F003FE00
F001F800
B806F800
7FBFFD00
0BF91F00
ENDCHAR
STARTCHAR quotesingle
ENCODING 39
SWIDTH 173 0
DWIDTH 4 0
BBX 3 6 2 12
BITMAP
78
74
74
B0
A0
E0
ENDCHAR
STARTCHAR parenleft
ENCODING 40
SWIDTH 336 0
DWIDTH 8 0
BBX 8 25 1 -6
BITMAP
0002
001F
007D
00F4
02E0
07C0
0B40
0F00
1E00
2D00
3C00
7C00
7800
B800
B800
B400
B400
7400
7800
3800
3C00
1D00
0F00
0780
0140
ENDCHAR
STARTCHAR parenright
ENCODING 41
SWIDTH 342 0
DWIDTH 8 0
BBX 8 25 -1 -6
BITMAP
0140
02D0
00F0
0074
0038
002C
002D
002D
001E
001E
002E
002E
002D
003D
003C
0078
00B4
00F0
01E0
03C0
0B80
1F00
7D00
F400
8000
ENDCHAR
STARTCHAR asterisk
ENCODING 42
SWIDTH 422 0
DWIDTH 10 0
BBX 10 10 1 7
BITMAP
007800
007400
007000
79B6D0
7FFF90
06F400
07B400
1E3C00
3C1D00
140400
ENDCHAR
STARTCHAR plus
ENCODING 43
SWIDTH 554 0
DWIDTH 13 0
BBX 12 13 1 1
BITMAP
001E00
002E00
002D00
003D00
003C00
FFFFFE
FFFFFD
00B800
00B400
00F400
00F000
01F000
015000
ENDCHAR
STARTCHAR comma
ENCODING 44
SWIDTH 195 0
DWIDTH 5 0
BBX 4 6 -1 -3
BITMAP
19
2E
2D
7C
B4
90
ENDCHAR
STARTCHAR hyphen
ENCODING 45
SWIDTH 272 0
DWIDTH 7 0
BBX 6 2 0 6
BITMAP
7FF0
6AA0
ENDCHAR
STARTCHAR period
ENCODING 46
SWIDTH 260 0
DWIDTH 6 0
BBX 4 3 0 0
BITMAP
14
7D
38
ENDCHAR
STARTCHAR slash
ENCODING 47
SWIDTH 404 0
DWIDTH 10 0
BBX 12 18 -1 -1
BITMAP
00001D
00003C
0000B4
0001E0
0002D0
000780
000F00
001E00
003C00
00B400
00E000
02D000
078000
0B0000
1E0000
3C0000
740000
F00000
ENDCHAR
STARTCHAR zero
ENCODING 48
SWIDTH 549 0
DWIDTH 13 0
BBX 12 17 1 0
BITMAP
006F90
02FBF4
0B807C
0F002D
2E002D
3D002D
3C002D
7C003D
78003C
B8007C
B40078
B400B8
B400F4
B801E0
7D07D0
2FBF40
07F900
ENDCHAR
STARTCHAR one
ENCODING 49
SWIDTH 549 0
DWIDTH 13 0
BBX 7 17 3 0
BITMAP
006C
1BF8
BFF8
E4B4
00F4
00F0
01F0
01E0
02E0
02D0
03D0
03C0
07C0
0780
0B80
0B40
0F00
ENDCHAR
STARTCHAR two
ENCODING 50
SWIDTH 549 0
DWIDTH 13 0
BBX 13 17 0 0
BITMAP
002FE400
01FEFD00
03E02F00
0B800F40
0F400F40
05000F00
00002E00
00007C00
0001F400
0007D000
001F4000
007D0000
01F40000
0BC00000
2F000000
7FAAA900
BFFFFD00
ENDCHAR
STARTCHAR three
ENCODING 51
SWIDTH 549 0
DWIDTH 13 0
BBX 13 17 0 0
BITMAP
002FE400
01FEFD00
03E01F00
0B800F40
0A400F00
00001F00
0000BD00
007FE000
006BE000
0000B800
00003C00
00003D00
68003C00
7C007C00
3E01F400
1FEFD000
02FE4000
ENDCHAR
STARTCHAR four
ENCODING 52
SWIDTH 549 0
DWIDTH 13 0
BBX 13 17 0 0
BITMAP
00002F00
0000BE00
0001FE00
0007ED00
000F7D00
002D3C00
00B87C00
01E07800
07C0B400
1F00B400
3D00F000
BFFFFF40
AAABFA00
0002E000
0002D000
0003D000
0003C000
ENDCHAR
STARTCHAR five
ENCODING 53
SWIDTH 549 0
DWIDTH 13 0
BBX 13 17 1 0
BITMAP
01FFFF40
02FFFF00
03C00000
03C00000
07800000
0B400000
0FBF8000
1FFFF000
1B41F800
0000B800
00007C00
00007C00
64007800
7800F400
3D02F000
1FEFC000
06FA0000
ENDCHAR
STARTCHAR six
ENCODING 54
SWIDTH 549 0
DWIDTH 13 0
BBX 11 17 1 0
BITMAP
0006F0
007FF0
01F900
07D000
0B8000
1F0000
2DBF80
3FFFE0
7F41F4
7C00B8
B80078
B80078
B800B8
7C00F4
3D02E0
1FEF80
06F900
ENDCHAR
STARTCHAR seven
ENCODING 55
SWIDTH 549 0
DWIDTH 13 0
BBX 12 17 2 0
BITMAP
BFFFFE
AAAABD
000078
0000F4
0002E0
0007C0
000B40
001E00
003D00
00B800
01F000
02D000
078000
0F4000
2E0000
7C0000
F40000
ENDCHAR
STARTCHAR eight
ENCODING 56
SWIDTH 549 0
DWIDTH 13 0
BBX 12 17 1 0
BITMAP
006F90
02FFF8
0BD07D
0F402D
1F002D
1F003C
0B81F4
03FFD0
0BEFD0
2E02F0
B800F4
F400B4
F000B4
F401F0
B807E0
3FBF80
0BF900
ENDCHAR
STARTCHAR nine
ENCODING 57
SWIDTH 549 0
DWIDTH 13 0
BBX 11 17 2 0
BITMAP
02FE00
1FFFC0
3E02E0
B801F0
F400F0
F000F4
F000F0
F401F0
B807E0
7FBEE0
1BE6D0
0007C0
000B40
002F00
01BC00
7FE000
7E4000
ENDCHAR
STARTCHAR colon
ENCODING 58
SWIDTH 239 0
DWIDTH 6 0
BBX 5 13 0 0
BITMAP
0780
0BC0
0240
0000
0000
0000
0000
0000
0000
0000
2400
7C00
7800
ENDCHAR
STARTCHAR semicolon
ENCODING 59
SWIDTH 209 0
DWIDTH 5 0
BBX 6 16 -1 -3
BITMAP
02D0
03E0
0180
0000
0000
0000
0000
0000
0000
0000
0900
1E00
2D00
3C00
B800
A000
ENDCHAR
STARTCHAR less
ENCODING 60
SWIDTH 498 0
DWIDTH 12 0
BBX 10 11 1 2
BITMAP
000060
0006F0
007FD0
0BF900
BF9000
F80000
BE4000
1FE400
01FF40
001F80
000240
ENDCHAR
STARTCHAR equal
ENCODING 61
SWIDTH 537 0
DWIDTH 13 0
BBX 11 7 1 5
BITMAP
2FFFFC
2FFFF8
000000
000000
000000
7FFFF0
BFFFE0
ENDCHAR
STARTCHAR greater
ENCODING 62
SWIDTH 511 0
DWIDTH 12 0
BBX 12 11 0 2
BITMAP
0A0000
0BD000
06FD00
006FD0
0006FD
00007D
001BF8
01BF80
2FF400
3E4000
640000
ENDCHAR
STARTCHAR question
ENCODING 63
SWIDTH 462 0
DWIDTH 11 0
BBX 9 17 2 0
BITMAP
06F900
2FFF40
BD0BC0
F403C0
5003C0
000B80
001F40
007D00
02F400
07D000
0F4000
0F0000
000000
000000
140000
3D0000
2C0000
ENDCHAR
STARTCHAR at
ENCODING 64
SWIDTH 875 0
DWIDTH 21 0
BBX 19 22 1 -5
BITMAP
0001AFE400
000BEABF00
007E0007C0
01F40000E0
03C0000070
0B406F8034
1E01FAF028
2C0780E028
780F01D028
B41D01D028
B02C02C038
E03C038034
E038074070
D0780B40A0
E0381F41D0
E03EB79B40
F01F81F900
B400000000
3800000000
1E00000000
07EAAD0000
00AFE40000
ENDCHAR
STARTCHAR A
ENCODING 65
SWIDTH 637 0
DWIDTH 15 0
BBX 15 17 -1 0
BITMAP
00003D00
00007E00
0000FE00
0002EF00
0003CB00
000B8B40
001F0780
002E0780
007C03C0
00F403C0
01F002D0
03FFFFE0
07FFFFE0
0F4001F0
2E0000F0
3D0000B4
B80000B8
ENDCHAR
STARTCHAR B
ENCODING 66
SWIDTH 608 0
DWIDTH 15 0
BBX 14 17 0 0
BITMAP
01FFF900
02FFFF80
02D007D0
03D002E0
03C002E0
07C003D0
07801F80
0BFFFD00
0FEAFE00
0F001F40
1F000B80
1E000780
2E000B80
2D000F40
3D006F00
3FEFFC00
7FFF9000
ENDCHAR
STARTCHAR C
ENCODING 67
SWIDTH 636 0
DWIDTH 15 0
BBX 14 17 1 0
BITMAP
001BF900
00BFFF40
03E40BC0
0B8002E0
1F0001E0
2E0001A0
3D000000
7C000000
78000000
B8000000
B8000000
B8000540
78000B40
3D001F00
2E40BD00
0BFFF400
01BF8000
ENDCHAR
STARTCHAR D
ENCODING 68
SWIDTH 641 0
DWIDTH 15 0
BBX 15 17 0 0
BITMAP
01FFF800
02FFFF40
02D00BC0
03D002E0
03C001F0
07C000F4
078000F4
0B8000F4
0F4000F0
0F4001F0
1F0001E0
1F0003D0
2E0007C0
2E001F40
3D01BD00
3FFFF400
7FFE4000
ENDCHAR
STARTCHAR E
ENCODING 69
SWIDTH 556 0
DWIDTH 13 0
BBX 14 17 0 0
BITMAP
01FFFFF0
02FFFFE0
02D00000
03D00000
03C00000
07C00000
07800000
0BFFFE00
0BFFFD00
0F000000
1F000000
1E000000
2E000000
2D000000
3D000000
3FFFFD00
7FFFFD00
ENDCHAR
STARTCHAR F
ENCODING 70
SWIDTH 541 0
DWIDTH 13 0
BBX 14 17 0 0
BITMAP
01FFFFF0
02FFFFE0
02D00000
03D00000
03C00000
07C00000
07800000
0B800000
0BFFFD00
0FFFFD00
1F000000
1F000000
2E000000
2E000000
3D000000
3C000000
7C000000
ENDCHAR
STARTCHAR G
ENCODING 71
SWIDTH 665 0
DWIDTH 16 0
BBX 14 17 1 0
BITMAP
001BF900
00BFFF80
03E407D0
0B8002E0
1F0001F0
2E000000
3D000000
3C000000
7C000000
7802FFD0
7802AFC0
780007C0
7C000780
3D000B80
1F401F40
0BFFFE00
01BFA000
ENDCHAR
STARTCHAR H
ENCODING 72
SWIDTH 696 0
DWIDTH 17 0
BBX 17 17 0 0
BITMAP
01E0000F40
02E0000F00
02D0001F00
03D0001E00
03C0002E00
07C0002D00
0780003D00
0BFFFFFC00
0BFFFFFC00
0F0000B800
1F0000B800
1E0000F400
2E0000F400
2D0001F000
3D0001F000
3C0002E000
7C0002E000
ENDCHAR
STARTCHAR I
ENCODING 73
SWIDTH 268 0
DWIDTH 6 0
BBX 5 17 1 0
BITMAP
07C0
0780
0B80
0B40
0F40
0F00
1F00
1E00
2E00
3D00
3D00
7C00
7800
B800
B400
F400
F000
ENDCHAR
STARTCHAR J
ENCODING 74
SWIDTH 540 0
DWIDTH 13 0
BBX 13 17 0 0
BITMAP
00000780
00000B80
00000B40
00000F40
00000F00
00001F00
00001E00
00002E00
00002D00
00003D00
00003C00
00007C00
B400B800
B800F400
7D06E000
2FFFC000
06F90000
ENDCHAR
STARTCHAR K
ENCODING 75
SWIDTH 612 0
DWIDTH 15 0
BBX 16 17 0 0
BITMAP
01E0007D
02E001F4
02D00BD0
03D02F40
03C0BD00
07C2F400
078BD000
0BAF4000
0BFF8000
0FFBC000
1F82E000
1F01F400
2E00B800
2E003D00
3D002F00
3C000F40
7C0007C0
ENDCHAR
STARTCHAR L
ENCODING 76
SWIDTH 526 0
DWIDTH 13 0
BBX 11 17 0 0
BITMAP
01E000
02E000
02D000
03D000
03C000
07C000
078000
0B8000
0B4000
0F4000
1F0000
1F0000
2E0000
2E0000
3D0000
3FFFF8
7FFFFC
ENDCHAR
STARTCHAR M
ENCODING 77
SWIDTH 851 0
DWIDTH 20 0
BBX 20 17 0 0
BITMAP
01F800003F
02F80000BF
02FC0001FE
03FD0002FE
03ED0007ED
079E000F7D
079F001E3C
0B4F003D7C
0B4B40B878
0F4B40F0B4
1F0782E0F4
1F03C7C0F0
2E03CB41F0
2E02EE01E0
3D01FD02E0
3C01F802D0
7C00F003D0
ENDCHAR
STARTCHAR N
ENCODING 78
SWIDTH 696 0
DWIDTH 17 0
BBX 17 17 0 0
BITMAP
01F0000F40
02F4000F00
02FC001F00
03FD001E00
03EF002E00
07CF402D00
078B803D00
0B83D03C00
0B42E07C00
0F41F47800
1F00B8B800
1F007CB400
2E002EF400
2E001FF000
3D000FF000
3C0007E000
7C0003E000
ENDCHAR
STARTCHAR O
ENCODING 79
SWIDTH 671 0
DWIDTH 16 0
BBX 14 17 1 0
BITMAP
001BF900
00BFFF40
02F40BC0
0B8002E0
1F4001F0
2E0000F0
3D0000F0
7C0000F0
7C0001F0
780001E0
B80002E0
780003D0
7C000B80
3D001F40
2F407D00
0BFFF400
01BF8000
ENDCHAR
STARTCHAR P
ENCODING 80
SWIDTH 616 0
DWIDTH 15 0
BBX 15 17 0 0
BITMAP
01FFFE40
02FFFFD0
02D002F0
03D000B4
03C000B8
07C000B8
078000F4
0B8001F0
0B401BD0
0FFFFF80
1FFFE800
1F000000
2E000000
2E000000
3D000000
3D000000
7C000000
ENDCHAR
STARTCHAR Q
ENCODING 81
SWIDTH 671 0
DWIDTH 16 0
BBX 14 20 1 -3
BITMAP
001BF800
00BFFF40
03E40BC0
0B8002D0
1F0001E0
2E0001F0
3D0001F0
7C0001F0
780001F0
B80002E0
B80002D0
B80003C0
78000B80
3D001F00
2F40BD00
0BFFF400
01BFF400
0000BD00
00002E00
00000400
ENDCHAR
STARTCHAR R
ENCODING 82
SWIDTH 602 0
DWIDTH 14 0
BBX 14 17 0 0
BITMAP
01FFFA00
02FFFFC0
02D007E0
03D001F0
03C001F0
07C001F0
078003E0
0B801FC0
0FFFFE00
0FEAF400
1F00B800
1E007C00
2E003D00
2D002E00
3D001F00
3C000F40
7C000B80
ENDCHAR
STARTCHAR S
ENCODING 83
SWIDTH 580 0
DWIDTH 14 0
BBX 14 17 0 0
BITMAP
001BF900
00BFFF40
02F407D0
07C002E0
0B8001E0
07800040
07E00000
01FE4000
006FF400
0006FD00
00002F00
10000F40
78000B40
7C000F40
2E407E00
0BFFF800
01BF9000
ENDCHAR
STARTCHAR T
ENCODING 84
SWIDTH 583 0
DWIDTH 14 0
BBX 13 17 2 0
BITMAP
BFFFFFC0
BFFFFF80
003D0000
003D0000
007C0000
007C0000
00B80000
00B40000
00F40000
00F00000
01F00000
01E00000
02E00000
02D00000
03D00000
03C00000
07C00000
ENDCHAR
STARTCHAR U
ENCODING 85
SWIDTH 633 0
DWIDTH 15 0
BBX 15 17 1 0
BITMAP
0B4000F4
0F4000F0
0F0001F0
1F0001E0
1E0002E0
2E0002D0
2D0003D0
3D0003C0
3C0007C0
7C000780
78000B80
B8000F40
B8001F00
7C002E00
3E00BC00
1FFFF400
06FE4000
ENDCHAR
STARTCHAR V
ENCODING 86
SWIDTH 622 0
DWIDTH 15 0
BBX 14 17 2 0
BITMAP
F40002F0
B80003D0
B8000BC0
7C000F40
3C002E00
3D003D00
2D00B800
2E00F400
1E02E000
0F03D000
0F0B8000
0B4F4000
0B6E0000
07BC0000
03F80000
03F00000
02E00000
ENDCHAR
STARTCHAR W
ENCODING 87
SWIDTH 865 0
DWIDTH 21 0
BBX 20 17 2 0
BITMAP
B4003C002E
B800BC003D
B800FD0078
7801FD00B4
7803ED01F0
78079E02E0
7C0B4E03D0
3C0E0E0780
3C2D0F0B40
3C3C0B0F00
3C740B1E00
2DF00B7D00
2EE0077C00
2FD007F400
2F8007F000
1F4003E000
1F0003D000
ENDCHAR
STARTCHAR X
ENCODING 88
SWIDTH 612 0
DWIDTH 15 0
BBX 16 17 -1 0
BITMAP
01F0002F
00F8007D
007C01F8
003D03E0
002F0BC0
000F5F40
000BFD00
0003F800
0003F000
000BF400
001FB800
007D3D00
00F82E00
02F01F40
0BD00B80
1F4007C0
7E0003E0
ENDCHAR
STARTCHAR Y
ENCODING 89
SWIDTH 587 0
DWIDTH 14 0
BBX 14 17 2 0
BITMAP
F80007D0
7C000F80
3D002E00
2E007C00
1F00F400
0F02E000
0B47C000
079F4000
03FE0000
02F80000
01F40000
01E00000
02E00000
02D00000
03D00000
03C00000
07C00000
ENDCHAR
STARTCHAR Z
ENCODING 90
SWIDTH 585 0
DWIDTH 14 0
BBX 15 17 0 0
BITMAP
07FFFFF4
07FFFFF0
000007D0
00000F80
00002E00
0000BC00
0002F000
0007D000
001F4000
003E0000
00F80000
02E00000
0BC00000
1F400000
7D000000
FFFFFF00
FFFFFF00
ENDCHAR
STARTCHAR bracketleft
ENCODING 91
SWIDTH 262 0
DWIDTH 6 0
BBX 8 24 0 -4
BITMAP
01FE
02FA
02D0
03D0
03C0
07C0
0780
0B80
0B40
0F40
0F00
0F00
1F00
1E00
2E00
2D00
3D00
3C00
7C00
7800
7800
B400
BE40
FF40
ENDCHAR
STARTCHAR backslash
ENCODING 92
SWIDTH 402 0
DWIDTH 10 0
BBX 6 18 2 -1
BITMAP
B400
7400
7800
3C00
3C00
2D00
1D00
1E00
0F00
0B00
0B40
0780
0780
03C0
02C0
02D0
01E0
00E0
ENDCHAR
STARTCHAR bracketright
ENCODING 93
SWIDTH 262 0
DWIDTH 6 0
BBX 9 24 -2 -4
BITMAP
00FF40
00AF00
000F00
001F00
001E00
002E00
002D00
003D00
003C00
007C00
007800
007800
00B400
00B400
00F400
00F000
01F000
01E000
02E000
02D000
03D000
03C000
6BC000
BF8000
ENDCHAR
STARTCHAR asciicircum
ENCODING 94
SWIDTH 410 0
DWIDTH 10 0
BBX 8 8 1 9
BITMAP
0074
00F8
02FC
07AC
0F5D
2E1E
7C0E
B40B
ENDCHAR
STARTCHAR underscore
ENCODING 95
SWIDTH 442 0
DWIDTH 11 0
BBX 12 2 -2 -2
BITMAP
7FFFFD
6AAAA8
ENDCHAR
STARTCHAR grave
ENCODING 96
SWIDTH 304 0
DWIDTH 7 0
BBX 5 3 2 15
BITMAP
7D00
1E00
0A40
ENDCHAR
STARTCHAR a
ENCODING 97
SWIDTH 532 0
DWIDTH 13 0
BBX 12 13 0 0
BITMAP
006F90
02FAF8
0B807C
0A003D
00003D
01BFFC
0BEABC
2E0078
3C00B8
7C00F4
7D07F4
2FFFF4
07F8F4
ENDCHAR
STARTCHAR b
ENCODING 98
SWIDTH 549 0
DWIDTH 13 0
BBX 12 18 0 0
BITMAP
02E000
02D000
03C000
03C000
078000
079BE0
0BBFFC
0BD03D
0F401E
0F001F
1E000F
2E001F
2D001E
3D002D
3D007C
7F41F4
7BFFE0
B4BE40
ENDCHAR
STARTCHAR c
ENCODING 99
SWIDTH 512 0
DWIDTH 12 0
BBX 11 13 1 0
BITMAP
01BE40
0BFFE0
2F41F4
3D0078
B80064
B40000
F00000
F00000
F00050
B401E0
7C07D0
2FBF40
07F900
ENDCHAR
STARTCHAR d
ENCODING 100
SWIDTH 551 0
DWIDTH 13 0
BBX 13 18 1 0
BITMAP
00000F40
00000F00
00001F00
00001E00
00002E00
01BE2D00
0BFFFD00
2F41FC00
3D007C00
B8007800
B400B800
F000B400
F000F400
F000F000
F401F000
B807E000
3FFFE000
0BE6D000
ENDCHAR
STARTCHAR e
ENCODING 101
SWIDTH 518 0
DWIDTH 12 0
BBX 11 13 1 0
BITMAP
01BE40
07FFE0
1F41F0
3C00B4
780078
BFFFF8
FAAAA4
F00000
F40000
B80040
7D02D0
2FEF80
06F900
ENDCHAR
STARTCHAR f
ENCODING 102
SWIDTH 341 0
DWIDTH 8 0
BBX 9 18 1 0
BITMAP
006F80
01FF80
02E000
03C000
078000
7FFD00
6FA800
0B4000
0F0000
1F0000
1E0000
2E0000
2D0000
3D0000
3C0000
7C0000
780000
B80000
ENDCHAR
STARTCHAR g
ENCODING 103
SWIDTH 549 0
DWIDTH 13 0
BBX 13 18 0 -5
BITMAP
007F8B40
02FFFF40
0BD07F00
0F401F00
2E001E00
2D002E00
3D002D00
3C003D00
3C003C00
3D007C00
2F01F800
0FFFF800
02F9B400
0000F000
1002E000
B407D000
7FBF4000
0BF90000
ENDCHAR
STARTCHAR h
ENCODING 104
SWIDTH 539 0
DWIDTH 13 0
BBX 12 18 0 0
BITMAP
02E000
02D000
03C000
03C000
078000
079BE0
0BBFFC
0BD03D
0F402D
0F002D
1E002D
2E003C
2D003C
3D0078
3C0078
7C00B4
7800B4
B800F0
ENDCHAR
STARTCHAR i
ENCODING 105
SWIDTH 240 0
DWIDTH 6 0
BBX 6 18 0 0
BITMAP
0040
02E0
02D0
0000
0000
0780
0B80
0B40
0F40
0F00
1F00
1E00
2E00
2D00
3D00
3C00
7C00
7800
ENDCHAR
STARTCHAR j
ENCODING 106
SWIDTH 236 0
DWIDTH 6 0
BBX 9 23 -3 -5
BITMAP
000500
000F40
000B40
000000
000000
001E00
002E00
002D00
003D00
003C00
007C00
007800
00B800
00B400
00F400
00F000
01F000
01E000
02D000
03D000
07C000
BF8000
BD0000
ENDCHAR
STARTCHAR k
ENCODING 107
SWIDTH 496 0
DWIDTH 12 0
BBX 12 18 0 0
BITMAP
02E000
02D000
03D000
03C000
078000
07803E
0B40F8
0B47E0
0F1F80
0F7E00
1FF800
1FFC00
2F6E00
3D1F00
3C0B80
7C07C0
7802E0
B800F4
ENDCHAR
STARTCHAR l
ENCODING 108
SWIDTH 240 0
DWIDTH 6 0
BBX 6 18 0 0
BITMAP
01E0
02E0
02D0
03D0
03C0
07C0
0780
0B40
0B40
0F00
0F00
1E00
2E00
2D00
3D00
3C00
7C00
7800
ENDCHAR
STARTCHAR m
ENCODING 109
SWIDTH 854 0
DWIDTH 21 0
BBX 19 13 0 0
BITMAP
0B5BE42FD0
0BBFFDFFF4
0FD07F80BC
0F402F003C
1F002E003C
1E003D007C
2E003C0078
2D007C00B8
3D007800B4
3C00B800F4
7C00B400F0
7800F401F0
B800F001E0
ENDCHAR
STARTCHAR n
ENCODING 110
SWIDTH 540 0
DWIDTH 13 0
BBX 12 13 0 0
BITMAP
0B5BE0
0BBFFC
0FD07D
0F402D
1F002D
1E002D
2E003C
2D003C
3D0078
3C0078
7C00B4
7800B4
B800F0
ENDCHAR
STARTCHAR o
ENCODING 111
SWIDTH 558 0
DWIDTH 13 0
BBX 12 13 1 0
BITMAP
01BF40
0BFBE0
1F40F4
3D007C
B8003C
B4003D
F0003C
F0003C
F00078
B400F4
7D07E0
2FFF80
06F900
ENDCHAR
STARTCHAR p
ENCODING 112
SWIDTH 549 0
DWIDTH 13 0
BBX 13 18 -1 -5
BITMAP
02D6F800
02EFFF00
03F41F40
03D00B80
07C007C0
078007C0
0B8007C0
0B400780
0F400B40
0F001F00
1F807D00
1FFBF800
2E6F9000
2D000000
3D000000
3C000000
7C000000
78000000
ENDCHAR
STARTCHAR q
ENCODING 113
SWIDTH 556 0
DWIDTH 13 0
BBX 12 18 1 -5
BITMAP
01BE2D
0BFBFD
2F40BC
3D007C
B80078
B400B8
F000B4
F000F4
F000F0
F401F0
B807E0
3FBFE0
0BE6D0
0003D0
0003C0
0007C0
000780
000B80
ENDCHAR
STARTCHAR r
ENCODING 114
SWIDTH 333 0
DWIDTH 8 0
BBX 9 13 0 0
BITMAP
0B9F40
0BBF40
0FE400
0F4000
1F0000
1E0000
2E0000
2D0000
3D0000
3C0000
7C0000
780000
B80000
ENDCHAR
STARTCHAR s
ENCODING 115
SWIDTH 504 0
DWIDTH 12 0
BBX 11 13 0 0
BITMAP
00BF90
07FFF4
0B80BC
0F003C
0F4000
0BE400
01FF80
0017E0
0000F4
7800F4
3D02F0
1FEFD0
06FE00
ENDCHAR
STARTCHAR t
ENCODING 116
SWIDTH 321 0
DWIDTH 8 0
BBX 7 16 1 0
BITMAP
07C0
0780
0B80
FFF8
AFA4
0F00
1F00
1E00
2E00
2D00
3D00
3C00
7C00
7C00
3F80
1F80
ENDCHAR
STARTCHAR u
ENCODING 117
SWIDTH 539 0
DWIDTH 13 0
BBX 12 13 1 0
BITMAP
1E003D
2E003C
2D007C
3D0078
3C00B8
7C00B4
7800F4
B800F0
B401F0
B402E0
B80BE0
7FFFD0
1BE6D0
ENDCHAR
STARTCHAR v
ENCODING 118
SWIDTH 474 0
DWIDTH 11 0
BBX 11 13 1 0
BITMAP
B400B8
7800F0
7802E0
3C03C0
3C0B80
2D0F00
1D1E00
1E3C00
0E7800
0FB000
0BE000
0BC000
078000
ENDCHAR
STARTCHAR w
ENCODING 119
SWIDTH 733 0
DWIDTH 18 0
BBX 17 13 1 0
BITMAP
7801E00780
7803E00B40
7807E01F00
380BF02D00
3C1EB03C00
3C2CB47800
2C7874F000
2CB075E000
2DE03AD000
1FD03B8000
1F803F4000
1F402F0000
1E002D0000
ENDCHAR
STARTCHAR x
ENCODING 120
SWIDTH 485 0
DWIDTH 12 0
BBX 13 13 -1 0
BITMAP
07C00F40
02D02E00
01F0BC00
00B5F400
007BD000
003F8000
002F0000
007F4000
01FB8000
03D3D000
0B82E000
2F00F000
7D00B800
ENDCHAR
STARTCHAR y
ENCODING 121
SWIDTH 463 0
DWIDTH 11 0
BBX 13 18 -1 -5
BITMAP
0B800B80
07801F00
07C02E00
03C07C00
03C0B400
02D1F000
02D2D000
01E3C000
01EB4000
00FF0000
00FD0000
00BC0000
00B40000
00F00000
02D00000
07C00000
FF400000
F9000000
ENDCHAR
STARTCHAR z
ENCODING 122
SWIDTH 485 0
DWIDTH 12 0
BBX 12 13 0 0
BITMAP
0FFFFD
0AAAFC
0001F4
0007E0
000F80
002E00
00B800
02F000
07D000
1F4000
7D0000
FEAAA0
FFFFE0
ENDCHAR
STARTCHAR braceleft
ENCODING 123
SWIDTH 333 0
DWIDTH 8 0
BBX 9 23 0 -4
BITMAP
000180
000B80
002D00
007800
00B400
00F000
00F000
01F000
02E000
0BC000
7E0000
7F0000
0B4000
078000
078000
0B8000
0B4000
0B4000
0B4000
0B4000
078000
02E000
006000
ENDCHAR
STARTCHAR bar
ENCODING 124
SWIDTH 241 0
DWIDTH 6 0
BBX 6 20 0 -3
BITMAP
02D0
02C0
03C0
0380
0380
0740
0740
0B00
0B00
0E00
0E00
1D00
1D00
2C00
2C00
3800
3800
7400
7400
B400
ENDCHAR
STARTCHAR braceright
ENCODING 125
SWIDTH 333 0
DWIDTH 8 0
BBX 10 23 -2 -4
BITMAP
009000
00B800
002D00
001E00
001E00
002E00
002D00
002D00
002D00
001E40
000BD0
001F80
007D00
00B400
00F400
00F000
01F000
01E000
02E000
03D000
0B8000
7E0000
240000
ENDCHAR
STARTCHAR asciitilde
ENCODING 126
SWIDTH 664 0
DWIDTH 16 0
BBX 14 5 1 4
BITMAP
0BE40090
2FFD01D0
7C1F47C0
B407FF40
5001B900
ENDCHAR
STARTCHAR uni00A0
ENCODING 160
SWIDTH 245 0
DWIDTH 6 0
BBX 1 1 0 0
BITMAP
00
ENDCHAR
STARTCHAR exclamdown
ENCODING 161
SWIDTH 241 0
DWIDTH 6 0
BBX 5 17 0 -4
BITMAP
0780
0B80
0100
0000
0000
0F00
1E00
1E00
2D00
2D00
3C00
3C00
7800
B800
B400
F400
F000
ENDCHAR
STARTCHAR cent
ENCODING 162
SWIDTH 535 0
DWIDTH 13 0
BBX 11 19 1 -3
BITMAP
000A00
001F00
001E00
01BF80
0BEBF0
1F40B4
3D0078
780014
B40000
F40000
F00000
F40000
B401E0
7C07D0
2FAF80
0BF900
02D000
03D000
028000
ENDCHAR
STARTCHAR sterling
ENCODING 163
SWIDTH 568 0
DWIDTH 14 0
BBX 14 17 0 0
BITMAP
0006FD00
002FFF80
007D07D0
00F402D0
01F00150
01E00000
02E00000
02D00000
2FFFC000
2FFF8000
03C00000
07C00000
07800000
0B400000
1F000000
BFAABE00
FFFFFE00
ENDCHAR
STARTCHAR currency
ENCODING 164
SWIDTH 696 0
DWIDTH 17 0
BBX 17 15 0 0
BITMAP
0386FE0B00
07EFFFEF40
02FD06FD00
02E000B800
0780007C00
0B40003C00
0F00002D00
1E00003C00
1E00003C00
1E0000B800
1F0000F000
0F8003D000
2FE41FE000
BEFFFEF400
246FE4A000
ENDCHAR
STARTCHAR yen
ENCODING 165
SWIDTH 514 0
DWIDTH 12 0
BBX 13 17 1 0
BITMAP
3D000F80
2E002F00
1F007D00
0F40F800
0B82F000
07C3D000
03CB8000
02EF4000
01FE0000
7FFFF000
56F95000
01F00000
FFFFD000
56E54000
02D00000
03D00000
07C00000
ENDCHAR
STARTCHAR brokenbar
ENCODING 166
SWIDTH 237 0
DWIDTH 6 0
BBX 6 20 0 -3
BITMAP
02D0
03D0
03C0
07C0
0780
0B80
0B40
0F40
0F00
0000
0000
2E00
2D00
3D00
3C00
7C00
7800
B400
F400
F000
ENDCHAR
STARTCHAR section
ENCODING 167
SWIDTH 599 0
DWIDTH 14 0
BBX 15 23 -1 -6
BITMAP
0006FE40
002FEFE0
00BD01F4
00F000B8
01F00078
01F00000
00FD0000
00BFE400
02FBFE00
07806FC0
0F4003E0
0F4001E0
0B8002E0
07F907D0
01FFEF40
001BFD00
00007E00
00001F00
7C000F00
3C001F00
2E007D00
0FFBF800
02BF9000
ENDCHAR
STARTCHAR dieresis
ENCODING 168
SWIDTH 410 0
DWIDTH 10 0
BBX 8 3 2 15
BITMAP
1405
7C1F
781E
ENDCHAR
STARTCHAR copyright
ENCODING 169
SWIDTH 767 0
DWIDTH 18 0
BBX 17 17 1 0
BITMAP
0006FE4000
007E96E000
01E0007800
0786F80E00
0E1FAE0700
2C2C0B4340
3474074280
7074000280
A0B0000280
A0B0000340
A0B00A0700
70741D0E00
343EBC2C00
2C0BE0B400
0E0002D000
02E56F4000
006FE40000
ENDCHAR
STARTCHAR ordfeminine
ENCODING 170
SWIDTH 438 0
DWIDTH 11 0
BBX 8 9 2 8
BITMAP
06F8
1FBD
2D0E
000E
1BFE
7E6D
B42D
7EFC
2FAC
ENDCHAR
STARTCHAR guillemotleft
ENCODING 171
SWIDTH 459 0
DWIDTH 11 0
BBX 10 9 1 2
BITMAP
01D2D0
078740
1E1E00
7C7800
F4F000
74B400
2C3800
1D1D00
0B0E00
ENDCHAR
STARTCHAR logicalnot
ENCODING 172
SWIDTH 541 0
DWIDTH 13 0
BBX 11 5 1 4
BITMAP
7FFFF4
7FFFF0
0001F0
0001E0
0002E0
ENDCHAR
STARTCHAR uni00AD
ENCODING 173
SWIDTH 272 0
DWIDTH 7 0
BBX 6 2 0 6
BITMAP
7FF0
6AA0
ENDCHAR
STARTCHAR registered
ENCODING 174
SWIDTH 767 0
DWIDTH 18 0
BBX 17 17 1 0
BITMAP
0006FE4000
007E9AE000
01E0007800
0740000E00
1E0FF90700
2C1E6F0340
341D074280
702C0B0280
A02FFC0240
A03AAD0340
A0340D0700
70741D0E00
34701D2C00
2C0000B400
0E0002D000
02E56F4000
006FE40000
ENDCHAR
STARTCHAR macron
ENCODING 175
SWIDTH 449 0
DWIDTH 11 0
BBX 8 2 3 15
BITMAP
FFFE
AAA9
ENDCHAR
STARTCHAR degree
ENCODING 176
SWIDTH 367 0
DWIDTH 9 0
BBX 7 7 2 10
BITMAP
0BD0
2EB0
3834
7434
38B4
1FD0
0540
ENDCHAR
STARTCHAR plusminus
ENCODING 177
SWIDTH 522 0
DWIDTH 13 0
BBX 12 15 0 0
BITMAP
000640
000B40
000B40
000B00
000F00
2FFFFF
2ABFAA
001D00
002D00
002C00
003C00
002800
000000
6AAAA0
7FFFF0
ENDCHAR
STARTCHAR uni00B2
ENCODING 178
SWIDTH 360 0
DWIDTH 9 0
BBX 8 9 1 8
BITMAP
06F4
1FAD
2C1E
002D
00B8
03E0
1F40
7EA8
FFFC
ENDCHAR
STARTCHAR uni00B3
ENCODING 179
SWIDTH 360 0
DWIDTH 9 0
BBX 8 9 1 8
BITMAP
07F8
1FAD
181E
002D
03F4
017C
602C
7AB8
1FE0
ENDCHAR
STARTCHAR acute
ENCODING 180
SWIDTH 309 0
DWIDTH 7 0
BBX 5 3 3 15
BITMAP
1F40
7D00
A000
ENDCHAR
STARTCHAR mu
ENCODING 181
SWIDTH 554 0
DWIDTH 13 0
BBX 14 18 -1 -5
BITMAP
01E002D0
02E003D0
02D003C0
03D007C0
03C00780
07C00B80
07800B40
0B800F00
0B801F00
0F801E00
0FC07E00
1FFBFD00
1EBF6D00
2E000000
2D000000
3D000000
3C000000
7C000000
ENDCHAR
STARTCHAR paragraph
ENCODING 182
SWIDTH 479 0
DWIDTH 12 0
BBX 11 17 1 0
BITMAP
00AFF4
07FFF0
1FFFF0
2FFFE0
3FFFE0
7FFFD0
7FFFD0
7FFFC0
2FFFC0
1FFF80
02BF80
000B40
000F00
000F00
001E00
002E00
002D00
ENDCHAR
STARTCHAR periodcentered
ENCODING 183
SWIDTH 257 0
DWIDTH 6 0
BBX 3 3 2 7
BITMAP
B4
F4
60
ENDCHAR
STARTCHAR cedilla
ENCODING 184
SWIDTH 245 0
DWIDTH 6 0
BBX 4 5 -1 -5
BITMAP
2C
2F
0B
5E
B8
ENDCHAR
STARTCHAR uni00B9
ENCODING 185
SWIDTH 360 0
DWIDTH 9 0
BBX 6 9 2 8
BITMAP
06D0
7FC0
53C0
0380
0780
0740
0B40
0B00
0F00
ENDCHAR
STARTCHAR ordmasculine
ENCODING 186
SWIDTH 445 0
DWIDTH 11 0
BBX 9 9 2 8
BITMAP
06F800
1FBE00
3C0F00
780B40
B40B40
B40F00
781E00
3EBD00
1BE000
ENDCHAR
STARTCHAR guillemotright
ENCODING 187
SWIDTH 459 0
DWIDTH 11 0
BBX 10 9 0 2
BITMAP
0A0E00
074740
03C3C0
01E1D0
00F1F0
03D3D0
0B4B40
2D2D00
747400
ENDCHAR
STARTCHAR onequarter
ENCODING 188
SWIDTH 715 0
DWIDTH 17 0
BBX 14 17 2 0
BITMAP
16800000
BF800000
57400200
0B400B00
0B002D00
0F007400
0E01E000
1E038000
1D0B03D0
002D0BC0
00742FC0
01E07780
03C1D380
0B078740
1D0BFFE0
2806AF90
00000F00
ENDCHAR
STARTCHAR onehalf
ENCODING 189
SWIDTH 757 0
DWIDTH 18 0
BBX 15 17 2 0
BITMAP
1A800000
BF800000
57400900
0B401D00
0B007800
0F00F000
0E02C000
1E074000
1D1E1F90
0038BAF0
00B0E0B4
02D000F0
074007D0
1E001F40
3800B800
2002FA90
0003FFE0
ENDCHAR
STARTCHAR threequarters
ENCODING 190
SWIDTH 759 0
DWIDTH 18 0
BBX 15 17 2 0
BITMAP
0BE40000
3EBC0000
246C0090
07E401D0
05B40780
00380E00
A0782C00
BAF4B400
2F91D0F4
000782F4
000F0BF0
002D1DF0
007474E0
01E1E1E0
0382FFF8
0601ABE4
000003C0
ENDCHAR
STARTCHAR questiondown
ENCODING 191
SWIDTH 463 0
DWIDTH 11 0
BBX 10 18 -1 -5
BITMAP
000740
000B80
000100
000000
000000
001E00
002E00
007C00
01F400
07E000
1F8000
2E0000
3C0000
7C0050
7C02E0
3D07D0
2FFF80
06F900
ENDCHAR
STARTCHAR Agrave
ENCODING 192
SWIDTH 637 0
DWIDTH 15 0
BBX 15 22 -1 0
BITMAP
0000F400
00007C00
00001D00
00000000
00000000
00003D00
00007E00
0000FE00
0002EF00
0003CB00
000B8B40
001F0780
002E0780
007C03C0
00F403C0
01F002D0
03FFFFE0
07FFFFE0
0F4001F0
2E0000F0
3D0000B4
B80000B8
ENDCHAR
STARTCHAR Aacute
ENCODING 193
SWIDTH 637 0
DWIDTH 15 0
BBX 15 22 -1 0
BITMAP
000001F4
00000BC0
00001A00
00000000
00000000
00003D00
00007E00
0000FE00
0002EF00
0003CB00
000B8B40
001F0780
002E0780
007C03C0
00F403C0
01F002D0
03FFFFE0
07FFFFE0
0F4001F0
2E0000F0
3D0000B4
B80000B8
ENDCHAR
STARTCHAR Acircumflex
ENCODING 194
SWIDTH 637 0
DWIDTH 15 0
BBX 15 22 -1 0
BITMAP
00001F40
0001BAD0
0002E0F0
00000000
00000000
00003D00
00007E00
0000FE00
0002EF00
0003CB00
000B8B40
001F0780
002E0780
007C03C0
00F403C0
01F002D0
03FFFFE0
07FFFFE0
0F4001F0
2E0000F0
3D0000B4
B80000B8
ENDCHAR
STARTCHAR Atilde
ENCODING 195
SWIDTH 637 0
DWIDTH 15 0
BBX 15 22 -1 0
BITMAP
0000A418
0002FFB8
000746E0
00000000
00000000
00003D00
00007E00
0000FE00
0002EF00
0003CB00
000B8B40
001F0780
002E0780
007C03C0
00F403C0
01F002D0
03FFFFE0
07FFFFE0
0F4001F0
2E0000F0
3D0000B4
B80000B8
ENDCHAR
STARTCHAR Adieresis
ENCODING 196
SWIDTH 637 0
DWIDTH 15 0
BBX 15 22 -1 0
BITMAP
00004050
0002E0F4
0002D0B4
00000000
00000000
00003D00
00007E00
0000FE00
0002EF00
0003CB00
000B8B40
001F0780
002E0780
007C03C0
00F403C0
01F002D0
03FFFFE0
07FFFFE0
0F4001F0
2E0000F0
3D0000B4
B80000B8
ENDCHAR
STARTCHAR Aring
ENCODING 197
SWIDTH 637 0
DWIDTH 15 0
BBX 15 23 -1 0
BITMAP
00001F40
000074D0
00006090
000071C0
00002F40
00000000
00003D00
00007E00
0000FE00
0002EF00
0003CB00
000B8B40
001F0780
002E0780
007C03C0
00F403C0
01F002D0
03FFFFE0
07FFFFE0
0F4001F0
2E0000F0
3D0000B4
B80000B8
ENDCHAR
STARTCHAR AE
ENCODING 198
SWIDTH 911 0
DWIDTH 22 0
BBX 24 17 -1 0
BITMAP
000000BFFFFD
000002FEAAA8
000007FC0000
00001F7C0000
00003E7C0000
0000B8780000
0001F0780000
0007D0BFFFC0
000F80BAAA80
002F00F40000
007D00F00000
01FFFFF00000
03FFFFE00000
0BC001E00000
2F4002E00000
7D0002FAAA90
F80002FFFFD0
ENDCHAR
STARTCHAR Ccedilla
ENCODING 199
SWIDTH 636 0
DWIDTH 15 0
BBX 14 22 1 -5
BITMAP
001BF900
00BFFF40
03E40BC0
0B8002E0
1F0001E0
2E0001A0
3D000000
7C000000
78000000
B8000000
B8000000
B8000540
78000B40
3D001F00
2E40BD00
0BFFF400
01BF8000
00740000
007D0000
001D0000
006C0000
01E40000
ENDCHAR
STARTCHAR Egrave
ENCODING 200
SWIDTH 556 0
DWIDTH 13 0
BBX 14 22 0 0
BITMAP
000B8000
0002D000
0000A000
00000000
00000000
01FFFFF0
02FFFFE0
02D00000
03D00000
03C00000
07C00000
07800000
0BFFFE00
0BFFFD00
0F000000
1F000000
1E000000
2E000000
2D000000
3D000000
3FFFFD00
7FFFFD00
ENDCHAR
STARTCHAR Eacute
ENCODING 201
SWIDTH 556 0
DWIDTH 13 0
BBX 14 22 0 0
BITMAP
00000F80
00007D00
0000B400
00000000
00000000
01FFFFF0
02FFFFE0
02D00000
03D00000
03C00000
07C00000
07800000
0BFFFE00
0BFFFD00
0F000000
1F000000
1E000000
2E000000
2D000000
3D000000
3FFFFD00
7FFFFD00
ENDCHAR
STARTCHAR Ecircumflex
ENCODING 202
SWIDTH 556 0
DWIDTH 13 0
BBX 14 22 0 0
BITMAP
0001B800
000BEE00
001E0B40
00000000
00000000
01FFFFF0
02FFFFE0
02D00000
03D00000
03C00000
07C00000
07800000
0BFFFE00
0BFFFD00
0F000000
1F000000
1E000000
2E000000
2D000000
3D000000
3FFFFD00
7FFFFD00
ENDCHAR
STARTCHAR Edieresis
ENCODING 203
SWIDTH 556 0
DWIDTH 13 0
BBX 14 22 0 0
BITMAP
00050140
001F07C0
001E0780
00000000
00000000
01FFFFF0
02FFFFE0
02D00000
03D00000
03C00000
07C00000
07800000
0BFFFE00
0BFFFD00
0F000000
1F000000
1E000000
2E000000
2D000000
3D000000
3FFFFD00
7FFFFD00
ENDCHAR
STARTCHAR Igrave
ENCODING 204
SWIDTH 268 0
DWIDTH 6 0
BBX 5 22 1 0
BITMAP
1F00
0B80
0280
0000
0000
07C0
0780
0B80
0B40
0F40
0F00
1F00
1E00
2E00
3D00
3D00
7C00
7800
B800
B400
F400
F000
ENDCHAR
STARTCHAR Iacute
ENCODING 205
SWIDTH 268 0
DWIDTH 6 0
BBX 8 22 1 0
BITMAP
002E
00F8
02D0
0000
0000
07C0
0780
0B80
0B40
0F40
0F00
1F00
1E00
2E00
3D00
3D00
7C00
7800
B800
B400
F400
F000
ENDCHAR
STARTCHAR Icircumflex
ENCODING 206
SWIDTH 268 0
DWIDTH 6 0
BBX 8 22 1 0
BITMAP
02E0
1FBD
7D1E
0000
0000
07C0
0780
0B80
0B40
0F40
0F00
1F00
1E00
2E00
3D00
3D00
7C00
7800
B800
B400
F400
F000
ENDCHAR
STARTCHAR Idieresis
ENCODING 207
SWIDTH 268 0
DWIDTH 6 0
BBX 8 22 1 0
BITMAP
1405
7C1F
381E
0000
0000
07C0
0780
0B80
0B40
0F40
0F00
1F00
1E00
2E00
3D00
3D00
7C00
7800
B800
B400
F400
F000
ENDCHAR
STARTCHAR Eth
ENCODING 208
SWIDTH 655 0
DWIDTH 16 0
BBX 15 17 0 0
BITMAP
00FFF900
01FFFF80
01E007D0
02E001F0
03D000F4
03D000B8
07C000B8
BFFE00B8
AFE900B8
0B4000F4
0F4000F0
0F0002E0
1F0003D0
1E000F80
2E007E00
2FFFF800
3FFE8000
ENDCHAR
STARTCHAR Ntilde
ENCODING 209
SWIDTH 696 0
DWIDTH 17 0
BBX 17 22 0 0
BITMAP
0001A02400
0007FEF400
000B4BD000
0000000000
0000000000
01F0000F40
02F4000F00
02FC001F00
03FD001E00
03EF002E00
07CF402D00
078B803D00
0B83D03C00
0B42E07C00
0F41F47800
1F00B8B800
1F007CB400
2E002EF400
2E001FF000
3D000FF000
3C0007E000
7C0003E000
ENDCHAR
STARTCHAR Ograve
ENCODING 210
SWIDTH 671 0
DWIDTH 16 0
BBX 14 22 1 0
BITMAP
000B8000
0002D000
0000A000
00000000
00000000
001BF900
00BFFF40
02F40BC0
0B8002E0
1F4001F0
2E0000F0
3D0000F0
7C0000F0
7C0001F0
780001E0
B80002E0
780003D0
7C000B80
3D001F40
2F407D00
0BFFF400
01BF8000
ENDCHAR
STARTCHAR Oacute
ENCODING 211
SWIDTH 671 0
DWIDTH 16 0
BBX 14 22 1 0
BITMAP
00001F80
00007D00
0000B400
00000000
00000000
001BF900
00BFFF40
02F40BC0
0B8002E0
1F4001F0
2E0000F0
3D0000F0
7C0000F0
7C0001F0
780001E0
B80002E0
780003D0
7C000B80
3D001F40
2F407D00
0BFFF400
01BF8000
ENDCHAR
STARTCHAR Ocircumflex
ENCODING 212
SWIDTH 671 0
DWIDTH 16 0
BBX 14 22 1 0
BITMAP
0001B800
000BEE00
001E0B40
00000000
00000000
001BF900
00BFFF40
02F40BC0
0B8002E0
1F4001F0
2E0000F0
3D0000F0
7C0000F0
7C0001F0
780001E0
B80002E0
780003D0
7C000B80
3D001F40
2F407D00
0BFFF400
01BF8000
ENDCHAR
STARTCHAR Otilde
ENCODING 213
SWIDTH 671 0
DWIDTH 16 0
BBX 14 22 1 0
BITMAP
00064090
001FFBC0
00386F40
00000000
00000000
001BF900
00BFFF40
02F40BC0
0B8002E0
1F4001F0
2E0000F0
3D0000F0
7C0000F0
7C0001F0
780001E0
B80002E0
780003D0
7C000B80
3D001F40
2F407D00
0BFFF400
01BF8000
ENDCHAR
STARTCHAR Odieresis
ENCODING 214
SWIDTH 671 0
DWIDTH 16 0
BBX 14 22 1 0
BITMAP
00050140
001F07C0
001E0780
00000000
00000000
001BF900
00BFFF40
02F40BC0
0B8002E0
1F4001F0
2E0000F0
3D0000F0
7C0000F0
7C0001F0
780001E0
B80002E0
780003D0
7C000B80
3D001F40
2F407D00
0BFFF400
01BF8000
ENDCHAR
STARTCHAR multiply
ENCODING 215
SWIDTH 521 0
DWIDTH 13 0
BBX 12 11 0 2
BITMAP
060009
0F802E
07D0BC
02F7E0
00BF80
007F00
01FF40
07E7C0
2F42E0
7D00F4
240060
ENDCHAR
STARTCHAR Oslash
ENCODING 216
SWIDTH 671 0
DWIDTH 16 0
BBX 17 19 0 -1
BITMAP
0000000140
0006FE4B00
002FFFED00
00BD01F800
02E000F800
07C003FC00
0B800B3C00
0F402D3C00
1F00743C00
1E01E07C00
2E03807800
2E0B00B400
2E2D00F000
1E7402E000
1FE007C000
0BD02F4000
0BFFFD0000
2D6FE00000
6400000000
ENDCHAR
STARTCHAR Ugrave
ENCODING 217
SWIDTH 633 0
DWIDTH 15 0
BBX 15 22 1 0
BITMAP
000F4000
0007C000
0001D000
00000000
00000000
0B4000F4
0F4000F0
0F0001F0
1F0001E0
1E0002E0
2E0002D0
2D0003D0
3D0003C0
3C0007C0
7C000780
78000B80
B8000F40
B8001F00
7C002E00
3E00BC00
1FFFF400
06FE4000
ENDCHAR
STARTCHAR Uacute
ENCODING 218
SWIDTH 633 0
DWIDTH 15 0
BBX 15 22 1 0
BITMAP
00002F40
0000B800
0001A000
00000000
00000000
0B4000F4
0F4000F0
0F0001F0
1F0001E0
1E0002E0
2E0002D0
2D0003D0
3D0003C0
3C0007C0
7C000780
78000B80
B8000F40
B8001F00
7C002E00
3E00BC00
1FFFF400
06FE4000
ENDCHAR
STARTCHAR Ucircumflex
ENCODING 219
SWIDTH 633 0
DWIDTH 15 0
BBX 15 22 1 0
BITMAP
0001F400
001BBD00
003E0F00
00000000
00000000
0B4000F4
0F4000F0
0F0001F0
1F0001E0
1E0002E0
2E0002D0
2D0003D0
3D0003C0
3C0007C0
7C000780
78000B80
B8000F40
B8001F00
7C002E00
3E00BC00
1FFFF400
06FE4000
ENDCHAR
STARTCHAR Udieresis
ENCODING 220
SWIDTH 633 0
DWIDTH 15 0
BBX 15 22 1 0
BITMAP
00040500
002E0F40
002D0B40
00000000
00000000
0B4000F4
0F4000F0
0F0001F0
1F0001E0
1E0002E0
2E0002D0
2D0003D0
3D0003C0
3C0007C0
7C000780
78000B80
B8000F40
B8001F00
7C002E00
3E00BC00
1FFFF400
06FE4000
ENDCHAR
STARTCHAR Yacute
ENCODING 221
SWIDTH 587 0
DWIDTH 14 0
BBX 14 22 2 0
BITMAP
0001F800
0007D000
000B4000
00000000
00000000
F80007D0
7C000F80
3D002E00
2E007C00
1F00F400
0F02E000
0B47C000
079F4000
03FE0000
02F80000
01F40000
01E00000
02E00000
02D00000
03D00000
03C00000
07C00000
ENDCHAR
STARTCHAR Thorn
ENCODING 222
SWIDTH 578 0
DWIDTH 14 0
BBX 13 17 0 0
BITMAP
01E00000
02D00000
02D00000
03FFE400
03EAFE00
07801F80
0B8007C0
0B4003C0
0F4007C0
0F000B80
1F002F00
1FABFD00
2FFF9000
2D000000
3D000000
3C000000
7C000000
ENDCHAR
STARTCHAR germandbls
ENCODING 223
SWIDTH 581 0
DWIDTH 14 0
BBX 13 18 0 0
BITMAP
001FE000
00BEFC00
02E03D00
03D02E00
07C02D00
07807C00
0B40B400
0F41E000
0F02D000
1F02E000
1E00F000
2E007C00
2D001E00
3D000F40
3C000F40
7C502F00
78BEFD00
B86FE400
ENDCHAR
STARTCHAR agrave
ENCODING 224
SWIDTH 532 0
DWIDTH 13 0
BBX 12 18 0 0
BITMAP
002E00
000B40
000380
000000
000000
006F90
02FAF8
0B807C
0A003D
00003D
01BFFC
0BEABC
2E0078
3C00B8
7C00F4
7D07F4
2FFFF4
07F8F4
ENDCHAR
STARTCHAR aacute
ENCODING 225
SWIDTH 532 0
DWIDTH 13 0
BBX 12 18 0 0
BITMAP
00007E
0001F4
0002D0
000000
000000
006F90
02FAF8
0B807C
0A003D
00003D
01BFFC
0BEABC
2E0078
3C00B8
7C00F4
7D07F4
2FFFF4
07F8F4
ENDCHAR
STARTCHAR acircumflex
ENCODING 226
SWIDTH 532 0
DWIDTH 13 0
BBX 12 18 0 0
BITMAP
0006E0
002FB8
00782D
000000
000000
006F90
02FAF8
0B807C
0A003D
00003D
01BFFC
0BEABC
2E0078
3C00B8
7C00F4
7D07F4
2FFFF4
07F8F4
ENDCHAR
STARTCHAR atilde
ENCODING 227
SWIDTH 532 0
DWIDTH 13 0
BBX 13 18 0 0
BITMAP
00190240
00BFEF00
00E1BD00
00000000
00000000
006F9000
02FAF800
0B807C00
0A003D00
00003D00
01BFFC00
0BEABC00
2E007800
3C00B800
7C00F400
7D07F400
2FFFF400
07F8F400
ENDCHAR
STARTCHAR adieresis
ENCODING 228
SWIDTH 532 0
DWIDTH 13 0
BBX 12 18 0 0
BITMAP
001405
007C2E
00781E
000000
000000
006F90
02FAF8
0B807C
0A003D
00003D
01BFFC
0BEABC
2E0078
3C00B8
7C00F4
7D07F4
2FFFF4
07F8F4
ENDCHAR
STARTCHAR aring
ENCODING 229
SWIDTH 532 0
DWIDTH 13 0
BBX 12 19 0 0
BITMAP
0006E0
000E28
000C18
000D74
0007E0
000000
006F90
02FAF8
0B807C
0A003D
00003D
01BFFC
0BEABC
2E0078
3C00B8
7C00F4
7D07F4
2FFFF4
07F8F4
ENDCHAR
STARTCHAR ae
ENCODING 230
SWIDTH 823 0
DWIDTH 20 0
BBX 19 13 0 0
BITMAP
00BF907F80
07FFF7FBF0
0F80BF40B8
0A007E003C
00007C003C
06FFFFFFFC
1FEAFEAAA8
7E00B80000
B800F80000
B801FC0000
B807FE0190
3FBF5FEFE0
1BF806FE40
ENDCHAR
STARTCHAR ccedilla
ENCODING 231
SWIDTH 512 0
DWIDTH 12 0
BBX 11 18 1 -5
BITMAP
01BE40
0BFFE0
2F41F4
3D0078
B80064
B40000
F00000
F00000
F00050
B401E0
7C07D0
2FBF40
07F900
038000
02E000
00B000
06E000
0E4000
ENDCHAR
STARTCHAR egrave
ENCODING 232
SWIDTH 518 0
DWIDTH 12 0
BBX 11 18 1 0
BITMAP
00F400
003C00
001D00
000000
000000
01BE40
07FFE0
1F41F0
3C00B4
780078
BFFFF8
FAAAA4
F00000
F40000
B80040
7D02D0
2FEF80
06F900
ENDCHAR
STARTCHAR eacute
ENCODING 233
SWIDTH 518 0
DWIDTH 12 0
BBX 11 18 1 0
BITMAP
0001F4
000BC0
001A00
000000
000000
01BE40
07FFE0
1F41F0
3C00B4
780078
BFFFF8
FAAAA4
F00000
F40000
B80040
7D02D0
2FEF80
06F900
ENDCHAR
STARTCHAR ecircumflex
ENCODING 234
SWIDTH 518 0
DWIDTH 12 0
BBX 11 18 1 0
BITMAP
001F40
01BAE0
02E0F0
000000
000000
01BE40
07FFE0
1F41F0
3C00B4
780078
BFFFF8
FAAAA4
F00000
F40000
B80040
7D02D0
2FEF80
06F900
ENDCHAR
STARTCHAR edieresis
ENCODING 235
SWIDTH 518 0
DWIDTH 12 0
BBX 11 18 1 0
BITMAP
004050
02E0F4
02D0B4
000000
000000
01BE40
07FFE0
1F41F0
3C00B4
780078
BFFFF8
FAAAA4
F00000
F40000
B80040
7D02D0
2FEF80
06F900
ENDCHAR
STARTCHAR igrave
ENCODING 236
SWIDTH 244 0
DWIDTH 6 0
BBX 5 18 0 0
BITMAP
1F00
0B80
0280
0000
0000
0780
0B80
0B40
0F40
0F00
1F00
1E00
2E00
2D00
3D00
3C00
7C00
7800
ENDCHAR
STARTCHAR iacute
ENCODING 237
SWIDTH 244 0
DWIDTH 6 0
BBX 8 18 0 0
BITMAP
002E
00F8
02D0
0000
0000
0780
0B80
0B40
0F40
0F00
1F00
1E00
2E00
2D00
3D00
3C00
7C00
7800
ENDCHAR
STARTCHAR icircumflex
ENCODING 238
SWIDTH 244 0
DWIDTH 6 0
BBX 8 18 0 0
BITMAP
02E0
1FBD
7D1E
0000
0000
0780
0B80
0B40
0F40
0F00
1F00
1E00
2E00
2D00
3D00
3C00
7C00
7800
ENDCHAR
STARTCHAR idieresis
ENCODING 239
SWIDTH 244 0
DWIDTH 6 0
BBX 8 18 0 0
BITMAP
1405
7D1F
380E
0000
0000
0780
0B80
0B40
0F40
0F00
1F00
1E00
2E00
2D00
3D00
3C00
7C00
7800
ENDCHAR
STARTCHAR eth
ENCODING 240
SWIDTH 573 0
DWIDTH 14 0
BBX 12 18 1 0
BITMAP
00A400
00FE1A
002FF9
0007F0
002EF8
00347C
00003D
01BE6D
0BFBFD
1F407D
3D002D
78003D
B4003C
B40078
B800F4
7D02E0
2FEF80
06F900
ENDCHAR
STARTCHAR ntilde
ENCODING 241
SWIDTH 540 0
DWIDTH 13 0
BBX 12 18 0 0
BITMAP
001906
00BFEF
00E1B9
000000
000000
0B5BE0
0BBFFC
0FD07D
0F402D
1F002D
1E002D
2E003C
2D003C
3D0078
3C0078
7C00B4
7800B4
B800F0
ENDCHAR
STARTCHAR ograve
ENCODING 242
SWIDTH 558 0
DWIDTH 13 0
BBX 12 18 1 0
BITMAP
00B800
003D00
001D00
000000
000000
01BF40
0BFBE0
1F40F4
3D007C
B8003C
B4003D
F0003C
F0003C
F00078
B400F4
7D07E0
2FFF80
06F900
ENDCHAR
STARTCHAR oacute
ENCODING 243
SWIDTH 558 0
DWIDTH 13 0
BBX 12 18 1 0
BITMAP
0001F4
0007D0
000A00
000000
000000
01BF40
0BFBE0
1F40F4
3D007C
B8003C
B4003D
F0003C
F0003C
F00078
B400F4
7D07E0
2FFF80
06F900
ENDCHAR
STARTCHAR ocircumflex
ENCODING 244
SWIDTH 558 0
DWIDTH 13 0
BBX 12 18 1 0
BITMAP
001F40
00BAE0
02E0F4
000000
000000
01BF40
0BFBE0
1F40F4
3D007C
B8003C
B4003D
F0003C
F0003C
F00078
B400F4
7D07E0
2FFF80
06F900
ENDCHAR
STARTCHAR otilde
ENCODING 245
SWIDTH 558 0
DWIDTH 13 0
BBX 12 18 1 0
BITMAP
006418
02FFB8
0386E0
000000
000000
01BF40
0BFBE0
1F40F4
3D007C
B8003C
B4003D
F0003C
F0003C
F00078
B400F4
7D07E0
2FFF80
06F900
ENDCHAR
STARTCHAR odieresis
ENCODING 246
SWIDTH 558 0
DWIDTH 13 0
BBX 12 18 1 0
BITMAP
004010
02E0B8
01D0B4
000000
000000
01BF40
0BFBE0
1F40F4
3D007C
B8003C
B4003D
F0003C
F0003C
F00078
B400F4
7D07E0
2FFF80
06F900
ENDCHAR
STARTCHAR divide
ENCODING 247
SWIDTH 558 0
DWIDTH 13 0
BBX 12 12 1 2
BITMAP
001E00
002E00
001900
000000
000000
FFFFFD
FFFFFD
000000
000000
005000
01F000
01F000
ENDCHAR
STARTCHAR oslash
ENCODING 248
SWIDTH 554 0
DWIDTH 13 0
BBX 12 17 1 -2
BITMAP
000004
00002C
01BFB4
0BFBF0
1F42F8
3D07BC
B80A3C
F41C3D
F0743C
F0A07C
F1C0B8
F741F0
BE07E0
3FBF80
3BF900
A00000
400000
ENDCHAR
STARTCHAR ugrave
ENCODING 249
SWIDTH 539 0
DWIDTH 13 0
BBX 12 18 1 0
BITMAP
00B800
003D00
001D00
000000
000000
1E003D
2E003C
2D007C
3D0078
3C00B8
7C00B4
7800F4
B800F0
B401F0
B402E0
B80BE0
7FFFD0
1BE6D0
ENDCHAR
STARTCHAR uacute
ENCODING 250
SWIDTH 539 0
DWIDTH 13 0
BBX 12 18 1 0
BITMAP
0001F4
0007D0
000A00
000000
000000
1E003D
2E003C
2D007C
3D0078
3C00B8
7C00B4
7800F4
B800F0
B401F0
B402E0
B80BE0
7FFFD0
1BE6D0
ENDCHAR
STARTCHAR ucircumflex
ENCODING 251
SWIDTH 539 0
DWIDTH 13 0
BBX 12 18 1 0
BITMAP
001F40
00BEE0
02E0B4
000000
000000
1E003D
2E003C
2D007C
3D0078
3C00B8
7C00B4
7800F4
B800F0
B401F0
B402E0
B80BE0
7FFFD0
1BE6D0
ENDCHAR
STARTCHAR udieresis
ENCODING 252
SWIDTH 539 0
DWIDTH 13 0
BBX 12 18 1 0
BITMAP
004010
02E0B8
01D074
000000
000000
1E003D
2E003C
2D007C
3D0078
3C00B8
7C00B4
7800F4
B800F0
B401F0
B402E0
B80BE0
7FFFD0
1BE6D0
ENDCHAR
STARTCHAR yacute
ENCODING 253
SWIDTH 463 0
DWIDTH 11 0
BBX 13 23 -1 -5
BITMAP
00003E00
0000F800
0002D000
00000000
00000000
0B800B80
07801F00
07C02E00
03C07C00
03C0B400
02D1F000
02D2D000
01E3C000
01EB4000
00FF0000
00FD0000
00BC0000
00B40000
00F00000
02D00000
07C00000
FF400000
F9000000
ENDCHAR
STARTCHAR thorn
ENCODING 254
SWIDTH 563 0
DWIDTH 14 0
BBX 13 23 -1 -5
BITMAP
00780000
00B40000
00F40000
00F00000
01F00000
01E6F800
02FFFF00
02F41F80
03D007C0
03C007C0
07C003C0
078007C0
0B800780
0B400B80
0F401F00
0F807E00
1FFBF800
1E2FD000
2E000000
2D000000
3D000000
3C000000
7C000000
ENDCHAR
STARTCHAR ydieresis
ENCODING 255
SWIDTH 463 0
DWIDTH 11 0
BBX 13 23 -1 -5
BITMAP
00140500
007C1F00
00381E00
00000000
00000000
0B800B80
07801F00
07C02E00
03C07C00
03C0B400
02D1F000
02D2D000
01E3C000
01EB4000
00FF0000
00FD0000
00BC0000
00B40000
00F00000
02D00000
07C00000
FF400000
F9000000
ENDCHAR
STARTCHAR Amacron
ENCODING 256
SWIDTH 637 0
DWIDTH 15 0
BBX 15 21 -1 0
BITMAP
0002AAA8
0003FFF8
00000000
00000000
00003D00
00007E00
0000FE00
0002EF00
0003CB00
000B8B40
001F0780
002E0780
007C03C0
00F403C0
01F002D0
03FFFFE0
07FFFFE0
0F4001F0
2E0000F0
3D0000B4
B80000B8
ENDCHAR
STARTCHAR amacron
ENCODING 257
SWIDTH 532 0
DWIDTH 13 0
BBX 12 17 0 0
BITMAP
006AAA
00BFFF
000000
000000
006F90
02FAF8
0B807C
0A003D
00003D
01BFFC
0BEABC
2E0078
3C00B8
7C00F4
7D07F4
2FFFF4
07F8F4
ENDCHAR
STARTCHAR Abreve
ENCODING 258
SWIDTH 637 0
DWIDTH 15 0
BBX 15 21 -1 0
BITMAP
0001D074
0000F6F0
00006F80
00000000
00003D00
00007E00
0000FE00
0002EF00
0003CB00
000B8B40
001F0780
002E0780
007C03C0
00F403C0
01F002D0
03FFFFE0
07FFFFE0
0F4001F0
2E0000F0
3D0000B4
B80000B8
ENDCHAR
STARTCHAR abreve
ENCODING 259
SWIDTH 532 0
DWIDTH 13 0
BBX 12 17 0 0
BITMAP
00380E
002E7D
000BE4
000000
006F90
02FAF8
0B807C
0A003D
00003D
01BFFC
0BEABC
2E0078
3C00B8
7C00F4
7D07F4
2FFFF4
07F8F4
ENDCHAR
STARTCHAR Aogonek
ENCODING 260
SWIDTH 637 0
DWIDTH 15 0
BBX 15 22 -1 -5
BITMAP
00003D00
00007E00
0000FE00
0002EF00
0003CB00
000B8B40
001F0780
002E0780
007C03C0
00F403C0
01F002D0
03FFFFE0
07FFFFE0
0F4001F0
2E0000F0
3D0000F4
B80000B8
000001E0
00000740
00000F00
00000FA0
000007E0
ENDCHAR
STARTCHAR aogonek
ENCODING 261
SWIDTH 532 0
DWIDTH 13 0
BBX 12 18 0 -5
BITMAP
006F90
02FAF8
0B807C
0A003D
00003D
01BFFC
0BEABC
2E0078
3C00B8
7C00F4
7D07F4
2FFFF4
07F8F4
0002D0
000B00
001E00
001F90
000BD0
ENDCHAR
STARTCHAR Cacute
ENCODING 262
SWIDTH 636 0
DWIDTH 15 0
BBX 14 22 1 0
BITMAP
00001F40
00007D00
0000A000
00000000
00000000
001BF900
00BFFF40
03E40BC0
0B8002E0
1F0001E0
2E0001A0
3D000000
7C000000
78000000
B8000000
B8000000
B8000540
78000B40
3D001F00
2E40BD00
0BFFF400
01BF8000
ENDCHAR
STARTCHAR cacute
ENCODING 263
SWIDTH 512 0
DWIDTH 12 0
BBX 11 18 1 0
BITMAP
0002E0
000B80
001D00
000000
000000
01BE40
0BFFE0
2F41F4
3D0078
B80064
B40000
F00000
F00000
F00050
B401E0
7C07D0
2FBF40
07F900
ENDCHAR
STARTCHAR Ccircumflex
ENCODING 264
SWIDTH 636 0
DWIDTH 15 0
BBX 14 22 1 0
BITMAP
0001F400
000BEE00
002E0B40
00000000
00000000
001BF900
00BFFF40
03E40BC0
0B8002E0
1F0001E0
2E0001A0
3D000000
7C000000
78000000
B8000000
B8000000
B8000540
78000B40
3D001F00
2E40BD00
0BFFF400
01BF8000
ENDCHAR
STARTCHAR ccircumflex
ENCODING 265
SWIDTH 512 0
DWIDTH 12 0
BBX 11 18 1 0
BITMAP
002E00
01FBD0
07D1E0
000000
000000
01BE40
0BFFE0
2F41F4
3D0078
B80064
B40000
F00000
F00000
F00050
B401E0
7C07D0
2FBF40
07F900
ENDCHAR
STARTCHAR Cdotaccent
ENCODING 266
SWIDTH 636 0
DWIDTH 15 0
BBX 14 22 1 0
BITMAP
00005000
0001F000
0000E000
00000000
00000000
001BF900
00BFFF40
03E40BC0
0B8002E0
1F0001E0
2E0001A0
3D000000
7C000000
78000000
B8000000
B8000000
B8000540
78000B40
3D001F00
2E40BD00
0BFFF400
01BF8000
ENDCHAR
STARTCHAR cdotaccent
ENCODING 267
SWIDTH 512 0
DWIDTH 12 0
BBX 11 18 1 0
BITMAP
000400
002E00
001D00
000000
000000
01BE40
0BFFE0
2F41F4
3D0078
B80064
B40000
F00000
F00000
F00050
B401E0
7C07D0
2FBF40
07F900
ENDCHAR
STARTCHAR Ccaron
ENCODING 268
SWIDTH 636 0
DWIDTH 15 0
BBX 14 22 1 0
BITMAP
000E0B40
0003AD00
0001F000
00000000
00000000
001BF900
00BFFF40
03E40BC0
0B8002E0
1F0001E0
2E0001A0
3D000000
7C000000
78000000
B8000000
B8000000
B8000540
78000B40
3D001F00
2E40BD00
0BFFF400
01BF8000
ENDCHAR
STARTCHAR ccaron
ENCODING 269
SWIDTH 512 0
DWIDTH 12 0
BBX 11 18 1 0
BITMAP
01D1E0
00B780
002E00
000000
000000
01BE40
0BFFE0
2F41F4
3D0078
B80064
B40000
F00000
F00000
F00050
B401E0
7C07D0
2FBF40
07F900
ENDCHAR
STARTCHAR Dcaron
ENCODING 270
SWIDTH 641 0
DWIDTH 15 0
BBX 15 22 0 0
BITMAP
000B0780
0003AD00
0000F400
00000000
00000000
01FFF800
02FFFF40
02D00BC0
03D002E0
03C001F0
07C000F4
078000F4
0B8000F4
0F4000F0
0F4001F0
1F0001E0
1F0003D0
2E0007C0
2E001F40
3D01BD00
3FFFF400
7FFE4000
ENDCHAR
STARTCHAR dcaron
ENCODING 271
SWIDTH 625 0
DWIDTH 15 0
BBX 16 18 1 0
BITMAP
00000F4F
00000F1E
00001F2D
00001E7C
00002E64
01BE2D00
0BFFFD00
2F41FC00
3D007C00
B8007800
B400B800
F000B400
F000F400
F000F000
F401F000
B807E000
3FFFE000
0BE6D000
ENDCHAR
STARTCHAR Dcroat
ENCODING 272
SWIDTH 655 0
DWIDTH 16 0
BBX 15 17 0 0
BITMAP
00FFF900
01FFFF40
01E007D0
02E001F0
02D000F4
03D000B8
07C000B8
BFFE00B8
AFE900B8
0B4000F4
0F4000F0
0F0002E0
1F0003D0
1E000F80
2E007E00
2FFFF800
3FFE8000
ENDCHAR
STARTCHAR dcroat
ENCODING 273
SWIDTH 583 0
DWIDTH 14 0
BBX 14 18 1 0
BITMAP
00000B40
00000F00
0003FFF0
0006BFA0
00002E00
01FE2D00
0BFFFD00
2F41FC00
3D007C00
B8007800
F400B800
F000B400
F000F400
F000F000
F401F000
B807E000
3FFFE000
0BE6D000
ENDCHAR
STARTCHAR Emacron
ENCODING 274
SWIDTH 556 0
DWIDTH 13 0
BBX 14 21 0 0
BITMAP
001AAA80
002FFFC0
00000000
00000000
01FFFFF0
02FFFFE0
02D00000
03D00000
03C00000
07C00000
07800000
0BFFFE00
0BFFFD00
0F000000
1F000000
1E000000
2E000000
2D000000
3D000000
3FFFFD00
7FFFFD00
ENDCHAR
STARTCHAR emacron
ENCODING 275
SWIDTH 518 0
DWIDTH 12 0
BBX 11 17 1 0
BITMAP
02AAA8
03FFF8
000000
000000
01BE40
07FFE0
1F41F0
3C00B4
780078
BFFFF8
FAAAA4
F00000
F40000
B80040
7D02D0
2FEF80
06F900
ENDCHAR
STARTCHAR Ebreve
ENCODING 276
SWIDTH 556 0
DWIDTH 13 0
BBX 14 21 0 0
BITMAP
000F0380
000B9B40
0002F900
00000000
01FFFFF0
02FFFFE0
02D00000
03D00000
03C00000
07C00000
07800000
0BFFFE00
0BFFFD00
0F000000
1F000000
1E000000
2E000000
2D000000
3D000000
3FFFFD00
7FFFFD00
ENDCHAR
STARTCHAR ebreve
ENCODING 277
SWIDTH 518 0
DWIDTH 12 0
BBX 11 17 1 0
BITMAP
01D074
00F6F0
006F80
000000
01BE40
07FFE0
1F41F0
3C00B4
780078
BFFFF8
FAAAA4
F00000
F40000
B80040
7D02D0
2FEF80
06F900
ENDCHAR
STARTCHAR Edotaccent
ENCODING 278
SWIDTH 556 0
DWIDTH 13 0
BBX 14 22 0 0
BITMAP
00005000
0000F400
0000B400
00000000
00000000
01FFFFF0
02FFFFE0
02D00000
03D00000
03C00000
07C00000
07800000
0BFFFE00
0BFFFD00
0F000000
1F000000
1E000000
2E000000
2D000000
3D000000
3FFFFD00
7FFFFD00
ENDCHAR
STARTCHAR edotaccent
ENCODING 279
SWIDTH 518 0
DWIDTH 12 0
BBX 11 18 1 0
BITMAP
000500
001F00
000E00
000000
000000
01BE40
07FFE0
1F41F0
3C00B4
780078
BFFFF8
FAAAA4
F00000
F40000
B80040
7D02D0
2FEF80
06F900
ENDCHAR
STARTCHAR Eogonek
ENCODING 280
SWIDTH 556 0
DWIDTH 13 0
BBX 14 22 0 -5
BITMAP
01FFFFF0
02FFFFE0
02D00000
03D00000
03C00000
07C00000
07800000
0BFFFE00
0BFFFD00
0F000000
1F000000
1E000000
2E000000
2D000000
3D000000
3FFFFD00
7FFFFD00
0001E000
00078000
000B0000
000BA000
0007E000
ENDCHAR
STARTCHAR eogonek
ENCODING 281
SWIDTH 518 0
DWIDTH 12 0
BBX 11 18 1 -5
BITMAP
01BE40
0BFFD0
1E41F0
3C00B4
B800B4
BFFFF4
FAAAA4
F00000
F00000
B40040
7D02D0
2FAF80
06FD00
00F000
02D000
03C000
02E800
01F800
ENDCHAR
STARTCHAR Ecaron
ENCODING 282
SWIDTH 556 0
DWIDTH 13 0
BBX 14 22 0 0
BITMAP
000B4780
0002ED00
0000F400
00000000
00000000
01FFFFF0
02FFFFE0
02D00000
03D00000
03C00000
07C00000
07800000
0BFFFE00
0BFFFD00
0F000000
1F000000
1E000000
2E000000
2D000000
3D000000
3FFFFD00
7FFFFD00
ENDCHAR
STARTCHAR ecaron
ENCODING 283
SWIDTH 518 0
DWIDTH 12 0
BBX 11 18 1 0
BITMAP
00E0B4
007AD0
001E00
000000
000000
01BE40
07FFE0
1F41F0
3C00B4
780078
BFFFF8
FAAAA4
F00000
F40000
B80040
7D02D0
2FEF80
06F900
ENDCHAR
STARTCHAR Gcircumflex
ENCODING 284
SWIDTH 665 0
DWIDTH 16 0
BBX 14 22 1 0
BITMAP
0001F400
001BAE00
002E0F00
00000000
00000000
001BF900
00BFFF80
03E407D0
0B8002E0
1F0001F0
2E000000
3D000000
3C000000
7C000000
7802FFD0
7802AFC0
780007C0
7C000780
3D000B80
1F401F40
0BFFFE00
01BFA000
ENDCHAR
STARTCHAR gcircumflex
ENCODING 285
SWIDTH 549 0
DWIDTH 13 0
BBX 13 23 0 -5
BITMAP
0007D000
006EB800
00B83C00
00000000
00000000
007F8B40
02FFFF40
0BD07F00
0F401F00
2E001E00
2D002E00
3D002D00
3C003D00
3C003C00
3D007C00
2F01F800
0FFFF800
02F9B400
0000F000
1002E000
B407D000
7FBF4000
0BF90000
ENDCHAR
STARTCHAR Gbreve
ENCODING 286
SWIDTH 665 0
DWIDTH 16 0
BBX 14 21 1 0
BITMAP
001D0740
000F6F00
0002F800
00000000
001BF900
00BFFF80
03E407D0
0B8002E0
1F0001F0
2E000000
3D000000
3C000000
7C000000
7802FFD0
7802AFC0
780007C0
7C000780
3D000B80
1F401F40
0BFFFE00
01BFA000
ENDCHAR
STARTCHAR gbreve
ENCODING 287
SWIDTH 549 0
DWIDTH 13 0
BBX 13 22 0 -5
BITMAP
00741D00
003DBC00
000BE000
00000000
007F8B40
02FFFF40
0BD07F00
0F401F00
2E001E00
2D002E00
3D002D00
3C003D00
3C003C00
3D007C00
2F01F800
0FFFF800
02F9B400
0000F000
1002E000
B407D000
7FBF4000
0BF90000
ENDCHAR
STARTCHAR Gdotaccent
ENCODING 288
SWIDTH 665 0
DWIDTH 16 0
BBX 14 22 1 0
BITMAP
00005000
0001F000
0000E000
00000000
00000000
001BF900
00BFFF80
03E407D0
0B8002E0
1F0001F0
2E000000
3D000000
3C000000
7C000000
7802FFD0
7802AFC0
780007C0
7C000780
3D000B80
1F401F40
0BFFFE00
01BFA000
ENDCHAR
STARTCHAR gdotaccent
ENCODING 289
SWIDTH 549 0
DWIDTH 13 0
BBX 13 23 0 -5
BITMAP
00014000
0007C000
00038000
00000000
00000000
007F8B40
02FFFF40
0BD07F00
0F401F00
2E001E00
2D002E00
3D002D00
3C003D00
3C003C00
3D007C00
2F01F800
0FFFF800
02F9B400
0000F000
1002E000
B407D000
7FBF4000
0BF90000
ENDCHAR
STARTCHAR uni0122
ENCODING 290
SWIDTH 665 0
DWIDTH 16 0
BBX 14 23 1 -6
BITMAP
001BF900
00BFFF80
03E407D0
0B8002E0
1F0001F0
2E000000
3D000000
3C000000
7C000000
7802FFD0
7802AFC0
780007C0
7C000780
3D000B80
1F401F40
0BFFFE00
01BFA000
00000000
00780000
00B80000
00B40000
01E00000
01800000
ENDCHAR
STARTCHAR uni0123
ENCODING 291
SWIDTH 549 0
DWIDTH 13 0
BBX 13 25 0 -5
BITMAP
00009000
0001E000
0003D000
0007C000
00078000
00000000
00000000
007F8B40
02FFFF40
0BD07F00
0F401F00
2E001E00
2D002E00
3D002D00
3C003D00
3C003C00
3D007C00
2F01F800
0FFFF800
02F9B400
0000F000
1002E000
B407D000
7FBF4000
0BF90000
ENDCHAR
STARTCHAR Hcircumflex
ENCODING 292
SWIDTH 696 0
DWIDTH 17 0
BBX 17 22 0 0
BITMAP
00002E0000
0002FB8000
0007D2E000
0000000000
0000000000
01E0000F40
02E0000F00
02D0001F00
03D0001E00
03C0002E00
07C0002D00
0780003D00
0BFFFFFC00
0BFFFFFC00
0F0000B800
1F0000B800
1E0000F400
2E0000F400
2D0001F000
3D0001F000
3C0002E000
7C0002E000
ENDCHAR
STARTCHAR hcircumflex
ENCODING 293
SWIDTH 539 0
DWIDTH 13 0
BBX 12 22 0 0
BITMAP
0007D0
006EB8
00B83C
000000
02E000
02D000
03C000
03C000
078000
079BE0
0BBFFC
0BD03D
0F402D
0F002D
1E002D
2E003C
2D003C
3D0078
3C0078
7C00B4
7800B4
B800F0
ENDCHAR
STARTCHAR Hbar
ENCODING 294
SWIDTH 684 0
DWIDTH 16 0
BBX 18 17 0 0
BITMAP
02E0000F40
02D0001F00
03D0001F00
2FFFFFFFD0
2BEAAABE80
0780003D00
0B80003C00
0BFFFFFC00
0FFFFFF800
0F0000B800
1F0000B400
1E0000F400
2E0000F000
2D0001F000
3D0001E000
3C0002E000
7C0002D000
ENDCHAR
STARTCHAR hbar
ENCODING 295
SWIDTH 553 0
DWIDTH 13 0
BBX 12 18 0 0
BITMAP
01F000
01E000
3FFF40
2BEA40
03C000
03CBF4
07FFFD
07E02E
0B801E
0B401E
0F001E
0F002D
1E002D
1E003C
2D003C
3D0078
3C0078
7C00B4
ENDCHAR
STARTCHAR Itilde
ENCODING 296
SWIDTH 268 0
DWIDTH 6 0
BBX 9 22 1 0
BITMAP
1A0240
7FEF40
B0BD00
000000
000000
07C000
078000
0B8000
0B4000
0F4000
0F0000
1F0000
1E0000
2E0000
3D0000
3D0000
7C0000
780000
B80000
B40000
F40000
F00000
ENDCHAR
STARTCHAR itilde
ENCODING 297
SWIDTH 244 0
DWIDTH 6 0
BBX 9 18 0 0
BITMAP
1A0240
7FEF40
B0BD00
000000
000000
078000
0B8000
0B4000
0F4000
0F0000
1F0000
1E0000
2E0000
2D0000
3D0000
3C0000
7C0000
780000
ENDCHAR
STARTCHAR Imacron
ENCODING 298
SWIDTH 268 0
DWIDTH 6 0
BBX 9 21 1 0
BITMAP
6AAA40
7FFF40
000000
000000
07C000
078000
0B8000
0B4000
0F4000
0F0000
1F0000
1E0000
2E0000
3D0000
3D0000
7C0000
780000
B80000
B40000
F40000
F00000
ENDCHAR
STARTCHAR imacron
ENCODING 299
SWIDTH 244 0
DWIDTH 6 0
BBX 9 17 0 0
BITMAP
2AAA40
7FFF40
000000
000000
078000
0B8000
0B4000
0F4000
0F0000
1F0000
1E0000
2E0000
2D0000
3D0000
3C0000
7C0000
780000
ENDCHAR
STARTCHAR Ibreve
ENCODING 300
SWIDTH 268 0
DWIDTH 6 0
BBX 8 21 1 0
BITMAP
2C0F
1E6D
07F4
0000
07C0
0780
0B80
0B40
0F40
0F00
1F00
1E00
2E00
3D00
3D00
7C00
7800
B800
B400
F400
F000
ENDCHAR
STARTCHAR ibreve
ENCODING 301
SWIDTH 244 0
DWIDTH 6 0
BBX 8 17 0 0
BITMAP
2C0F
1E6D
07F4
0000
0780
0B80
0B40
0F40
0F00
1F00
1E00
2E00
2D00
3D00
3C00
7C00
7800
ENDCHAR
STARTCHAR Iogonek
ENCODING 302
SWIDTH 268 0
DWIDTH 6 0
BBX 8 22 -2 -5
BITMAP
001F
001E
002E
002D
003D
003C
007C
0078
00B8
00F4
00F4
01F0
01E0
02E0
02D0
03D0
07C0
1E00
3C00
7800
7E40
2F40
ENDCHAR
STARTCHAR iogonek
ENCODING 303
SWIDTH 240 0
DWIDTH 6 0
BBX 8 23 -2 -5
BITMAP
0004
002E
002D
0000
0000
0078
00B8
00B4
00F4
00F0
01F0
01E0
02E0
02D0
03D0
03C0
07C0
0BC0
2E00
7800
B400
BA00
2E00
ENDCHAR
STARTCHAR Idotaccent
ENCODING 304
SWIDTH 268 0
DWIDTH 6 0
BBX 6 22 1 0
BITMAP
0040
02E0
02D0
0000
0000
07C0
0780
0B80
0B40
0F40
0F00
1F00
1E00
2E00
3D00
3D00
7C00
7800
B800
B400
F400
F000
ENDCHAR
STARTCHAR dotlessi
ENCODING 305
SWIDTH 244 0
DWIDTH 6 0
BBX 5 13 0 0
BITMAP
0780
0B80
0B40
0F40
0F00
1F00
1E00
2E00
2D00
3D00
3C00
7C00
7800
ENDCHAR
STARTCHAR IJ
ENCODING 306
SWIDTH 808 0
DWIDTH 19 0
BBX 19 17 1 0
BITMAP
07C00000F4
07800000F0
0B800001F0
0B400001E0
0F400002E0
0F000003D0
1F000003D0
1E000007C0
2E000007C0
3D00000B80
3D00000B80
7C00000F40
781F000F00
B81F002E00
B40F80BD00
F407FFF400
F001BF9000
ENDCHAR
STARTCHAR ij
ENCODING 307
SWIDTH 476 0
DWIDTH 11 0
BBX 12 23 0 -5
BITMAP
004014
02E03D
02D038
000000
000000
0780B4
0B80F4
0B40F0
0F41F0
0F01E0
1F02E0
1E02D0
2E03D0
2D03C0
3D07C0
3C0780
7C0B80
780B40
000F40
000F00
002E00
02FD00
02E400
ENDCHAR
STARTCHAR Jcircumflex
ENCODING 308
SWIDTH 540 0
DWIDTH 13 0
BBX 15 22 0 0
BITMAP
000007D0
00006EB8
0000B83C
00000000
00000000
00000780
00000B80
00000B40
00000F40
00000F00
00001F00
00001E00
00002E00
00002D00
00003D00
00003C00
00007C00
B400B800
B800F400
7D06E000
2FFFC000
06F90000
ENDCHAR
STARTCHAR jcircumflex
ENCODING 309
SWIDTH 249 0
DWIDTH 6 0
BBX 11 23 -3 -5
BITMAP
000B80
007EF4
00F478
000000
000000
000F00
001E00
001E00
002D00
002D00
003C00
003C00
007800
00B800
00B400
00F400
00F000
01F000
01E000
02E000
03D000
AF8000
BE0000
ENDCHAR
STARTCHAR uni0136
ENCODING 310
SWIDTH 612 0
DWIDTH 15 0
BBX 16 22 0 -5
BITMAP
01E0007D
02E001F4
02D00BD0
03D02F40
03C0BD00
07C2F400
078BD000
0BAF4000
0BFF8000
0FFBC000
1F82E000
1F01F400
2E00B800
2E003D00
3D002F00
3C000F40
7C0007C0
003D0000
003C0000
00780000
00F40000
00900000
ENDCHAR
STARTCHAR uni0137
ENCODING 311
SWIDTH 496 0
DWIDTH 12 0
BBX 12 23 0 -5
BITMAP
02E000
02D000
03D000
03C000
078000
07803E
0B40F8
0B47E0
0F1F80
0F7E00
1FF800
1FFC00
2F6E00
3D1F00
3C0B80
7C07C0
7802E0
B800F4
01E000
02D000
03C000
078000
060000
ENDCHAR
STARTCHAR kgreenlandic
ENCODING 312
SWIDTH 544 0
DWIDTH 13 0
BBX 13 13 0 0
BITMAP
07801F40
0B807D00
0B41F400
0F4BD000
0F2F4000
1FFD0000
1FFC0000
2E2E0000
2D0F4000
3D0BC000
3C03E000
7C01F000
7800B800
ENDCHAR
STARTCHAR Lacute
ENCODING 313
SWIDTH 526 0
DWIDTH 13 0
BBX 11 22 0 0
BITMAP
001F80
007D00
00B400
000000
000000
01E000
02E000
02D000
03D000
03C000
07C000
078000
0B8000
0B4000
0F4000
1F0000
1F0000
2E0000
2E0000
3D0000
3FFFF8
7FFFFC
ENDCHAR
STARTCHAR lacute
ENCODING 314
SWIDTH 240 0
DWIDTH 6 0
BBX 9 23 0 0
BITMAP
001F80
007D00
00B400
000000
000000
01E000
02E000
02D000
03D000
03C000
07C000
078000
0B4000
0B4000
0F0000
0F0000
1E0000
2E0000
2D0000
3D0000
3C0000
7C0000
780000
ENDCHAR
STARTCHAR uni013B
ENCODING 315
SWIDTH 526 0
DWIDTH 13 0
BBX 11 23 0 -6
BITMAP
01E000
02E000
02D000
03D000
03C000
07C000
078000
0B8000
0B4000
0F4000
1F0000
1F0000
2E0000
2E0000
3D0000
3FFFF8
7FFFFC
000000
007800
00B400
00F000
02E000
018000
ENDCHAR
STARTCHAR uni013C
ENCODING 316
SWIDTH 240 0
DWIDTH 6 0
BBX 7 24 -1 -6
BITMAP
0078
00B8
00B4
00F4
00F0
01F0
01E0
02D0
02D0
03C0
03C0
0780
0B80
0B40
0F40
0F00
1F00
1E00
0000
2D00
3C00
7C00
B400
A000
ENDCHAR
STARTCHAR Lcaron
ENCODING 317
SWIDTH 526 0
DWIDTH 13 0
BBX 11 17 0 0
BITMAP
01E03C
02E078
02D0B4
03D1F0
03C090
07C000
078000
0B8000
0B4000
0F4000
1F0000
1F0000
2E0000
2E0000
3D0000
3FFFF8
7FFFFC
ENDCHAR
STARTCHAR lcaron
ENCODING 318
SWIDTH 313 0
DWIDTH 8 0
BBX 10 18 0 0
BITMAP
01E1E0
02E2D0
02D3C0
03DB80
03C600
07C000
078000
0B4000
0B4000
0F0000
0F0000
1E0000
2E0000
2D0000
3D0000
3C0000
7C0000
780000
ENDCHAR
STARTCHAR Ldot
ENCODING 319
SWIDTH 526 0
DWIDTH 13 0
BBX 11 17 0 0
BITMAP
01E000
02E000
02D000
03D000
03C000
07C000
078140
0B83D0
0B42D0
0F4000
1F0000
1F0000
2E0000
2E0000
3D0000
3FFFF8
7FFFFC
ENDCHAR
STARTCHAR ldot
ENCODING 320
SWIDTH 347 0
DWIDTH 8 0
BBX 8 18 0 0
BITMAP
01E0
02E0
02D0
03D0
03C0
07C0
0780
0B45
0B5F
0F1E
0F00
1E00
2E00
2D00
3D00
3C00
7C00
7800
ENDCHAR
STARTCHAR Lslash
ENCODING 321
SWIDTH 527 0
DWIDTH 13 0
BBX 11 17 0 0
BITMAP
01E000
02E000
02D000
03D000
03C000
07C000
0B9A00
0BFD00
7F8000
5F4000
1F0000
1F0000
2E0000
2D0000
3D0000
3FFFF8
7FFFF8
ENDCHAR
STARTCHAR lslash
ENCODING 322
SWIDTH 266 0
DWIDTH 6 0
BBX 7 18 0 0
BITMAP
00F0
01E0
02E0
02D0
03D0
03C0
07C0
07E4
0BF4
7F40
5F40
0F00
1F00
1E00
2E00
2D00
3D00
3C00
ENDCHAR
STARTCHAR Nacute
ENCODING 323
SWIDTH 696 0
DWIDTH 17 0
BBX 17 22 0 0
BITMAP
000002E000
00000F8000
00002D0000
0000000000
0000000000
01F0000F40
02F4000F00
02FC001F00
03FD001E00
03EF002E00
07CF402D00
078B803D00
0B83D03C00
0B42E07C00
0F41F47800
1F00B8B800
1F007CB400
2E002EF400
2E001FF000
3D000FF000
3C0007E000
7C0003E000
ENDCHAR
STARTCHAR nacute
ENCODING 324
SWIDTH 540 0
DWIDTH 13 0
BBX 12 18 0 0
BITMAP
00007D
0001F4
0002D0
000000
000000
0B5BE0
0BBFFC
0FD07D
0F402D
1F002D
1E002D
2E003C
2D003C
3D0078
3C0078
7C00B4
7800B4
B800F0
ENDCHAR
STARTCHAR uni0145
ENCODING 325
SWIDTH 696 0
DWIDTH 17 0
BBX 17 23 0 -6
BITMAP
01F0000F40
02F4000F00
02FC001F00
03FD001E00
03EF002E00
07CF402D00
078B803D00
0B83D03C00
0B42E07C00
0F41F47800
1F00B8B800
1F007CB400
2E002EF400
2E001FF000
3D000FF000
3C0007E000
7C0003E000
0000000000
001E000000
002D000000
003D000000
0078000000
0060000000
ENDCHAR
STARTCHAR uni0146
ENCODING 326
SWIDTH 540 0
DWIDTH 13 0
BBX 12 19 0 -6
BITMAP
0B5BE0
0BBFFC
0FD07D
0F402D
1F002D
1E002D
2E003C
2D003C
3D0078
3C0078
7C00B4
7800B4
B800F0
000000
00F000
01E000
02D000
07C000
024000
ENDCHAR
STARTCHAR Ncaron
ENCODING 327
SWIDTH 696 0
DWIDTH 17 0
BBX 17 22 0 0
BITMAP
0001D1E000
0000B78000
00002E0000
0000000000
0000000000
01F0000F40
02F4000F00
02FC001F00
03FD001E00
03EF002E00
07CF402D00
078B803D00
0B83D03C00
0B42E07C00
0F41F47800
1F00B8B800
1F007CB400
2E002EF400
2E001FF000
3D000FF000
3C0007E000
7C0003E000
ENDCHAR
STARTCHAR ncaron
ENCODING 328
SWIDTH 540 0
DWIDTH 13 0
BBX 12 18 0 0
BITMAP
002C2D
000EB4
0007D0
000000
000000
0B5BE0
0BBFFC
0FD07D
0F402D
1F002D
1E002D
2E003C
2D003C
3D0078
3C0078
7C00B4
7800B4
B800F0
ENDCHAR
STARTCHAR napostrophe
ENCODING 329
SWIDTH 540 0
DWIDTH 13 0
BBX 12 18 0 0
BITMAP
0F0000
1E0000
2D0000
7C0000
240000
0B5BE0
0BBFFC
0FD07D
0F402D
1F002D
1E002D
2E003C
2D003C
3D0078
3C0078
7C00B4
7800B4
B800F0
ENDCHAR
STARTCHAR Eng
ENCODING 330
SWIDTH 676 0
DWIDTH 16 0
BBX 16 22 0 -5
BITMAP
02F0001F
02F4001F
03F8002E
03FD002E
07EE003D
078F003D
0B8B807C
0B47C07C
0F42D0B8
0F01F0B8
1F00F4F4
1E0078F0
2E003EF0
2D002FE0
3D000FE0
3C000BD0
7C0007D0
000003C0
000007C0
00000B80
0001FF00
0001F800
ENDCHAR
STARTCHAR eng
ENCODING 331
SWIDTH 554 0
DWIDTH 13 0
BBX 12 18 0 -5
BITMAP
075BE0
0BBFFC
0BD03D
0F402E
0F002E
1F002D
1E002D
2E003D
2D003C
3C007C
3C0078
7800B8
7800B4
0000F4
0001F0
0002E0
007FC0
007E40
ENDCHAR
STARTCHAR Omacron
ENCODING 332
SWIDTH 671 0
DWIDTH 16 0
BBX 14 21 1 0
BITMAP
001AAA80
002FFFC0
00000000
00000000
001BF900
00BFFF40
02F40BC0
0B8002E0
1F4001F0
2E0000F0
3D0000F0
7C0000F0
7C0001F0
780001E0
B80002E0
780003D0
7C000B80
3D001F40
2F407D00
0BFFF400
01BF8000
ENDCHAR
STARTCHAR omacron
ENCODING 333
SWIDTH 558 0
DWIDTH 13 0
BBX 12 17 1 0
BITMAP
01AAA8
03FFF8
000000
000000
01BF40
0BFBE0
1F40F4
3D007C
B8003C
B4003D
F0003C
F0003C
F00078
B400F4
7D07E0
2FFF80
06F900
ENDCHAR
STARTCHAR Obreve
ENCODING 334
SWIDTH 671 0
DWIDTH 16 0
BBX 14 21 1 0
BITMAP
000E0380
000B9F40
0002F900
00000000
001BF900
00BFFF40
02F40BC0
0B8002E0
1F4001F0
2E0000F0
3D0000F0
7C0000F0
7C0001F0
780001E0
B80002E0
780003D0
7C000B80
3D001F40
2F407D00
0BFFF400
01BF8000
ENDCHAR
STARTCHAR obreve
ENCODING 335
SWIDTH 558 0
DWIDTH 13 0
BBX 12 17 1 0
BITMAP
00E074
00B5F0
002F90
000000
01BF40
0BFBE0
1F40F4
3D007C
B8003C
B4003D
F0003C
F0003C
F00078
B400F4
7D07E0
2FFF80
06F900
ENDCHAR
STARTCHAR Ohungarumlaut
ENCODING 336
SWIDTH 671 0
DWIDTH 16 0
BBX 15 22 1 0
BITMAP
0000B8F8
0001E3E0
0007DB80
000B5A00
00000000
001BF900
00BFFF40
02F40BC0
0B8002E0
1F4001F0
2E0000F0
3D0000F0
7C0000F0
7C0001F0
780001E0
B80002E0
780003D0
7C000B80
3D001F40
2F407D00
0BFFF400
01BF8000
ENDCHAR
STARTCHAR ohungarumlaut
ENCODING 337
SWIDTH 558 0
DWIDTH 13 0
BBX 13 18 1 0
BITMAP
000F5F40
002E7D00
0079F400
00B2E000
00000000
01BF4000
0BFBE000
1F40F400
3D007C00
B8003C00
B4003D00
F0003C00
F0003C00
F0007800
B400F400
7D07E000
2FFF8000
06F90000
ENDCHAR
STARTCHAR OE
ENCODING 338
SWIDTH 929 0
DWIDTH 22 0
BBX 21 17 1 0
BITMAP
002BFFFFFFC0
01FEBFFFFF80
07D00B800000
0F400B400000
2E000F000000
3D000F000000
3C001E000000
78002FFFF800
78002FFFF800
B4003D000000
B4003C000000
B4007C000000
B40078000000
7800B8000000
3E00F4000000
1FEBFFFFF800
02FFFFFFF400
ENDCHAR
STARTCHAR oe
ENCODING 339
SWIDTH 885 0
DWIDTH 21 0
BBX 20 13 1 0
BITMAP
01BF806F90
07FFF1FFF8
1F40FBD07C
3D007F402D
78003E002D
B4003FFFFD
F4003EAAA9
F0007C0000
F400BC0000
B401FD0000
7C07FF0060
2FBF8BEBF0
07F902FE40
ENDCHAR
STARTCHAR Racute
ENCODING 340
SWIDTH 602 0
DWIDTH 14 0
BBX 14 22 0 0
BITMAP
00001F40
00007D00
0000B400
00000000
00000000
01FFFA00
02FFFFC0
02D007E0
03D001F0
03C001F0
07C001F0
078003E0
0B801FC0
0FFFFE00
0FEAF400
1F00B800
1E007C00
2E003D00
2D002E00
3D001F00
3C000F40
7C000B80
ENDCHAR
STARTCHAR racute
ENCODING 341
SWIDTH 333 0
DWIDTH 8 0
BBX 10 18 0 0
BITMAP
0007E0
001F40
002D00
000000
000000
0B9F40
0BBF40
0FE400
0F4000
1F0000
1E0000
2E0000
2D0000
3D0000
3C0000
7C0000
780000
B80000
ENDCHAR
STARTCHAR uni0156
ENCODING 342
SWIDTH 602 0
DWIDTH 14 0
BBX 14 23 0 -6
BITMAP
01FFFA00
02FFFFC0
02D007E0
03D001F0
03C001F0
07C001F0
078003E0
0B801FC0
0FFFFE00
0FEAF400
1F00B800
1E007C00
2E003D00
2D002E00
3D001F00
3C000F40
7C000B80
00000000
00B40000
00B40000
00F00000
02D00000
01800000
ENDCHAR
STARTCHAR uni0157
ENCODING 343
SWIDTH 333 0
DWIDTH 8 0
BBX 10 19 -1 -6
BITMAP
02E7D0
02EFD0
03F900
03D000
07C000
078000
0B8000
0B4000
0F4000
0F0000
1F0000
1E0000
2E0000
000000
2D0000
3C0000
780000
B40000
A00000
ENDCHAR
STARTCHAR Rcaron
ENCODING 344
SWIDTH 602 0
DWIDTH 14 0
BBX 14 22 0 0
BITMAP
000B0780
0003AD00
0001F400
00000000
00000000
01FFFA00
02FFFFC0
02D007E0
03D001F0
03C001F0
07C001F0
078003E0
0B801FC0
0FFFFE00
0FAAF400
1F00B800
1E007C00
2E003D00
2D002E00
3D001F00
3C000F40
7C000B80
ENDCHAR
STARTCHAR rcaron
ENCODING 345
SWIDTH 333 0
DWIDTH 8 0
BBX 10 18 0 0
BITMAP
02C1E0
00AB40
003D00
000000
000000
0B9F40
0BBF40
0FE400
0F4000
1F0000
1E0000
2E0000
2D0000
3D0000
3C0000
7C0000
780000
B80000
ENDCHAR
STARTCHAR Sacute
ENCODING 346
SWIDTH 580 0
DWIDTH 14 0
BBX 14 22 0 0
BITMAP
00000F80
00007D00
0000B400
00000000
00000000
001BF900
00BFFF40
02F407D0
07C002E0
0B8001E0
07800040
07E00000
01FE4000
006FF400
0006FD00
00002F00
10000F40
78000B40
7C000F40
2E407E00
0BFFF800
01BF9000
ENDCHAR
STARTCHAR sacute
ENCODING 347
SWIDTH 504 0
DWIDTH 12 0
BBX 12 18 0 0
BITMAP
00007D
0002F0
000680
000000
000000
00BF90
07FFF4
0B80BC
0F003C
0F4000
0BE400
01FF80
0017E0
0000F4
7800F4
3D02F0
1FEFD0
06FE00
ENDCHAR
STARTCHAR Scircumflex
ENCODING 348
SWIDTH 580 0
DWIDTH 14 0
BBX 14 22 0 0
BITMAP
0001B800
000BEE00
001E0B80
00000000
00000000
001BF900
00BFFF40
02F407D0
07C002E0
0B8001E0
07800040
07E00000
01FE4000
006FF400
0006FD00
00002F00
10000F40
78000B40
7C000F40
2E407E00
0BFFF800
01BF9000
ENDCHAR
STARTCHAR scircumflex
ENCODING 349
SWIDTH 504 0
DWIDTH 12 0
BBX 11 18 0 0
BITMAP
0007D0
006EB4
00B83C
000000
000000
00BF90
07FFF4
0B80BC
0F003C
0F4000
0BE400
01FF80
0017E0
0000F4
7800F4
3D02F0
1FEFD0
06FE00
ENDCHAR
STARTCHAR Scedilla
ENCODING 350
SWIDTH 580 0
DWIDTH 14 0
BBX 14 22 0 -5
BITMAP
001BF900
00BFFF40
02F407D0
07C002E0
0B8001E0
07800040
07E00000
01FE4000
006FF400
0006FD00
00002F00
10000F40
78000B40
7C000F40
2E407E00
0BFFF800
01BF9000
00380000
002E0000
000B0000
006E0000
00E40000
ENDCHAR
STARTCHAR scedilla
ENCODING 351
SWIDTH 504 0
DWIDTH 12 0
BBX 11 18 0 -5
BITMAP
00BF90
07FFF4
0B80BC
0F003C
0F4000
0BE400
01FF80
0017E0
0000F4
7800F4
3D02F0
1FEFD0
06FE00
00B000
00BC00
001D00
007C00
02E000
ENDCHAR
STARTCHAR Scaron
ENCODING 352
SWIDTH 580 0
DWIDTH 14 0
BBX 14 22 0 0
BITMAP
000B4780
0002ED00
0000F400
00000000
00000000
001BF900
00BFFF40
02F407D0
07C002E0
0B8001E0
07800040
07E00000
01FE4000
006FF400
0006FD00
00002F00
10000F40
78000B40
7C000F40
2E407E00
0BFFF800
01BF9000
ENDCHAR
STARTCHAR scaron
ENCODING 353
SWIDTH 504 0
DWIDTH 12 0
BBX 12 18 0 0
BITMAP
00382D
001EB4
000780
000000
000000
00BF90
07FFF4
0B80BC
0F003C
0F4000
0BE400
01FF80
0017E0
0000F4
7800F4
3D02F0
1FEFD0
06FE00
ENDCHAR
STARTCHAR uni0162
ENCODING 354
SWIDTH 583 0
DWIDTH 14 0
BBX 13 22 2 -5
BITMAP
BFFFFFC0
BFFFFF80
003D0000
003D0000
007C0000
007C0000
00B80000
00B40000
00F40000
00F00000
01F00000
01E00000
02E00000
02D00000
03D00000
03C00000
07C00000
07800000
06D00000
00E00000
06D00000
0E400000
ENDCHAR
STARTCHAR uni0163
ENCODING 355
SWIDTH 321 0
DWIDTH 8 0
BBX 7 21 1 -5
BITMAP
07C0
0780
0B80
FFF8
AFA4
0F00
1F00
1E00
2E00
2D00
3D00
3C00
7C00
7C00
3F80
1F80
0E00
0B80
02C0
1B80
3900
ENDCHAR
STARTCHAR Tcaron
ENCODING 356
SWIDTH 583 0
DWIDTH 14 0
BBX 13 22 2 0
BITMAP
00B07800
003AD000
000F4000
00000000
00000000
BFFFFFC0
BFFFFF80
003D0000
003D0000
007C0000
007C0000
00B80000
00B40000
00F40000
00F00000
01F00000
01E00000
02E00000
02D00000
03D00000
03C00000
07C00000
ENDCHAR
STARTCHAR tcaron
ENCODING 357
SWIDTH 341 0
DWIDTH 8 0
BBX 10 20 1 0
BITMAP
0001E0
0002D0
0003C0
000B80
07C600
078000
0B8000
FFF800
AFA400
0F0000
1F0000
1E0000
2E0000
2D0000
3D0000
3C0000
7C0000
7C0000
3F8000
1F8000
ENDCHAR
STARTCHAR Tbar
ENCODING 358
SWIDTH 583 0
DWIDTH 14 0
BBX 13 17 2 0
BITMAP
BFFFFFC0
BFFFFF80
002D0000
003D0000
003C0000
007C0000
0FFFD000
0AFE8000
00B40000
00F40000
01F00000
01E00000
02E00000
02D00000
03D00000
03C00000
07C00000
ENDCHAR
STARTCHAR tbar
ENCODING 359
SWIDTH 321 0
DWIDTH 8 0
BBX 8 16 0 0
BITMAP
01F0
01E0
02E0
3FFE
2BE9
03C0
07C0
FFFD
AFE8
0B40
0F40
0F00
1F00
1F00
0FE0
07E0
ENDCHAR
STARTCHAR Utilde
ENCODING 360
SWIDTH 633 0
DWIDTH 15 0
BBX 15 22 1 0
BITMAP
000A4180
003FEB80
00746E00
00000000
00000000
0B4000F4
0F4000F0
0F0001F0
1F0001E0
1E0002E0
2E0002D0
2D0003D0
3D0003C0
3C0007C0
7C000780
78000B80
B8000F40
B8001F00
7C002E00
3E00BC00
1FFFF400
06FE4000
ENDCHAR
STARTCHAR utilde
ENCODING 361
SWIDTH 539 0
DWIDTH 13 0
BBX 12 18 1 0
BITMAP
006418
02FFBC
0386E0
000000
000000
1E003D
2E003C
2D007C
3D0078
3C00B8
7C00B4
7800F4
B800F0
B401F0
B402E0
B80BE0
7FFFD0
1BE6D0
ENDCHAR
STARTCHAR Umacron
ENCODING 362
SWIDTH 633 0
DWIDTH 15 0
BBX 15 21 1 0
BITMAP
002AAA40
003FFF80
00000000
00000000
0B4000F4
0F4000F0
0F0001F0
1F0001E0
1E0002E0
2E0002D0
2D0003D0
3D0003C0
3C0007C0
7C000780
78000B80
B8000F40
B8001F00
7C002E00
3E00BC00
1FFFF400
06FE4000
ENDCHAR
STARTCHAR umacron
ENCODING 363
SWIDTH 539 0
DWIDTH 13 0
BBX 12 17 1 0
BITMAP
01AAA8
02FFFC
000000
000000
1E003D
2E003C
2D007C
3D0078
3C00B8
7C00B4
7800F4
B800F0
B401F0
B402E0
B80BE0
7FFFD0
1BE6D0
ENDCHAR
STARTCHAR Ubreve
ENCODING 364
SWIDTH 633 0
DWIDTH 15 0
BBX 15 21 1 0
BITMAP
001D0B40
000F6E00
0006F800
00000000
0B4000F4
0F4000F0
0F0001F0
1F0001E0
1E0002E0
2E0002D0
2D0003D0
3D0003C0
3C0007C0
7C000780
78000B80
B8000F40
B8001F00
7C002E00
3E00BC00
1FFFF400
06FE4000
ENDCHAR
STARTCHAR ubreve
ENCODING 365
SWIDTH 539 0
DWIDTH 13 0
BBX 12 17 1 0
BITMAP
00E074
00B9F0
002F90
000000
1E003D
2E003C
2D007C
3D0078
3C00B8
7C00B4
7800F4
B800F0
B401F0
B402E0
B80BE0
7FFFD0
1BE6D0
ENDCHAR
STARTCHAR Uring
ENCODING 366
SWIDTH 633 0
DWIDTH 15 0
BBX 15 23 1 0
BITMAP
0001F400
00074C00
00060D00
00071C00
0002F400
00000000
0B4000F4
0F4000F0
0F0001F0
1F0001E0
1E0002E0
2E0002D0
2D0003D0
3D0003C0
3C0007C0
7C000780
78000B80
B8000F40
B8001F00
7C002E00
3E00BC00
1FFFF400
06FE4000
ENDCHAR
STARTCHAR uring
ENCODING 367
SWIDTH 539 0
DWIDTH 13 0
BBX 12 19 1 0
BITMAP
001F80
003490
0070A0
0035D0
001F40
000000
1E003D
2E003C
2D007C
3D0078
3C00B8
7C00B4
7800F4
B800F0
B401F0
B402E0
B80BE0
7FFFD0
1BE6D0
ENDCHAR
STARTCHAR Uhungarumlaut
ENCODING 368
SWIDTH 633 0
DWIDTH 15 0
BBX 15 22 1 0
BITMAP
0001F5F0
0003D7D0
000B9F40
000A2D00
00000000
0B4000F4
0F4000F0
0F0001F0
1F0001E0
1E0002E0
2E0002D0
2D0003D0
3D0003C0
3C0007C0
7C000780
78000B80
B8000F40
B8001F00
7C002E00
3E00BC00
1FFFF400
06FE4000
ENDCHAR
STARTCHAR uhungarumlaut
ENCODING 369
SWIDTH 539 0
DWIDTH 13 0
BBX 13 18 1 0
BITMAP
000F5F40
002E7D00
0079F400
00B2E000
00000000
1E003D00
2E003C00
2D007C00
3D007800
3C00B800
7C00B400
7800F400
B800F000
B401F000
B402E000
B80BE000
7FFFD000
1BE6D000
ENDCHAR
STARTCHAR Uogonek
ENCODING 370
SWIDTH 633 0
DWIDTH 15 0
BBX 15 22 1 -5
BITMAP
0B8000F4
0B4000F4
0F4001F0
0F0001F0
1F0002E0
1E0002E0
2E0003D0
3D0003C0
3D0007C0
7C000780
78000B80
78000B40
B8000F40
7C002E00
3E00BD00
1FFFF400
02FF4000
002D0000
00780000
00740000
007E4000
002E0000
ENDCHAR
STARTCHAR uogonek
ENCODING 371
SWIDTH 539 0
DWIDTH 13 0
BBX 12 18 1 -5
BITMAP
1E003D
2E003C
2D007C
3D0078
3C00B8
7C00B4
7800F4
B800F0
B401F0
B402E0
B80BE0
7FFFD0
1BE6D0
000B40
002D00
003800
003E40
001F40
ENDCHAR
STARTCHAR Wcircumflex
ENCODING 372
SWIDTH 865 0
DWIDTH 21 0
BBX 20 22 2 0
BITMAP
00002E0000
0001FBD000
0003D1E000
0000000000
0000000000
B4003C002E
B800BC003D
B800FD0078
7801FD00B4
7803ED01F0
78079E02E0
7C0B4E03D0
3C0E0E0780
3C2D0F0B40
3C3C0B0F00
3C740B1E00
2DF00B7D00
2EE0077C00
2FD007F400
2F8007F000
1F4003E000
1F0003D000
ENDCHAR
STARTCHAR wcircumflex
ENCODING 373
SWIDTH 733 0
DWIDTH 18 0
BBX 17 18 1 0
BITMAP
0001B80000
000BEE0000
001E0B4000
0000000000
0000000000
7801E00780
7803E00B40
7807E01F00
380BF02D00
3C1EB03C00
3C2CB47800
2C7874F000
2CB075E000
2DE03AD000
1FD03B8000
1F803F4000
1F402F0000
1E002D0000
ENDCHAR
STARTCHAR Ycircumflex
ENCODING 374
SWIDTH 587 0
DWIDTH 14 0
BBX 14 22 2 0
BITMAP
001B8000
00BEE000
01E0B400
00000000
00000000
F80007D0
7C000F80
3D002E00
2E007C00
1F00F400
0F02E000
0B47C000
079F4000
03FE0000
02F80000
01F40000
01E00000
02E00000
02D00000
03D00000
03C00000
07C00000
ENDCHAR
STARTCHAR ycircumflex
ENCODING 375
SWIDTH 463 0
DWIDTH 11 0
BBX 13 23 -1 -5
BITMAP
0002E000
001FBC00
007D2E00
00000000
00000000
0B800B80
07801F00
07C02E00
03C07C00
03C0B400
02D1F000
02D2D000
01E3C000
01EB4000
00FF0000
00FD0000
00BC0000
00B40000
00F00000
02D00000
07C00000
FF400000
F9000000
ENDCHAR
STARTCHAR Ydieresis
ENCODING 376
SWIDTH 587 0
DWIDTH 14 0
BBX 14 22 2 0
BITMAP
00501400
01F0BC00
01E07800
00000000
00000000
F80007D0
7C000F80
3D002E00
2E007C00
1F00F400
0F02E000
0B47C000
079F4000
03FE0000
02F80000
01F40000
01E00000
02E00000
02D00000
03D00000
03C00000
07C00000
ENDCHAR
STARTCHAR Zacute
ENCODING 377
SWIDTH 585 0
DWIDTH 14 0
BBX 15 22 0 0
BITMAP
00001F80
00007D00
0000B400
00000000
00000000
07FFFFF4
07FFFFF0
000007D0
00000F80
00002E00
0000BC00
0002F000
0007D000
001F4000
003E0000
00F80000
02E00000
0BC00000
1F400000
7D000000
FFFFFF00
FFFFFF00
ENDCHAR
STARTCHAR zacute
ENCODING 378
SWIDTH 485 0
DWIDTH 12 0
BBX 12 18 0 0
BITMAP
0000B8
0003E0
000B40
000000
000000
0FFFFD
0AAAFC
0001F4
0007E0
000F80
002E00
00B800
02F000
07D000
1F4000
7D0000
FEAAA0
FFFFE0
ENDCHAR
STARTCHAR Zdotaccent
ENCODING 379
SWIDTH 585 0
DWIDTH 14 0
BBX 15 22 0 0
BITMAP
00005000
0000F400
0000B400
00000000
00000000
07FFFFF4
07FFFFF0
000007D0
00000F80
00002E00
0000BC00
0002F000
0007D000
001F4000
003E0000
00F80000
02E00000
0BC00000
1F400000
7D000000
FFFFFF00
FFFFFF00
ENDCHAR
STARTCHAR zdotaccent
ENCODING 380
SWIDTH 485 0
DWIDTH 12 0
BBX 12 18 0 0
BITMAP
000100
000B80
000B40
000000
000000
0FFFFD
0AAAFC
0001F4
0007E0
000F80
002E00
00B800
02F000
07D000
1F4000
7D0000
FEAAA0
FFFFE0
ENDCHAR
STARTCHAR Zcaron
ENCODING 381
SWIDTH 585 0
DWIDTH 14 0
BBX 15 22 0 0
BITMAP
000B0780
0002AD00
0000F400
00000000
00000000
07FFFFF4
07FFFFF0
000007D0
00000F80
00002E00
0000BC00
0002F000
0007D000
001F4000
003E0000
00F80000
02E00000
0BC00000
1F400000
7D000000
FFFFFF00
FFFFFF00
ENDCHAR
STARTCHAR zcaron
ENCODING 382
SWIDTH 485 0
DWIDTH 12 0
BBX 12 18 0 0
BITMAP
007478
002DE0
000B40
000000
000000
0FFFFD
0AAAFC
0001F4
0007E0
000F80
002E00
00B800
02F000
07D000
1F4000
7D0000
FEAAA0
FFFFE0
ENDCHAR
STARTCHAR longs
ENCODING 383
SWIDTH 245 0
DWIDTH 6 0
BBX 9 18 0 0
BITMAP
002FC0
00FE80
02F000
02D000
03C000
07C000
078000
0B8000
0B4000
0F4000
0F0000
1F0000
1E0000
2D0000
2D0000
3C0000
3C0000
780000
ENDCHAR
STARTCHAR uni018F
ENCODING 399
SWIDTH 675 0
DWIDTH 16 0
BBX 15 17 1 0
BITMAP
006FE800
02FFFF40
01901BC0
000002E0
000001F0
000000F4
000000F4
000000F4
BFFFFFF0
BEAAAAF0
B40002E0
B40003D0
B4000B80
78001F40
3E007D00
0FFFF400
01BE4000
ENDCHAR
STARTCHAR florin
ENCODING 402
SWIDTH 334 0
DWIDTH 8 0
BBX 12 23 -2 -5
BITMAP
0001BD
0007FD
000F40
001E00
002E00
02FFE0
02BE90
003C00
007C00
007800
007800
00B800
00B400
00F400
00F000
01F000
01E000
02E000
02D000
03D000
07C000
AF4000
F90000
ENDCHAR
STARTCHAR Ohorn
ENCODING 416
SWIDTH 670 0
DWIDTH 16 0
BBX 17 19 1 0
BITMAP
0000000040
00000002C0
001BF803C0
00BFFF5F40
03E40BFD00
0B8003E000
1F0001E000
3D0001F000
3C0001F000
780001F000
B80001E000
B40002E000
B40003D000
B80007C000
B8000B8000
7C001F0000
2F40BD0000
0FFFF40000
01BE400000
ENDCHAR
STARTCHAR ohorn
ENCODING 417
SWIDTH 559 0
DWIDTH 13 0
BBX 14 14 1 0
BITMAP
000000A0
01BF40E0
0BFFE2D0
1F40BF40
3D007C00
B8003D00
B4003D00
F0003D00
F0007C00
F000B800
B400F400
7C07E000
2FBF8000
06F90000
ENDCHAR
STARTCHAR Uhorn
ENCODING 431
SWIDTH 679 0
DWIDTH 16 0
BBX 19 19 1 0
BITMAP
0000000024
0000000078
0B8000B4B4
0B4000F6E0
0F4000FF80
0F0001F500
1F0002E000
1E0002D000
2E0003D000
2D0003C000
3D0007C000
3C00078000
78000B8000
78000B4000
B8000F0000
7C002E0000
3E00BC0000
1FFFF40000
02FE400000
ENDCHAR
STARTCHAR uhorn
ENCODING 432
SWIDTH 604 0
DWIDTH 15 0
BBX 15 14 1 0
BITMAP
00000018
1E003D38
2E003DB4
2D007FD0
3D007D00
3C00B800
7C00B800
7800F400
B800F000
B401F000
B402E000
B80BE000
7FFFD000
1BE6D000
ENDCHAR
STARTCHAR uni01F0
ENCODING 496
SWIDTH 249 0
DWIDTH 6 0
BBX 11 23 -3 -5
BITMAP
007478
002DE0
000B80
000000
000000
000F00
001E00
001E00
002D00
002D00
003C00
003C00
007800
00B800
00B400
00F400
00F000
01F000
01E000
02E000
03D000
AF8000
BE0000
ENDCHAR
STARTCHAR Aringacute
ENCODING 506
SWIDTH 637 0
DWIDTH 15 0
BBX 15 23 -1 0
BITMAP
000000F4
00000380
00000000
00002E00
00007240
00006240
00003F00
00007E00
0000FE00
0002EF00
0003CB00
000B8B40
001F0780
002E0780
007C03C0
00F403C0
01F002D0
03FFFFE0
07FFFFE0
0F4001F0
2E0000F0
3D0000B4
B80000B8
ENDCHAR
STARTCHAR aringacute
ENCODING 507
SWIDTH 532 0
DWIDTH 13 0
BBX 12 20 0 0
BITMAP
00002D
0000A4
000000
0007D0
000D60
000C60
0007D0
006F90
02FAF8
0B807C
0A003D
00003D
01BFFC
0BEABC
2E0078
3C00B8
7C00F4
7D07F4
2FFFF4
07F8F4
ENDCHAR
STARTCHAR AEacute
ENCODING 508
SWIDTH 911 0
DWIDTH 22 0
BBX 24 22 -1 0
BITMAP
00000007D000
0000002F4000
000000680000
000000000000
000000000000
000000BFFFFD
000002FEAAA8
000007FC0000
00001F7C0000
00003E7C0000
0000B8780000
0001F0780000
0007D0BFFFC0
000F80BAAA80
002F00F40000
007D00F00000
01FFFFF00000
03FFFFE00000
0BC001E00000
2F4002E00000
7D0002FAAA90
F80002FFFFD0
ENDCHAR
STARTCHAR aeacute
ENCODING 509
SWIDTH 823 0
DWIDTH 20 0
BBX 19 18 0 0
BITMAP
000000F800
000007E000
00000B4000
0000000000
0000000000
00BF906F80
07FFF6FBF0
0F80BF40B8
0A007E003C
00007C003C
06FFFFFFFC
1FEAFEAAA8
7E00B80000
B800F80000
B801F80000
B807FE0190
3FBF5FEFE0
1BF906FE40
ENDCHAR
STARTCHAR Oslashacute
ENCODING 510
SWIDTH 671 0
DWIDTH 16 0
BBX 17 24 0 -1
BITMAP
000002E000
00000B8000
00002D0000
0000000000
0000000000
0000000140
0006FE4B00
002FFFED00
00BD01F800
02E000F800
07C003FC00
0B800B3C00
0F402D3C00
1F00743C00
1E01E07C00
2E03807800
2E0B00B400
2E2D00F000
1E7402E000
1FE007C000
0BD02F4000
0BFFFD0000
2D6FE00000
6400000000
ENDCHAR
STARTCHAR oslashacute
ENCODING 511
SWIDTH 554 0
DWIDTH 13 0
BBX 12 20 1 -2
BITMAP
0002F0
000B80
001E00
000004
00002C
01BFB4
0BFBF0
1F42F8
3D07BC
B80A3C
F41C3D
F0743C
F0A07C
F1C0B8
F741F0
BE07E0
3FBF80
3BF900
A00000
400000
ENDCHAR
STARTCHAR uni0218
ENCODING 536
SWIDTH 580 0
DWIDTH 14 0
BBX 14 23 0 -6
BITMAP
001BF900
00BFFF40
02F407D0
07C002E0
0B8001E0
07800040
07E00000
01FE4000
006FF400
0006FD00
00002F00
10000F40
78000B40
7C000F40
2E407E00
0BFFF800
01BF9000
00000000
00780000
00B40000
00F00000
02E00000
01800000
ENDCHAR
STARTCHAR uni0219
ENCODING 537
SWIDTH 504 0
DWIDTH 12 0
BBX 11 19 0 -6
BITMAP
00BF90
07FFF4
0B80BC
0F003C
0F4000
0BE400
01FF80
0017E0
0000F4
7800F4
3D02F0
1FEFD0
06FE00
000000
00F000
01E000
02D000
03C000
024000
ENDCHAR
STARTCHAR uni021A
ENCODING 538
SWIDTH 583 0
DWIDTH 14 0
BBX 13 23 2 -6
BITMAP
BFFFFFC0
BFFFFF80
003D0000
003D0000
007C0000
007C0000
00B80000
00B40000
00F40000
00F00000
01F00000
01E00000
02E00000
02D00000
03D00000
03C00000
07C00000
00000000
0B400000
0B400000
0F000000
2D000000
18000000
ENDCHAR
STARTCHAR uni021B
ENCODING 539
SWIDTH 321 0
DWIDTH 8 0
BBX 7 22 1 -6
BITMAP
07C0
0780
0B80
FFF8
AFA4
0F00
1F00
1E00
2E00
2D00
3D00
3C00
7C00
7C00
3F80
1F80
0000
1E00
2D00
3C00
7800
6000
ENDCHAR
STARTCHAR uni0237
ENCODING 567
SWIDTH 249 0
DWIDTH 6 0
BBX 8 18 -3 -5
BITMAP
000F
001E
001E
002D
002D
003C
003C
0078
00B8
00B4
00F4
00F0
01F0
01E0
02E0
03D0
AF80
BE00
ENDCHAR
STARTCHAR uni0259
ENCODING 601
SWIDTH 516 0
DWIDTH 12 0
BBX 11 13 1 0
BITMAP
06FE00
1FEFD0
1902E0
0000F4
0000B4
0000B4
BFFFF4
FAAAF4
F001F0
F002D0
B80B80
3FBE00
0BF400
ENDCHAR
STARTCHAR uni02BC
ENCODING 700
SWIDTH 198 0
DWIDTH 5 0
BBX 4 6 2 12
BITMAP
2E
2D
3C
78
F4
90
ENDCHAR
STARTCHAR circumflex
ENCODING 710
SWIDTH 461 0
DWIDTH 11 0
BBX 8 3 3 15
BITMAP
07D0
2EB8
B83D
ENDCHAR
STARTCHAR caron
ENCODING 711
SWIDTH 435 0
DWIDTH 10 0
BBX 8 3 3 15
BITMAP
782D
1DE0
0B80
ENDCHAR
STARTCHAR uni02C9
ENCODING 713
SWIDTH 449 0
DWIDTH 11 0
BBX 8 2 3 15
BITMAP
FFFE
AAA9
ENDCHAR
STARTCHAR breve
ENCODING 728
SWIDTH 418 0
DWIDTH 10 0
BBX 7 3 3 14
BITMAP
B038
79B4
2F90
ENDCHAR
STARTCHAR dotaccent
ENCODING 729
SWIDTH 240 0
DWIDTH 6 0
BBX 3 3 3 15
BITMAP
10
B8
B4
ENDCHAR
STARTCHAR ring
ENCODING 730
SWIDTH 329 0
DWIDTH 8 0
BBX 5 5 3 14
BITMAP
2E00
A280
D1C0
9280
2E00
ENDCHAR
STARTCHAR ogonek
ENCODING 731
SWIDTH 267 0
DWIDTH 6 0
BBX 4 6 -1 -5
BITMAP
06
2D
B4
F0
BA
7E
ENDCHAR
STARTCHAR tilde
ENCODING 732
SWIDTH 462 0
DWIDTH 11 0
BBX 9 3 2 15
BITMAP
0A4180
2FFB80
746E00
ENDCHAR
STARTCHAR hungarumlaut
ENCODING 733
SWIDTH 366 0
DWIDTH 9 0
BBX 9 4 2 14
BITMAP
0B8B80
1F2E00
3DBC00
69B000
ENDCHAR
STARTCHAR uni02F3
ENCODING 755
SWIDTH 290 0
DWIDTH 7 0
BBX 5 4 -1 -5
BITMAP
1E00
3180
6280
2E00
ENDCHAR
STARTCHAR gravecomb
ENCODING 768
SWIDTH 0 0
DWIDTH 0 0
BBX 4 3 -8 15
BITMAP
7C
2E
0A
ENDCHAR
STARTCHAR acutecomb
ENCODING 769
SWIDTH 0 0
DWIDTH 0 0
BBX 5 3 -6 15
BITMAP
0F80
7D00
B400
ENDCHAR
STARTCHAR tildecomb
ENCODING 771
SWIDTH 0 0
DWIDTH 0 0
BBX 9 3 -9 15
BITMAP
1A0240
7FEF40
B0BD00
ENDCHAR
STARTCHAR hookabovecomb
ENCODING 777
SWIDTH 0 0
DWIDTH 0 0
BBX 4 5 -6 15
BITMAP
B4
5D
1E
F8
E0
ENDCHAR
STARTCHAR uni030F
ENCODING 783
SWIDTH 0 0
DWIDTH 0 0
BBX 8 3 -9 15
BITMAP
F9F4
3E7C
0E69
ENDCHAR
STARTCHAR dotbelowcomb
ENCODING 803
SWIDTH 0 0
DWIDTH 0 0
BBX 3 3 -10 -5
BITMAP
74
B8
50
ENDCHAR
STARTCHAR tonos
ENCODING 900
SWIDTH 253 0
DWIDTH 6 0
BBX 4 4 3 15
BITMAP
1E
3C
78
70
ENDCHAR
STARTCHAR dieresistonos
ENCODING 901
SWIDTH 495 0
DWIDTH 12 0
BBX 9 5 3 15
BITMAP
00B800
00F000
519100
F40B80
B00740
ENDCHAR
STARTCHAR Alphatonos
ENCODING 902
SWIDTH 637 0
DWIDTH 15 0
BBX 15 19 -1 0
BITMAP
001E0000
002C0000
00783D00
00707E00
0000FE00
0002EF00
0003CB00
000B8B40
001F0780
002E0780
007C03C0
00F403C0
01F002D0
03FFFFE0
07FFFFE0
0F4001F0
2E0000F0
3D0000B4
B80000B8
ENDCHAR
STARTCHAR anoteleia
ENCODING 903
SWIDTH 258 0
DWIDTH 6 0
BBX 3 3 2 7
BITMAP
B4
F4
60
ENDCHAR
STARTCHAR Epsilontonos
ENCODING 904
SWIDTH 556 0
DWIDTH 13 0
BBX 15 19 -1 0
BITMAP
3C000000
74000000
B07FFFFC
90BFFFF8
00B40000
00F40000
00F00000
01F00000
01E00000
02FFFF80
02FFFF40
03C00000
07C00000
07800000
0B800000
0B400000
0F400000
0FFFFF40
1FFFFF40
ENDCHAR
STARTCHAR Etatonos
ENCODING 905
SWIDTH 696 0
DWIDTH 17 0
BBX 18 19 -1 0
BITMAP
3C00000000
7800000000
B0780003D0
A0B80003C0
00B40007C0
00F4000780
00F0000B80
01F0000B40
01E0000F40
02FFFFFF00
02FFFFFF00
03C0002E00
07C0002E00
0780003D00
0B80003D00
0B40007C00
0F40007C00
0F0000B800
1F0000B800
ENDCHAR
STARTCHAR Iotatonos
ENCODING 906
SWIDTH 268 0
DWIDTH 6 0
BBX 7 19 -1 0
BITMAP
2D00
3800
B47C
A078
00B8
00B4
00F4
00F0
01F0
01E0
02E0
03D0
03D0
07C0
0780
0B80
0B40
0F40
0F00
ENDCHAR
STARTCHAR Omicrontonos
ENCODING 908
SWIDTH 681 0
DWIDTH 16 0
BBX 15 19 1 0
BITMAP
3C000000
78000000
B01BF900
A0BFFF80
02F407D0
07D002F0
0F4000F0
1F0000F4
2E0000F4
3D0000F4
3C0000F4
7C0001F0
7C0001E0
7C0002D0
3C0007C0
2E000F40
1F407E00
0BFFF800
01BF9000
ENDCHAR
STARTCHAR Upsilontonos
ENCODING 910
SWIDTH 636 0
DWIDTH 15 0
BBX 18 19 -1 0
BITMAP
7800000000
B400000000
E0B80007D0
907C000F80
003D002F00
002E007D00
001F00F800
000F42E000
000B87D000
0003CF4000
0002FE0000
0001FC0000
0000F40000
0001F00000
0001E00000
0002E00000
0002D00000
0003D00000
0003C00000
ENDCHAR
STARTCHAR Omegatonos
ENCODING 911
SWIDTH 659 0
DWIDTH 16 0
BBX 15 19 0 0
BITMAP
0B400000
1E000000
2D06FE00
282FFFC0
00B902E0
02E000F4
03C000B8
0B8000B8
0B4000B8
0F4000B8
1F0000B4
1F0000F4
1F0001F0
1F0002E0
0F0003C0
0B400B40
03D06D00
7FF5FEC0
BFF2FFC0
ENDCHAR
STARTCHAR iotadieresistonos
ENCODING 912
SWIDTH 318 0
DWIDTH 8 0
BBX 10 20 0 0
BITMAP
003C00
00B800
14B140
B803D0
7803C0
000000
000000
02D000
03C000
03C000
078000
078000
0B4000
0B4000
0F0000
0F0000
1E0000
1F0000
0FE000
07E000
ENDCHAR
STARTCHAR Alpha
ENCODING 913
SWIDTH 637 0
DWIDTH 15 0
BBX 15 17 -1 0
BITMAP
00003D00
00007E00
0000FE00
0002EF00
0003CB00
000B8B40
001F0780
002E0780
007C03C0
00F403C0
01F002D0
03FFFFE0
07FFFFE0
0F4001F0
2E0000F0
3D0000B4
B80000B8
ENDCHAR
STARTCHAR Beta
ENCODING 914
SWIDTH 608 0
DWIDTH 15 0
BBX 14 17 0 0
BITMAP
01FFF900
02FFFF80
02D007D0
03D002E0
03C002E0
07C003D0
07801F80
0BFFFD00
0FEAFE00
0F001F40
1F000B80
1E000780
2E000B80
2D000F40
3D006F00
3FEFFC00
7FFF9000
ENDCHAR
STARTCHAR Gamma
ENCODING 915
SWIDTH 544 0
DWIDTH 13 0
BBX 13 17 1 0
BITMAP
07FFFFC0
0BFFFF80
0B800000
0F400000
0F400000
1F000000
1E000000
2E000000
2D000000
3D000000
3C000000
7C000000
78000000
B8000000
B4000000
F4000000
F0000000
ENDCHAR
STARTCHAR uni0394
ENCODING 916
SWIDTH 688 0
DWIDTH 17 0
BBX 16 17 -1 0
BITMAP
00001F00
00002F40
00007F80
0000F780
0002E3C0
0007C3C0
000B42D0
001F01E0
003D01E0
00B800F0
00F400F4
02E000B4
07C00078
0F40007C
1F00003C
3FFFFFFD
BFFFFFFE
ENDCHAR
STARTCHAR Epsilon
ENCODING 917
SWIDTH 556 0
DWIDTH 13 0
BBX 14 17 0 0
BITMAP
01FFFFF0
02FFFFE0
02D00000
03D00000
03C00000
07C00000
07800000
0BFFFE00
0BFFFD00
0F000000
1F000000
1E000000
2E000000
2D000000
3D000000
3FFFFD00
7FFFFD00
ENDCHAR
STARTCHAR Zeta
ENCODING 918
SWIDTH 585 0
DWIDTH 14 0
BBX 15 17 0 0
BITMAP
07FFFFF4
07FFFFF0
000007D0
00000F80
00002E00
0000BC00
0002F000
0007D000
001F4000
003E0000
00F80000
02E00000
0BC00000
1F400000
7D000000
FFFFFF00
FFFFFF00
ENDCHAR
STARTCHAR Eta
ENCODING 919
SWIDTH 696 0
DWIDTH 17 0
BBX 17 17 0 0
BITMAP
01E0000F40
02E0000F00
02D0001F00
03D0001E00
03C0002E00
07C0002D00
0780003D00
0BFFFFFC00
0BFFFFFC00
0F0000B800
1F0000B800
1E0000F400
2E0000F400
2D0001F000
3D0001F000
3C0002E000
7C0002E000
ENDCHAR
STARTCHAR Theta
ENCODING 920
SWIDTH 664 0
DWIDTH 16 0
BBX 14 17 1 0
BITMAP
001BF800
00FFFF40
03E40BC0
0B8003D0
1F0001E0
2D0001F0
3C0001F0
78BFF5F0
B8AAA1E0
B80002E0
B40003D0
B80007C0
78000B80
7C001F00
2F40BD00
0FFFF400
02FE4000
ENDCHAR
STARTCHAR Iota
ENCODING 921
SWIDTH 268 0
DWIDTH 6 0
BBX 5 17 1 0
BITMAP
07C0
0780
0B80
0B40
0F40
0F00
1F00
1E00
2E00
3D00
3D00
7C00
7800
B800
B400
F400
F000
ENDCHAR
STARTCHAR Kappa
ENCODING 922
SWIDTH 612 0
DWIDTH 15 0
BBX 16 17 0 0
BITMAP
01E0007D
02E001F4
02D00BD0
03D02F40
03C0BD00
07C2F400
078BD000
0BAF4000
0BFF8000
0FFBC000
1F82E000
1F01F400
2E00B800
2E003D00
3D002F00
3C000F40
7C0007C0
ENDCHAR
STARTCHAR Lambda
ENCODING 923
SWIDTH 640 0
DWIDTH 15 0
BBX 15 17 -1 0
BITMAP
00003D00
0000BE00
0000FE00
0002FF00
0003DF00
000B8F40
000F4B40
002E0B80
007C0780
00B807C0
01F003C0
02E003D0
07C002E0
0F8002E0
1F0001F0
3E0001F0
7C0000F4
ENDCHAR
STARTCHAR Mu
ENCODING 924
SWIDTH 851 0
DWIDTH 20 0
BBX 20 17 0 0
BITMAP
01F800003F
02F80000BF
02FC0001FE
03FD0002FE
03ED0007ED
079E000F7D
079F001E3C
0B4F003D7C
0B4B40B878
0F4B40F0B4
1F0782E0F4
1F03C7C0F0
2E03CB41F0
2E02EE01E0
3D01FD02E0
3C01F802D0
7C00F003D0
ENDCHAR
STARTCHAR Nu
ENCODING 925
SWIDTH 696 0
DWIDTH 17 0
BBX 17 17 0 0
BITMAP
01F0000F40
02F4000F00
02FC001F00
03FD001E00
03EF002E00
07CF402D00
078B803D00
0B83D03C00
0B42E07C00
0F41F47800
1F00B8B800
1F007CB400
2E002EF400
2E001FF000
3D000FF000
3C0007E000
7C0003E000
ENDCHAR
STARTCHAR Xi
ENCODING 926
SWIDTH 558 0
DWIDTH 13 0
BBX 14 17 0 0
BITMAP
03FFFFD0
03FFFFD0
00000000
00000000
00000000
00000000
00000000
07FFFD00
07FFFC00
00000000
00000000
00000000
00000000
00000000
00000000
BFFFFC00
BFFFFC00
ENDCHAR
STARTCHAR Omicron
ENCODING 927
SWIDTH 671 0
DWIDTH 16 0
BBX 14 17 1 0
BITMAP
001BF900
00BFFF40
02F40BC0
0B8002E0
1F4001F0
2E0000F0
3D0000F0
7C0000F0
7C0001F0
780001E0
B80002E0
780003D0
7C000B80
3D001F40
2F407D00
0BFFF400
01BF8000
ENDCHAR
STARTCHAR Pi
ENCODING 928
SWIDTH 696 0
DWIDTH 17 0
BBX 16 17 1 0
BITMAP
07FFFFFD
07FFFFFC
0B80007C
0F4000B8
0F4000B8
1F0000F4
1E0000F4
2E0001F0
2D0001E0
3D0002E0
3C0002D0
7C0003D0
780003C0
B80007C0
B4000780
F4000B80
F0000B40
ENDCHAR
STARTCHAR Rho
ENCODING 929
SWIDTH 616 0
DWIDTH 15 0
BBX 15 17 0 0
BITMAP
01FFFE40
02FFFFD0
02D002F0
03D000B4
03C000B8
07C000B8
078000F4
0B8001F0
0B401BD0
0FFFFF80
1FFFE800
1F000000
2E000000
2E000000
3D000000
3D000000
7C000000
ENDCHAR
STARTCHAR Sigma
ENCODING 931
SWIDTH 558 0
DWIDTH 13 0
BBX 15 17 -1 0
BITMAP
02FFFFF8
02FFFFF4
01F40000
00BC0000
003E0000
001F0000
000B8000
0003D000
0002E000
000BC000
002F0000
00BD0000
01F40000
07D00000
1F400000
3FFFFF40
7FFFFF40
ENDCHAR
STARTCHAR Tau
ENCODING 932
SWIDTH 583 0
DWIDTH 14 0
BBX 13 17 2 0
BITMAP
BFFFFFC0
BFFFFF80
003D0000
003D0000
007C0000
007C0000
00B80000
00B40000
00F40000
00F00000
01F00000
01E00000
02E00000
02D00000
03D00000
03C00000
07C00000
ENDCHAR
STARTCHAR Upsilon
ENCODING 933
SWIDTH 587 0
DWIDTH 14 0
BBX 14 17 2 0
BITMAP
F80007D0
7C000F80
3D002E00
2E007C00
1F00F400
0F02E000
0B47C000
079F4000
03FE0000
02F80000
01F40000
01E00000
02E00000
02D00000
03D00000
03C00000
07C00000
ENDCHAR
STARTCHAR Phi
ENCODING 934
SWIDTH 699 0
DWIDTH 17 0
BBX 15 17 1 0
BITMAP
0000F400
0001F000
006FFE40
02FFFFD0
0F92E1F4
2E03D0B8
7C03C03C
B807C03C
B407803C
B40B807C
B40B40B8
780F41F0
3E0F0BD0
1FFFFF40
02FFE400
002E0000
002D0000
ENDCHAR
STARTCHAR Chi
ENCODING 935
SWIDTH 612 0
DWIDTH 15 0
BBX 16 17 -1 0
BITMAP
01F0002F
00F8007D
007C01F8
003D03E0
002F0BC0
000F5F40
000BFD00
0003F800
0003F000
000BF400
001FB800
007D3D00
00F82E00
02F01F40
0BD00B80
1F4007C0
7E0003E0
ENDCHAR
STARTCHAR Psi
ENCODING 936
SWIDTH 675 0
DWIDTH 16 0
BBX 15 17 2 0
BITMAP
3C078078
7C0B80B8
780B40B4
B80F40F4
B40F00F0
F41F01F0
F01E01E0
F02E02D0
F42D07C0
B83D0F80
7E7D7E00
1FFFF800
06FE9000
00B80000
00B40000
00F40000
01F00000
ENDCHAR
STARTCHAR uni03A9
ENCODING 937
SWIDTH 649 0
DWIDTH 16 0
BBX 15 17 0 0
BITMAP
0006F900
007FFF80
00F807E0
03E001F0
07C000F4
0B4000B4
0F0000B4
1F0000F4
1E0000F4
2E0001F0
2E0001E0
1E0002D0
1E000780
0F000F00
07C07D00
BFF2FE80
BFE2FF80
ENDCHAR
STARTCHAR Iotadieresis
ENCODING 938
SWIDTH 268 0
DWIDTH 6 0
BBX 8 22 1 0
BITMAP
1405
7C1F
381E
0000
0000
07C0
0780
0B80
0B40
0F40
0F00
1F00
1E00
2E00
3D00
3D00
7C00
7800
B800
B400
F400
F000
ENDCHAR
STARTCHAR Upsilondieresis
ENCODING 939
SWIDTH 587 0
DWIDTH 14 0
BBX 14 22 2 0
BITMAP
00501400
01F0BC00
01E07800
00000000
00000000
F80007D0
7C000F80
3D002E00
2E007C00
1F00F400
0F02E000
0B47C000
079F4000
03FE0000
02F80000
01F40000
01E00000
02E00000
02D00000
03D00000
03C00000
07C00000
ENDCHAR
STARTCHAR alphatonos
ENCODING 940
SWIDTH 552 0
DWIDTH 13 0
BBX 12 19 1 0
BITMAP
0001E0
0002D0
000380
000640
000000
000000
01BE1E
0BFFED
1F41FD
3D007C
7C007C
B80078
B400B8
F400B4
F400F4
B401F0
7C07F0
3FBEFC
0BE47C
ENDCHAR
STARTCHAR epsilontonos
ENCODING 941
SWIDTH 527 0
DWIDTH 13 0
BBX 12 19 0 0
BITMAP
0000F0
0001D0
0003C0
000240
000000
000000
00AF90
07FAF8
0F803D
1F0019
0F4000
07FF40
0BEA40
3E0000
7C0000
780078
7D01F4
2FEFE0
06FE40
ENDCHAR
STARTCHAR etatonos
ENCODING 942
SWIDTH 554 0
DWIDTH 13 0
BBX 12 24 0 -5
BITMAP
0000B4
0001E0
0002D0
000280
000000
000000
075BE4
0BBEFC
0BD03D
0F402E
0F002E
1F002D
1E002D
2E003C
2D003C
3C0078
3C0078
7800B4
7800B4
0000F0
0000F0
0001E0
0001E0
0002D0
ENDCHAR
STARTCHAR iotatonos
ENCODING 943
SWIDTH 318 0
DWIDTH 8 0
BBX 6 19 1 0
BITMAP
00F0
01D0
02C0
0240
0000
0000
0B40
0F00
0F00
1E00
1E00
2D00
2D00
3C00
3C00
7800
7C00
3F80
1F80
ENDCHAR
STARTCHAR upsilondieresistonos
ENCODING 944
SWIDTH 533 0
DWIDTH 13 0
BBX 11 20 1 0
BITMAP
0007C0
000B40
010A14
0B807C
0B4038
000000
000000
1E00B4
2E00B8
2D0078
2D0078
3C0078
3C0078
7800B8
7800F4
B801F0
B802E0
7C0BC0
2FBF40
0BF800
ENDCHAR
STARTCHAR alpha
ENCODING 945
SWIDTH 552 0
DWIDTH 13 0
BBX 12 13 1 0
BITMAP
01BE1E
0BFFED
1F41FD
3D007C
7C007C
B80078
B400B8
F400B4
F400F4
B401F0
7C07F0
3FBEFC
0BE47C
ENDCHAR
STARTCHAR beta
ENCODING 946
SWIDTH 579 0
DWIDTH 14 0
BBX 13 22 0 -5
BITMAP
001BF800
007FBE00
01F40F40
03D00780
07C00780
07800B40
0B806E00
0B4BF800
0F4AFC00
0F002E00
1E000F00
1E000F00
2D000F00
2D002E00
3E00BD00
3FFBF400
7DBF9000
78000000
B8000000
B4000000
F4000000
F0000000
ENDCHAR
STARTCHAR gamma
ENCODING 947
SWIDTH 490 0
DWIDTH 12 0
BBX 11 18 1 -5
BITMAP
78007C
7C00B8
3C01F0
2D02D0
2D07C0
1E0B40
1E1F00
0F2D00
0F7C00
0BF400
0BF000
07D000
07C000
078000
0B4000
0B4000
0F0000
0F0000
ENDCHAR
STARTCHAR delta
ENCODING 948
SWIDTH 554 0
DWIDTH 13 0
BBX 11 18 1 0
BITMAP
006FE4
01FFF8
03E014
03C000
02E400
00BF40
02FFD0
0F42F4
2D00B8
78007C
B4007C
F4007C
F00078
F000B8
B401F0
7C07D0
2FBF80
06F900
ENDCHAR
STARTCHAR epsilon
ENCODING 949
SWIDTH 527 0
DWIDTH 13 0
BBX 12 13 0 0
BITMAP
00AF90
07FAF8
0F803D
1F0019
0F4000
07FF80
0BEA40
3E0000
7C0000
780078
7D01F4
2FEFE0
06FE40
ENDCHAR
STARTCHAR zeta
ENCODING 950
SWIDTH 507 0
DWIDTH 12 0
BBX 12 22 1 -5
BITMAP
0FFFFE
1AAAFD
0000B4
0003E0
000F80
003E00
00B800
02E000
078000
0F0000
2E0000
3D0000
7C0000
7C0000
3D0000
2F9000
07FD00
006F00
000F00
001E00
007C00
002400
ENDCHAR
STARTCHAR eta
ENCODING 951
SWIDTH 554 0
DWIDTH 13 0
BBX 12 18 0 -5
BITMAP
075BE4
0BBEFC
0BD03D
0F402E
0F002E
1F002D
1E002D
2E003C
2D003C
3C0078
3C0078
7800B4
7800B4
0000F0
0000F0
0001E0
0001E0
0002D0
ENDCHAR
STARTCHAR theta
ENCODING 952
SWIDTH 557 0
DWIDTH 13 0
BBX 12 17 1 0
BITMAP
006F90
02FBF4
07807C
0F002D
1E002D
2D002D
3C002D
7FFFFD
7EAABC
78007C
B40078
B400B8
B800F4
7802E0
3D07D0
1FFF40
06F900
ENDCHAR
STARTCHAR iota
ENCODING 953
SWIDTH 318 0
DWIDTH 8 0
BBX 5 13 1 0
BITMAP
0B40
0F00
0F00
1E00
1E00
2D00
2D00
3C00
3C00
7800
7C00
3F80
1F80
ENDCHAR
STARTCHAR kappa
ENCODING 954
SWIDTH 544 0
DWIDTH 13 0
BBX 13 13 0 0
BITMAP
07801F40
0B807D00
0B41F400
0F4BD000
0F2F4000
1FFD0000
1FFC0000
2E2E0000
2D0F4000
3D0BC000
3C03E000
7C01F000
7800B800
ENDCHAR
STARTCHAR lambda
ENCODING 955
SWIDTH 541 0
DWIDTH 13 0
BBX 13 18 -1 0
BITMAP
007D0000
007F0000
000F4000
000B8000
00078000
0007C000
000BD000
001FD000
002FE000
007DE000
00B5F000
01F0F400
03D0B400
07C0B800
0F407800
2F003C00
3D002F40
BC001B40
ENDCHAR
STARTCHAR uni03BC
ENCODING 956
SWIDTH 554 0
DWIDTH 13 0
BBX 14 18 -1 -5
BITMAP
01E002D0
02E003D0
02D003C0
03D007C0
03C00780
07C00B80
07800B40
0B800F00
0B801F00
0F801E00
0FC07E00
1FFBFD00
1EBF6D00
2E000000
2D000000
3D000000
3C000000
7C000000
ENDCHAR
STARTCHAR nu
ENCODING 957
SWIDTH 474 0
DWIDTH 11 0
BBX 11 13 1 0
BITMAP
B400B8
7800F0
7802E0
3C03C0
3C0B80
2D0F00
1D1E00
1E3C00
0E7800
0FB000
0BE000
0BC000
078000
ENDCHAR
STARTCHAR xi
ENCODING 958
SWIDTH 480 0
DWIDTH 12 0
BBX 11 22 1 -5
BITMAP
006FF8
01FFBC
07D000
0B8000
0B4000
0B4000
07D000
01FFC0
06FE80
2E4000
780000
F40000
F40000
F40000
7D0000
2FE400
01BF00
000F40
000B40
001F00
003D00
002400
ENDCHAR
STARTCHAR omicron
ENCODING 959
SWIDTH 558 0
DWIDTH 13 0
BBX 12 13 1 0
BITMAP
01BF40
0BFBE0
1F40F4
3D007C
B8003C
B4003D
F0003C
F0003C
F00078
B400F4
7D07E0
2FFF80
06F900
ENDCHAR
STARTCHAR pi
ENCODING 960
SWIDTH 582 0
DWIDTH 14 0
BBX 13 13 1 0
BITMAP
BFFFFFC0
AFAAFE80
0F007800
1F00B800
1E00B400
2E00F400
2D00F000
3D01F000
3C01E000
7C02E000
7802E000
B801FD00
B400BD00
ENDCHAR
STARTCHAR rho
ENCODING 961
SWIDTH 554 0
DWIDTH 13 0
BBX 13 18 -1 -5
BITMAP
000BF800
007FBE00
00F80F40
02E00780
03D007C0
07C007C0
078007C0
0B400780
0B400B40
0F401F00
0F807E00
1FFBF800
1E2F9000
2D000000
2D000000
3C000000
7C000000
78000000
ENDCHAR
STARTCHAR sigma1
ENCODING 962
SWIDTH 526 0
DWIDTH 13 0
BBX 11 17 1 -4
BITMAP
01BF40
07FFE0
1F40F4
3D0078
780064
B80000
B40000
F40000
B40000
BC0000
3F4000
1FF800
01BE00
001F00
001F00
002D00
002400
ENDCHAR
STARTCHAR sigma
ENCODING 963
SWIDTH 554 0
DWIDTH 13 0
BBX 13 13 1 0
BITMAP
01BFFFC0
0BFFFA80
2F41F000
3D007400
B8007800
F4003C00
F0007C00
F0007800
F000B400
B401F000
7C07D000
2FBF8000
07F90000
ENDCHAR
STARTCHAR tau
ENCODING 964
SWIDTH 510 0
DWIDTH 12 0
BBX 11 13 1 0
BITMAP
7FFFFC
6AFEA8
00B800
00B400
00F400
00F000
01F000
01E000
02E000
02D000
02D000
02FD00
00BD00
ENDCHAR
STARTCHAR upsilon
ENCODING 965
SWIDTH 533 0
DWIDTH 13 0
BBX 11 13 1 0
BITMAP
1E00B4
2E00B8
2D0078
2D0078
3C0078
3C0078
7800B8
7800F4
B801F0
B802E0
7C0BC0
2FBF40
0BF800
ENDCHAR
STARTCHAR phi
ENCODING 966
SWIDTH 688 0
DWIDTH 17 0
BBX 15 19 1 -6
BITMAP
0240BE00
0B83FFC0
2F47C2E0
3D0780F0
780B80B4
B40B40B4
F40F40B4
F40F00F4
F41F01F0
B81E07D0
3E2E1F80
1FFFFE00
02FFA000
003C0000
007C0000
00780000
00B80000
00B40000
00F40000
ENDCHAR
STARTCHAR chi
ENCODING 967
SWIDTH 485 0
DWIDTH 12 0
BBX 14 18 -1 -5
BITMAP
03E002E0
03F407C0
00780B40
003C1E00
002D3D00
001EB800
000FF000
000FD000
000B8000
001F8000
003FC000
00BBC000
01F2D000
02D1E000
07C0F000
0F40B400
2E007F00
7C002E00
ENDCHAR
STARTCHAR psi
ENCODING 968
SWIDTH 684 0
DWIDTH 16 0
BBX 15 19 1 -6
BITMAP
2D03C0F0
3C03C0B4
3C0780B8
78078078
780B4078
B40F40B8
B40F00B4
B41F00F0
B81E02E0
7C2E07D0
3E2D2F40
1FFFFD00
02FFA000
003C0000
007C0000
00780000
00B80000
00B40000
00F40000
ENDCHAR
STARTCHAR omega
ENCODING 969
SWIDTH 803 0
DWIDTH 19 0
BBX 17 13 1 0
BITMAP
0B80000F40
0F40000B80
2E00000780
3D00500780
7C01F00780
B801E00780
B402E00B80
B402D00B40
B403D00F00
B407D01E00
780EF07D00
3FBC7EF800
0BE01F9000
ENDCHAR
STARTCHAR iotadieresis
ENCODING 970
SWIDTH 318 0
DWIDTH 8 0
BBX 8 18 1 0
BITMAP
1004
B83E
742D
0000
0000
0B40
0F00
0F00
1E00
1E00
2D00
2D00
3C00
3C00
7800
7C00
3F80
1F80
ENDCHAR
STARTCHAR upsilondieresis
ENCODING 971
SWIDTH 533 0
DWIDTH 13 0
BBX 11 18 1 0
BITMAP
014050
03D0F4
02D0B0
000000
000000
1E00B4
2E00B8
2D0078
2D0078
3C0078
3C0078
7800B8
7800F4
B801F0
B802E0
7C0BC0
2FBF40
0BF800
ENDCHAR
STARTCHAR omicrontonos
ENCODING 972
SWIDTH 558 0
DWIDTH 13 0
BBX 12 19 1 0
BITMAP
0003C0
000780
000B00
000A00
000000
000000
01BF40
0BFBE0
1F40F4
3D007C
B8003C
B4003D
F0003C
F0003C
F00078
B400F4
7D07E0
2FFF80
06F900
ENDCHAR
STARTCHAR upsilontonos
ENCODING 973
SWIDTH 533 0
DWIDTH 13 0
BBX 11 19 1 0
BITMAP
000780
000B40
000E00
000900
000000
000000
1E00B4
2E00B8
2D0078
2D0078
3C0078
3C0078
7800B8
7800F4
B801F0
B802E0
7C0BC0
2FBF40
0BF800
ENDCHAR
STARTCHAR omegatonos
ENCODING 974
SWIDTH 803 0
DWIDTH 19 0
BBX 17 19 1 0
BITMAP
00000B4000
00000E0000
00002D0000
0000280000
0000000000
0000000000
0B80000F40
0F40000B80
2E00000780
3D00500780
7C01F00780
B801E00780
B402E00B80
B402D00B40
B403D00F00
B407D01E00
780EF07D00
3FBC7EF800
0BE01F9000
ENDCHAR
STARTCHAR theta1
ENCODING 977
SWIDTH 565 0
DWIDTH 14 0
BBX 13 17 1 0
BITMAP
001BE000
007FFC00
00B83D00
00F02D00
00F02D00
00F03D00
00F43C00
007E7C00
781FFF40
7806FE00
B400B400
B400F400
F401F000
B402E000
BC07D000
2FFF4000
0BF90000
ENDCHAR
STARTCHAR Upsilon1
ENCODING 978
SWIDTH 520 0
DWIDTH 13 0
BBX 14 17 1 0
BITMAP
B8000BD0
BE002FD0
1F003D00
0B40B800
0781F000
07C3D000
03CB8000
02EF0000
01FE0000
00FC0000
00F40000
00F00000
01F00000
01E00000
02E00000
02D00000
03D00000
ENDCHAR
STARTCHAR omega1
ENCODING 982
SWIDTH 766 0
DWIDTH 18 0
BBX 18 13 1 0
BITMAP
7FFFFFFFE0
6FAAAABF90
1E00001F00
3D00000F00
7C02900F00
7802D01F00
B403D01F00
B403C01E00
B407C02D00
B40BC03C00
781EE0B800
3FF8FFF000
1BD02F8000
ENDCHAR
STARTCHAR uni0400
ENCODING 1024
SWIDTH 556 0
DWIDTH 13 0
BBX 14 22 0 0
BITMAP
000B8000
0002D000
0000A000
00000000
00000000
01FFFFF0
02FFFFE0
02D00000
03D00000
03C00000
07C00000
07800000
0BFFFE00
0BFFFD00
0F000000
1F000000
1E000000
2E000000
2D000000
3D000000
3FFFFD00
7FFFFD00
ENDCHAR
STARTCHAR uni0401
ENCODING 1025
SWIDTH 556 0
DWIDTH 13 0
BBX 14 22 0 0
BITMAP
00050140
001F07C0
001E0780
00000000
00000000
01FFFFF0
02FFFFE0
02D00000
03D00000
03C00000
07C00000
07800000
0BFFFE00
0BFFFD00
0F000000
1F000000
1E000000
2E000000
2D000000
3D000000
3FFFFD00
7FFFFD00
ENDCHAR
STARTCHAR uni0402
ENCODING 1026
SWIDTH 731 0
DWIDTH 18 0
BBX 15 17 2 0
BITMAP
FFFFFFC0
FFFFFF80
00B80000
00B80000
00F40000
00F40000
01F00000
01FBFE00
02FFFFD0
02E407E0
03D001F0
03D000F4
07C000F0
07C002F0
0B800BD0
0B40FF40
0F41E800
ENDCHAR
STARTCHAR uni0403
ENCODING 1027
SWIDTH 544 0
DWIDTH 13 0
BBX 13 22 1 0
BITMAP
00003E00
0001F400
0002D000
00000000
00000000
07FFFFC0
0BFFFF80
0B800000
0F400000
0F400000
1F000000
1E000000
2E000000
2D000000
3D000000
3C000000
7C000000
78000000
B8000000
B4000000
F4000000
F0000000
ENDCHAR
STARTCHAR uni0404
ENCODING 1028
SWIDTH 658 0
DWIDTH 16 0
BBX 14 17 1 0
BITMAP
001BF900
00BFFF40
02E40BD0
0B8002E0
1F0001F0
2D0000A0
3C000000
3FFFD000
7EAAD000
78000000
B8000000
78000640
7C000B40
3D001F00
2F40BD00
0BFFF400
01BF8000
ENDCHAR
STARTCHAR uni0405
ENCODING 1029
SWIDTH 580 0
DWIDTH 14 0
BBX 14 17 0 0
BITMAP
001BF900
00BFFF40
02F407D0
07C002E0
0B8001E0
07800040
07E00000
01FE4000
006FF400
0006FD00
00002F00
10000F40
78000B40
7C000F40
2E407E00
0BFFF800
01BF9000
ENDCHAR
STARTCHAR uni0406
ENCODING 1030
SWIDTH 268 0
DWIDTH 6 0
BBX 5 17 1 0
BITMAP
07C0
0780
0B80
0B40
0F40
0F00
1F00
1E00
2E00
3D00
3D00
7C00
7800
B800
B400
F400
F000
ENDCHAR
STARTCHAR uni0407
ENCODING 1031
SWIDTH 268 0
DWIDTH 6 0
BBX 8 22 1 0
BITMAP
1405
7C1F
381E
0000
0000
07C0
0780
0B80
0B40
0F40
0F00
1F00
1E00
2E00
3D00
3D00
7C00
7800
B800
B400
F400
F000
ENDCHAR
STARTCHAR uni0408
ENCODING 1032
SWIDTH 540 0
DWIDTH 13 0
BBX 13 17 0 0
BITMAP
00000780
00000B80
00000B40
00000F40
00000F00
00001F00
00001E00
00002E00
00002D00
00003D00
00003C00
00007C00
B400B800
B800F400
7D06E000
2FFFC000
06F90000
ENDCHAR
STARTCHAR uni0409
ENCODING 1033
SWIDTH 1043 0
DWIDTH 25 0
BBX 25 17 -1 0
BITMAP
0003FFFFC00000
0007FFFFC00000
000B800B800000
000B400B800000
000F400F400000
001F000F400000
001E001F000000
002E001FFFE400
002D002FFFFE00
003C002E001F40
007C003D000B80
0078003C000B80
00B4007C000B80
01F00078001F40
07D000B8007E00
7F8000BFEFF800
B90000FFFF9000
ENDCHAR
STARTCHAR uni040A
ENCODING 1034
SWIDTH 1052 0
DWIDTH 25 0
BBX 23 17 1 0
BITMAP
07C0003D0000
0B80003C0000
0B40007C0000
0F4000B80000
0F0000B80000
1F0000F40000
1E0000F00000
2FFFFFFFFE40
2FFFFFFFFFE0
3D0002E001F4
3C0002D000B8
7C0003D00078
780003C000B8
B80007C001F4
B400078007F0
F4000BFFFF80
F0000BFFF900
ENDCHAR
STARTCHAR uni040B
ENCODING 1035
SWIDTH 793 0
DWIDTH 19 0
BBX 15 17 2 0
BITMAP
BFFFFFD0
BFFFFFC0
00780000
00B80000
00B40000
00F40000
00FAFE40
01FFFFE0
01F401F4
02E000B8
02D000B8
03D000B8
03C000B4
07C000F4
078000F0
0B8001F0
0B4001E0
ENDCHAR
STARTCHAR uni040C
ENCODING 1036
SWIDTH 612 0
DWIDTH 15 0
BBX 16 22 0 0
BITMAP
00001F40
00007D00
0000B000
00000000
00000000
01E0007D
02E001F4
02D00BD0
03D02F40
03C0BD00
07C2F400
078BD000
0BAF4000
0BFF8000
0FFBC000
1F82E000
1F01F400
2E00B800
2E003D00
3D002F00
3C000F40
7C0007C0
ENDCHAR
STARTCHAR uni040D
ENCODING 1037
SWIDTH 696 0
DWIDTH 17 0
BBX 16 22 1 0
BITMAP
0007C000
0001E000
0000A400
00000000
00000000
07C0007D
0B8001FC
0B8003FC
0F400BF8
0F002FB8
1F007DF4
1E01F4F0
2E03E1F0
2D0B81E0
3D2F02E0
3C7D02D0
7DF403D0
7FE003C0
BF8007C0
BF000780
FD000B80
F4000B40
ENDCHAR
STARTCHAR uni040E
ENCODING 1038
SWIDTH 614 0
DWIDTH 15 0
BBX 15 21 1 0
BITMAP
002C0B00
001E6E00
0006F800
00000000
1F0001F4
0F4002F0
0B8007D0
07C00F80
03D01F00
02D03D00
02E0BC00
01F0F400
00F6E000
00BBC000
007F8000
003F0000
003D0000
00B80000
01F00000
3FD00000
7E400000
ENDCHAR
STARTCHAR uni040F
ENCODING 1039
SWIDTH 696 0
DWIDTH 17 0
BBX 16 21 1 -4
BITMAP
07C0003D
0B80007C
0B80007C
0F4000B8
0F0000B8
1F0000F4
1E0000F0
2E0001F0
2D0001E0
3D0002E0
3C0002D0
7C0003D0
780003C0
B80007C0
B4000780
FFFFFF80
FFFFFF40
003C0000
007C0000
00780000
00B80000
ENDCHAR
STARTCHAR uni0410
ENCODING 1040
SWIDTH 637 0
DWIDTH 15 0
BBX 15 17 -1 0
BITMAP
00003D00
00007E00
0000FE00
0002EF00
0003CB00
000B8B40
001F0780
002E0780
007C03C0
00F403C0
01F002D0
03FFFFE0
07FFFFE0
0F4001F0
2E0000F0
3D0000B4
B80000B8
ENDCHAR
STARTCHAR uni0411
ENCODING 1041
SWIDTH 616 0
DWIDTH 15 0
BBX 14 17 0 0
BITMAP
02FFFFE0
02FFFFD0
03D00000
03D00000
07C00000
07C00000
0B800000
0BFFF800
0FFFFF40
0F000BC0
1F0003D0
1E0003D0
2E0003D0
2D000BC0
3D002F40
3FFBFD00
7FFFE400
ENDCHAR
STARTCHAR uni0412
ENCODING 1042
SWIDTH 608 0
DWIDTH 15 0
BBX 14 17 0 0
BITMAP
01FFF900
02FFFF80
02D007D0
03D002E0
03C002E0
07C003D0
07801F80
0BFFFD00
0FEAFE00
0F001F40
1F000B80
1E000780
2E000B80
2D000F40
3D006F00
3FEFFC00
7FFF9000
ENDCHAR
STARTCHAR uni0413
ENCODING 1043
SWIDTH 544 0
DWIDTH 13 0
BBX 13 17 1 0
BITMAP
07FFFFC0
0BFFFF80
0B800000
0F400000
0F400000
1F000000
1E000000
2E000000
2D000000
3D000000
3C000000
7C000000
78000000
B8000000
B4000000
F4000000
F0000000
ENDCHAR
STARTCHAR uni0414
ENCODING 1044
SWIDTH 734 0
DWIDTH 18 0
BBX 19 21 -2 -4
BITMAP
0000BFFFF4
0000FFFFF4
0000F401F0
0001F001E0
0001E002E0
0002E002D0
0003D003D0
0003C003C0
00078007C0
000B800780
000F400B80
001E000B40
003D000F40
00B8000F00
01F0001F00
1BFAAABFA0
2FFFFFFFE0
2D000002E0
3D000003D0
3C000003C0
7C000007C0
ENDCHAR
STARTCHAR uni0415
ENCODING 1045
SWIDTH 556 0
DWIDTH 13 0
BBX 14 17 0 0
BITMAP
01FFFFF0
02FFFFE0
02D00000
03D00000
03C00000
07C00000
07800000
0BFFFE00
0BFFFD00
0F000000
1F000000
1E000000
2E000000
2D000000
3D000000
3FFFFD00
7FFFFD00
ENDCHAR
STARTCHAR uni0416
ENCODING 1046
SWIDTH 885 0
DWIDTH 21 0
BBX 23 17 -1 0
BITMAP
01F400B400BC
00B800F402F0
007C00F007D0
002E01F01F40
001F01E03E00
000B42E0B800
0007C3D2E000
0003FFFFC000
000BFFFFC000
001F4783D000
003E0B82F000
00BC0B41F400
02F40F40B800
07E00F007D00
0F801F003E00
2F001E002F00
BD002E000F40
ENDCHAR
STARTCHAR uni0417
ENCODING 1047
SWIDTH 580 0
DWIDTH 14 0
BBX 14 17 0 0
BITMAP
001BF900
00FFFF80
03E407D0
07C002E0
0A4002E0
000003D0
00001F80
002FF900
002FFD00
00002F00
00000F40
00000B40
78000F40
7C001F00
3E00BD00
1FFFF800
02FE8000
ENDCHAR
STARTCHAR uni0418
ENCODING 1048
SWIDTH 696 0
DWIDTH 17 0
BBX 16 17 1 0
BITMAP
07C0007D
0B8001FC
0B8003FC
0F400BF8
0F002FB8
1F007DF4
1E01F4F0
2E03E1F0
2D0B81E0
3D2F02E0
3C7D02D0
7DF403D0
7FE003C0
BF8007C0
BF000780
FD000B80
F4000B40
ENDCHAR
STARTCHAR uni0419
ENCODING 1049
SWIDTH 696 0
DWIDTH 17 0
BBX 16 21 1 0
BITMAP
000B02C0
00079B80
0001BE00
00000000
07C0007D
0B8001FC
0B8003FC
0F400BF8
0F002FB8
1F007DF4
1E01F4F0
2E03E1F0
2D0B81E0
3D2F02E0
3C7D02D0
7DF403D0
7FE003C0
BF8007C0
BF000780
FD000B80
F4000B40
ENDCHAR
STARTCHAR uni041A
ENCODING 1050
SWIDTH 628 0
DWIDTH 15 0
BBX 15 17 1 0
BITMAP
07C001F8
078007E0
0B401F80
0F407E00
0F01F800
1F07E000
1E1F8000
2FFE0000
2FFE0000
3D1F4000
3C0BC000
7C03D000
7802F000
B800F800
B4007C00
F4002E00
F0001F40
ENDCHAR
STARTCHAR uni041B
ENCODING 1051
SWIDTH 691 0
DWIDTH 17 0
BBX 17 17 -1 0
BITMAP
0003FFFFC0
0007FFFFC0
000B800780
000B400B80
000F400B40
001F000F40
001E000F00
002E001F00
002D001E00
003C002E00
007C003D00
0078003D00
00B4007C00
01F0007C00
07D000B800
7F8000B400
B90000F400
ENDCHAR
STARTCHAR uni041C
ENCODING 1052
SWIDTH 851 0
DWIDTH 20 0
BBX 20 17 0 0
BITMAP
01F800003F
02F80000BF
02FC0001FE
03FD0002FE
03ED0007ED
079E000F7D
079F001E3C
0B4F003D7C
0B4B40B878
0F4B40F0B4
1F0782E0F4
1F03C7C0F0
2E03CB41F0
2E02EE01E0
3D01FD02E0
3C01F802D0
7C00F003D0
ENDCHAR
STARTCHAR uni041D
ENCODING 1053
SWIDTH 696 0
DWIDTH 17 0
BBX 17 17 0 0
BITMAP
01E0000F40
02E0000F00
02D0001F00
03D0001E00
03C0002E00
07C0002D00
0780003D00
0BFFFFFC00
0BFFFFFC00
0F0000B800
1F0000B800
1E0000F400
2E0000F400
2D0001F000
3D0001F000
3C0002E000
7C0002E000
ENDCHAR
STARTCHAR uni041E
ENCODING 1054
SWIDTH 671 0
DWIDTH 16 0
BBX 14 17 1 0
BITMAP
001BF900
00BFFF40
02F40BC0
0B8002E0
1F4001F0
2E0000F0
3D0000F0
7C0000F0
7C0001F0
780001E0
B80002E0
780003D0
7C000B80
3D001F40
2F407D00
0BFFF400
01BF8000
ENDCHAR
STARTCHAR uni041F
ENCODING 1055
SWIDTH 696 0
DWIDTH 17 0
BBX 16 17 1 0
BITMAP
07FFFFFD
07FFFFFC
0B80007C
0F4000B8
0F4000B8
1F0000F4
1E0000F4
2E0001F0
2D0001E0
3D0002E0
3C0002D0
7C0003D0
780003C0
B80007C0
B4000780
F4000B80
F0000B40
ENDCHAR
STARTCHAR uni0420
ENCODING 1056
SWIDTH 616 0
DWIDTH 15 0
BBX 15 17 0 0
BITMAP
01FFFE40
02FFFFD0
02D002F0
03D000B4
03C000B8
07C000B8
078000F4
0B8001F0
0B401BD0
0FFFFF80
1FFFE800
1F000000
2E000000
2E000000
3D000000
3D000000
7C000000
ENDCHAR
STARTCHAR uni0421
ENCODING 1057
SWIDTH 636 0
DWIDTH 15 0
BBX 14 17 1 0
BITMAP
001BF900
00BFFF40
03E40BC0
0B8002E0
1F0001E0
2E0001A0
3D000000
7C000000
78000000
B8000000
B8000000
B8000540
78000B40
3D001F00
2E40BD00
0BFFF400
01BF8000
ENDCHAR
STARTCHAR uni0422
ENCODING 1058
SWIDTH 583 0
DWIDTH 14 0
BBX 13 17 2 0
BITMAP
BFFFFFC0
BFFFFF80
003D0000
003D0000
007C0000
007C0000
00B80000
00B40000
00F40000
00F00000
01F00000
01E00000
02E00000
02D00000
03D00000
03C00000
07C00000
ENDCHAR
STARTCHAR uni0423
ENCODING 1059
SWIDTH 614 0
DWIDTH 15 0
BBX 15 17 1 0
BITMAP
1F0001F4
0F4002F0
0B8007D0
07C00F80
03D01F00
02D03D00
02E0BC00
01F0F400
00F6E000
00BBC000
007F8000
003F0000
003D0000
00B80000
01F00000
3FD00000
7E400000
ENDCHAR
STARTCHAR uni0424
ENCODING 1060
SWIDTH 753 0
DWIDTH 18 0
BBX 17 18 1 0
BITMAP
00007C0000
0000780000
002BFF9000
02FEFFF800
0BD0F47D00
1F00F01F00
3D01F00F40
7801E00B40
B402E00B40
B402D00B40
B403C00F00
B407C02E00
7C07807C00
2E0B81F400
0BFFEFD000
01BFF90000
000F000000
001F000000
ENDCHAR
STARTCHAR uni0425
ENCODING 1061
SWIDTH 612 0
DWIDTH 15 0
BBX 16 17 -1 0
BITMAP
01F0002F
00F8007D
007C01F8
003D03E0
002F0BC0
000F5F40
000BFD00
0003F800
0003F000
000BF400
001FB800
007D3D00
00F82E00
02F01F40
0BD00B80
1F4007C0
7E0003E0
ENDCHAR
STARTCHAR uni0426
ENCODING 1062
SWIDTH 713 0
DWIDTH 17 0
BBX 16 21 1 -4
BITMAP
07C0003D
0B80007C
0B80007C
0F4000B8
0F0000B4
1F0000F4
1E0000F0
2E0001F0
2D0001E0
3D0002E0
3C0002D0
7C0003D0
780003C0
B80007C0
B4000780
FFFFFFF4
FFFFFFF0
000001F0
000001E0
000002D0
000002D0
ENDCHAR
STARTCHAR uni0427
ENCODING 1063
SWIDTH 668 0
DWIDTH 16 0
BBX 14 17 2 0
BITMAP
2E0002E0
2E0002E0
3D0003D0
3C0003D0
7C0007C0
7C0007C0
7C000B80
3E005F40
1FFFFF40
06BA9F00
00001F00
00001E00
00002E00
00002D00
00003D00
00003C00
00007C00
ENDCHAR
STARTCHAR uni0428
ENCODING 1064
SWIDTH 917 0
DWIDTH 22 0
BBX 21 17 1 0
BITMAP
07C007800B80
0B800B800B40
0B800B400F40
0F400F400F00
0F000F001F00
1F001F002E00
1E002E002E00
2E002E003D00
2D003D003D00
3D003C007C00
3C007C007800
7C007800B800
7800B800B400
B800B400F400
B400F400F000
FFFFFFFFF000
FFFFFFFFE000
ENDCHAR
STARTCHAR uni0429
ENCODING 1065
SWIDTH 944 0
DWIDTH 23 0
BBX 21 21 1 -4
BITMAP
07C007800B80
0B800B800B40
0B800B400F40
0F400F400F00
0F000F001F00
1F001F002E00
1E002E002E00
2E002E003D00
2D003D003D00
3D003C007C00
3C007C007C00
7C007800B800
7800B800B400
B800B400F400
B400F400F000
FFFFFFFFF900
FFFFFFFFFD00
000000002D00
000000003C00
000000007800
000000007800
ENDCHAR
STARTCHAR uni042A
ENCODING 1066
SWIDTH 740 0
DWIDTH 18 0
BBX 16 17 1 0
BITMAP
3FFE0000
6ABE0000
003D0000
003D0000
007C0000
007C0000
00B80000
00BFFF80
00FFFFF4
00F000BC
01F0003D
01E0003D
02E0003D
02D000BC
03D002F4
03FFBFD0
07FFFE40
ENDCHAR
STARTCHAR uni042B
ENCODING 1067
SWIDTH 843 0
DWIDTH 20 0
BBX 19 17 1 0
BITMAP
07C00000B8
07800000B8
0B800000F4
0F400000F0
0F400001F0
1F000001E0
1F000002E0
2FFFE402D0
2FFFFD03D0
3D002F03C0
3C000F47C0
7C000B4780
78000F4B80
B8001F0B40
B4007E0F40
FFEFF80F00
FFFF901F00
ENDCHAR
STARTCHAR uni042C
ENCODING 1068
SWIDTH 613 0
DWIDTH 15 0
BBX 14 17 0 0
BITMAP
01E00000
02E00000
03D00000
03D00000
07C00000
07C00000
0B800000
0BFFF800
0FFFFF40
0F000BC0
1F0003D0
1E0003D0
2E0003D0
2D000BC0
3D002F40
3FFBFD00
7FFFE400
ENDCHAR
STARTCHAR uni042D
ENCODING 1069
SWIDTH 658 0
DWIDTH 16 0
BBX 14 17 1 0
BITMAP
001BF800
01FFFF40
03E00BC0
0B8002D0
0F4001E0
1A0001F0
000001F0
003FFFE0
003FFFE0
000002E0
000003D0
640007C0
B8000F80
7C002F00
2E00BD00
0FFFF400
02BE8000
ENDCHAR
STARTCHAR uni042E
ENCODING 1070
SWIDTH 872 0
DWIDTH 21 0
BBX 20 17 1 0
BITMAP
07C006FE40
07802FFFE0
0B80BD01F4
0B42F4007C
0F07D0003C
0F0BC0003D
1E0F80002D
1FFF40003D
2FAF00003D
3D1F00003C
3C1F000078
7C0F0000B4
780F4001F0
B80B8003D0
B403D01F80
F401FFFE00
F0006FE400
ENDCHAR
STARTCHAR uni042F
ENCODING 1071
SWIDTH 622 0
DWIDTH 15 0
BBX 15 17 0 0
BITMAP
001BFFF4
007FFFF4
01F800F0
03E001F0
07C001E0
078002E0
078002D0
07C003D0
02E403C0
00BFFFC0
007FFF80
00F40B80
02E00B40
0B800F40
1F001F00
7D001E00
F8002E00
ENDCHAR
STARTCHAR uni0430
ENCODING 1072
SWIDTH 532 0
DWIDTH 13 0
BBX 12 13 0 0
BITMAP
006F90
02FAF8
0B807C
0A003D
00003D
01BFFC
0BEABC
2E0078
3C00B8
7C00F4
7D07F4
2FFFF4
07F8F4
ENDCHAR
STARTCHAR uni0431
ENCODING 1073
SWIDTH 541 0
DWIDTH 13 0
BBX 12 18 1 0
BITMAP
00000F
00017E
006FF8
01FE40
07D000
0F0000
2DBF80
3BEFE0
7E01F4
BC007C
B4003C
F4003C
F0007C
F400B8
B400F4
7D02E0
2FAF80
06F900
ENDCHAR
STARTCHAR uni0432
ENCODING 1074
SWIDTH 559 0
DWIDTH 13 0
BBX 12 13 0 0
BITMAP
07FFE4
07EAFE
0B401F
0B401F
0F006D
1FFFF4
1FAAF8
2E003D
2D002D
3D002D
3C007C
7EABF4
7FFF90
ENDCHAR
STARTCHAR uni0433
ENCODING 1075
SWIDTH 411 0
DWIDTH 10 0
BBX 11 13 0 0
BITMAP
07FFF4
0BEAA4
0B4000
0F4000
0F0000
1F0000
1E0000
2E0000
2D0000
3D0000
3C0000
7C0000
780000
ENDCHAR
STARTCHAR uni0434
ENCODING 1076
SWIDTH 590 0
DWIDTH 14 0
BBX 15 17 -2 -4
BITMAP
0007FFF8
000BFFF4
000B40F4
000F40F0
000F01F0
001E01E0
002E02E0
003D02D0
007C03D0
00F403C0
02E007C0
1BEAABE4
2FFFFFF4
2D0000F0
3D0001F0
3C0001E0
7C0002E0
ENDCHAR
STARTCHAR uni0435
ENCODING 1077
SWIDTH 518 0
DWIDTH 12 0
BBX 11 13 1 0
BITMAP
01BE40
07FFE0
1F41F0
3C00B4
780078
BFFFF8
FAAAA4
F00000
F40000
B80040
7D02D0
2FEF80
06F900
ENDCHAR
STARTCHAR uni0436
ENCODING 1078
SWIDTH 747 0
DWIDTH 18 0
BBX 19 13 -1 0
BITMAP
03D01E00F8
02E01E02E0
00F42D0BC0
00B83D1F40
003C3C7D00
002FFFF400
003FFFF400
00B8B8B800
02F0B43C00
07D0F42E00
0F80F01F00
3E01F00F80
BC01E00BC0
ENDCHAR
STARTCHAR uni0437
ENCODING 1079
SWIDTH 497 0
DWIDTH 12 0
BBX 11 13 0 0
BITMAP
00BF90
07FBF4
0F80B8
1A0078
0001F4
00FFD0
01FFD0
0001F0
0000F0
B801F0
7D02E0
2FAFC0
06F900
ENDCHAR
STARTCHAR uni0438
ENCODING 1080
SWIDTH 564 0
DWIDTH 14 0
BBX 13 13 0 0
BITMAP
07800F80
0B802F40
0B407F40
0F41FF00
0F03EF00
1F0B9E00
1E2E2E00
2E7C2D00
2EF43D00
3FD03C00
3F807C00
7F007800
7D00B800
ENDCHAR
STARTCHAR uni0439
ENCODING 1081
SWIDTH 564 0
DWIDTH 14 0
BBX 13 17 0 0
BITMAP
00380E00
002E6D00
000BE400
00000000
07800F80
0B802F40
0B407F40
0F41FF00
0F03EF00
1F0B9E00
1E2E2E00
2E7C2D00
2EF43D00
3FD03C00
3F807C00
7F007800
7D00B800
ENDCHAR
STARTCHAR uni043A
ENCODING 1082
SWIDTH 528 0
DWIDTH 13 0
BBX 13 13 0 0
BITMAP
07801F80
0B807D00
0B41F400
0F47D000
0F1F4000
1FFD0000
1FFD0000
2E1F0000
2D0F8000
3D07C000
3C02E000
7C01F400
7800B800
ENDCHAR
STARTCHAR uni043B
ENCODING 1083
SWIDTH 565 0
DWIDTH 14 0
BBX 14 13 -1 0
BITMAP
002FFFE0
003EABD0
003C03D0
007803C0
00B407C0
00B40780
00F00B80
00F00B40
01E00F40
02D00F00
0BC01F00
7F401E00
B9002E00
ENDCHAR
STARTCHAR uni043C
ENCODING 1084
SWIDTH 724 0
DWIDTH 17 0
BBX 17 13 0 0
BITMAP
07E0002F40
07E0003F40
0BF000BF00
0BF401FF00
0F7803EE00
1F3807AE00
1E3C0F2D00
2E2D2D3D00
2D1E7C3C00
3D0EB47C00
3C0FE07800
7C0BC0B800
780780B400
ENDCHAR
STARTCHAR uni043D
ENCODING 1085
SWIDTH 564 0
DWIDTH 14 0
BBX 13 13 0 0
BITMAP
07800B80
0B800B40
0B400F40
0F400F00
0F001F00
1FFFFE00
1FAABE00
2E003D00
2D003D00
3D003C00
3C007C00
7C007800
7800B800
ENDCHAR
STARTCHAR uni043E
ENCODING 1086
SWIDTH 558 0
DWIDTH 13 0
BBX 12 13 1 0
BITMAP
01BF40
0BFBE0
1F40F4
3D007C
B8003C
B4003D
F0003C
F0003C
F00078
B400F4
7D07E0
2FFF80
06F900
ENDCHAR
STARTCHAR uni043F
ENCODING 1087
SWIDTH 564 0
DWIDTH 14 0
BBX 13 13 0 0
BITMAP
07FFFF80
0BEAAF40
0B400F40
0F400F00
0F001F00
1F001E00
1E002E00
2E002D00
2D003D00
3D003C00
3C007C00
7C007800
7800B800
ENDCHAR
STARTCHAR uni0440
ENCODING 1088
SWIDTH 549 0
DWIDTH 13 0
BBX 13 18 -1 -5
BITMAP
02D6F800
02EFFF00
03F41F40
03D00B80
07C007C0
078007C0
0B8007C0
0B400780
0F400B40
0F001F00
1F807D00
1FFBF800
2E6F9000
2D000000
3D000000
3C000000
7C000000
78000000
ENDCHAR
STARTCHAR uni0441
ENCODING 1089
SWIDTH 512 0
DWIDTH 12 0
BBX 11 13 1 0
BITMAP
01BE40
0BFFE0
2F41F4
3D0078
B80064
B40000
F00000
F00000
F00050
B401E0
7C07D0
2FBF40
07F900
ENDCHAR
STARTCHAR uni0442
ENCODING 1090
SWIDTH 470 0
DWIDTH 11 0
BBX 11 13 1 0
BITMAP
BFFFF8
AAFAA4
00F400
00F000
01E000
01E000
02D000
02D000
03C000
03C000
078000
078000
0B4000
ENDCHAR
STARTCHAR uni0443
ENCODING 1091
SWIDTH 463 0
DWIDTH 11 0
BBX 13 18 -1 -5
BITMAP
0B800B80
07801F00
07C02E00
03C07C00
03C0B400
02D1F000
02D2D000
01E3C000
01EB4000
00FF0000
00FD0000
00BC0000
00B40000
00F00000
02D00000
07C00000
FF400000
F9000000
ENDCHAR
STARTCHAR uni0444
ENCODING 1092
SWIDTH 708 0
DWIDTH 17 0
BBX 15 23 1 -5
BITMAP
0000F400
0000F000
0001F000
0001E000
0002D000
02FFEF80
0FEFFBE0
2E03C1F4
3C07C0B8
B8078078
B40B4078
F40F40B8
F00F00B4
F01F00F4
F01E01F0
B82E07D0
7FBFAF80
1FFEFD00
003C0000
003C0000
00780000
00B80000
00B40000
ENDCHAR
STARTCHAR uni0445
ENCODING 1093
SWIDTH 485 0
DWIDTH 12 0
BBX 13 13 -1 0
BITMAP
07C00F40
02D02E00
01F0BC00
00B5F400
007BD000
003F8000
002F0000
007F4000
01FB8000
03D3D000
0B82E000
2F00F000
7D00B800
ENDCHAR
STARTCHAR uni0446
ENCODING 1094
SWIDTH 579 0
DWIDTH 14 0
BBX 13 17 0 -4
BITMAP
07800B80
0B800B40
0B400F40
0F400F00
0F001F00
1F001E00
1E002E00
2E002D00
2D003D00
3D003C00
3C007C00
7EAAFE00
7FFFFF00
00001E00
00001E00
00002D00
00002C00
ENDCHAR
STARTCHAR uni0447
ENCODING 1095
SWIDTH 532 0
DWIDTH 13 0
BBX 11 13 1 0
BITMAP
2D007C
3C0078
3C00B8
7800F4
7C00F4
3D01F0
2FFFF0
06AAE0
0002E0
0002D0
0003D0
0003C0
0007C0
ENDCHAR
STARTCHAR uni0448
ENCODING 1096
SWIDTH 789 0
DWIDTH 19 0
BBX 18 13 0 0
BITMAP
07802D00F0
0B803D01F0
0B403C01E0
0F407C02D0
0F007802D0
1F00B803C0
1E00B403C0
2E00F40780
2D00F00780
3D01F00B40
3C01E00B40
7EABFAAF00
7FFFFFFF00
ENDCHAR
STARTCHAR uni0449
ENCODING 1097
SWIDTH 807 0
DWIDTH 19 0
BBX 18 17 0 -4
BITMAP
07803D01F0
0B803C01E0
0B407C02E0
0F407802D0
0F00B803D0
1E00B403C0
1E00F407C0
2D00F00780
2D01F00B80
3C01E00B40
3C02E00F40
7EABFAAFA0
7FFFFFFFE0
00000002D0
00000003C0
00000003C0
0000000780
ENDCHAR
STARTCHAR uni044A
ENCODING 1098
SWIDTH 606 0
DWIDTH 15 0
BBX 13 13 1 0
BITMAP
BFF00000
ABE00000
01E00000
02D00000
02FFE400
03EAFD00
03C01F00
07800F40
07800F40
0B400F00
0B402E00
0FAAFC00
0FFFE000
ENDCHAR
STARTCHAR uni044B
ENCODING 1099
SWIDTH 757 0
DWIDTH 18 0
BBX 17 13 0 0
BITMAP
07800007C0
0780000780
0B40000B80
0B40000B40
0FFF900F40
1FABF40F00
1E00BC1F00
2E003C1E00
2D003C2E00
3D007C2D00
3C01F83D00
7EAFE03C00
7FFE407C00
ENDCHAR
STARTCHAR uni044C
ENCODING 1100
SWIDTH 531 0
DWIDTH 13 0
BBX 11 13 0 0
BITMAP
078000
078000
0B4000
0B4000
0FFF90
1FABF4
1E00BC
2E003C
2D003C
3D007C
3C01F8
7EAFE0
7FFE40
ENDCHAR
STARTCHAR uni044D
ENCODING 1101
SWIDTH 526 0
DWIDTH 13 0
BBX 12 13 0 0
BITMAP
006F80
03FBF0
0B80B8
1E003C
04003D
007FFD
006ABD
00007C
6400B8
7C00F4
3D03E0
1FEF80
06F900
ENDCHAR
STARTCHAR uni044E
ENCODING 1102
SWIDTH 796 0
DWIDTH 19 0
BBX 18 13 0 0
BITMAP
078006F900
07802FFF80
0B40F907D0
0B42F002E0
0F03D001F0
1FFFC001F0
1FAFC001F0
2E078002E0
2D07C002D0
3D03C007C0
3C02E01F40
7C00BEFD00
78002FE400
ENDCHAR
STARTCHAR uni044F
ENCODING 1103
SWIDTH 537 0
DWIDTH 13 0
BBX 13 13 -1 0
BITMAP
006FFFC0
01FEAF80
03E00B80
07800B40
07800F40
07D00F00
02FFFF00
00FEBE00
01F02E00
07D02D00
0F403D00
2E003C00
7C007C00
ENDCHAR
STARTCHAR uni0450
ENCODING 1104
SWIDTH 518 0
DWIDTH 12 0
BBX 11 18 1 0
BITMAP
00F400
003C00
001D00
000000
000000
01BE40
07FFE0
1F41F0
3C00B4
780078
BFFFF8
FAAAA4
F00000
F40000
B80040
7D02D0
2FEF80
06F900
ENDCHAR
STARTCHAR uni0451
ENCODING 1105
SWIDTH 518 0
DWIDTH 12 0
BBX 11 18 1 0
BITMAP
004050
02E0F4
02D0B4
000000
000000
01BE40
07FFE0
1F41F0
3C00B4
780078
BFFFF8
FAAAA4
F00000
F40000
B80040
7D02D0
2FEF80
06F900
ENDCHAR
STARTCHAR uni0452
ENCODING 1106
SWIDTH 539 0
DWIDTH 13 0
BBX 12 23 0 -5
BITMAP
02E000
02D000
2FFF40
2BEA40
078000
079BE0
0BBFFC
0BD03D
0F402D
0F002D
1E003D
2E003C
2D003C
3D0078
3C0078
7C00B4
7800B4
B800F0
0000F0
0001E0
0002D0
006FC0
00BE00
ENDCHAR
STARTCHAR uni0453
ENCODING 1107
SWIDTH 411 0
DWIDTH 10 0
BBX 11 18 0 0
BITMAP
0002E0
000F80
002D00
000000
000000
07FFF4
0BEAA4
0B4000
0F4000
0F0000
1F0000
1E0000
2E0000
2D0000
3D0000
3C0000
7C0000
780000
ENDCHAR
STARTCHAR uni0454
ENCODING 1108
SWIDTH 526 0
DWIDTH 13 0
BBX 11 13 1 0
BITMAP
01BF80
07FBE0
1F40B8
3D0078
780028
BFFC00
BEA800
F40000
B40050
B801F0
7D07D0
2FBF80
06F900
ENDCHAR
STARTCHAR uni0455
ENCODING 1109
SWIDTH 504 0
DWIDTH 12 0
BBX 11 13 0 0
BITMAP
00BF90
07FFF4
0B80BC
0F003C
0F4000
0BE400
01FF80
0017E0
0000F4
7800F4
3D02F0
1FEFD0
06FE00
ENDCHAR
STARTCHAR uni0456
ENCODING 1110
SWIDTH 240 0
DWIDTH 6 0
BBX 6 18 0 0
BITMAP
0040
02E0
02D0
0000
0000
0780
0B80
0B40
0F40
0F00
1F00
1E00
2E00
2D00
3D00
3C00
7C00
7800
ENDCHAR
STARTCHAR uni0457
ENCODING 1111
SWIDTH 244 0
DWIDTH 6 0
BBX 8 18 0 0
BITMAP
1405
7D1F
380E
0000
0000
0780
0B80
0B40
0F40
0F00
1F00
1E00
2E00
2D00
3D00
3C00
7C00
7800
ENDCHAR
STARTCHAR uni0458
ENCODING 1112
SWIDTH 236 0
DWIDTH 6 0
BBX 9 23 -3 -5
BITMAP
000500
000F40
000B40
000000
000000
001E00
002E00
002D00
003D00
003C00
007C00
007800
00B800
00B400
00F400
00F000
01F000
01E000
02D000
03D000
07C000
BF8000
BD0000
ENDCHAR
STARTCHAR uni0459
ENCODING 1113
SWIDTH 827 0
DWIDTH 20 0
BBX 20 13 -1 0
BITMAP
002FFFD000
003EAFC000
007C07C000
0078078000
00B40B8000
00B40BFF90
00F00FAAF8
01E00F003D
01E01E002D
03D01E003D
0BC02D00BC
BF402FABF4
B9003FFF80
ENDCHAR
STARTCHAR uni045A
ENCODING 1114
SWIDTH 840 0
DWIDTH 20 0
BBX 19 13 0 0
BITMAP
07800B8000
0B800B4000
0B400F4000
0F400F0000
0F001F0000
1FFFFFFE80
1FAABFAFF0
2E002D00B8
2D003D0078
3D003C00B8
3C007C01F4
7C007EAFE0
7800BFFE40
ENDCHAR
STARTCHAR uni045B
ENCODING 1115
SWIDTH 554 0
DWIDTH 13 0
BBX 12 18 0 0
BITMAP
02E000
02D000
2FFF80
2BEA40
078000
079BE0
0BBFFC
0BD03D
0F402D
0F002D
1E002D
2E003C
2D003C
3D0078
3C0078
7C00B4
7800B4
B800F0
ENDCHAR
STARTCHAR uni045C
ENCODING 1116
SWIDTH 528 0
DWIDTH 13 0
BBX 13 18 0 0
BITMAP
0000BC00
0002E000
00078000
00000000
00000000
07801F80
0B807D00
0B41F400
0F47D000
0F1F4000
1FFD0000
1FFD0000
2E1F0000
2D0F8000
3D07C000
3C02E000
7C01F400
7800B800
ENDCHAR
STARTCHAR uni045D
ENCODING 1117
SWIDTH 564 0
DWIDTH 14 0
BBX 13 18 0 0
BITMAP
002E0000
000B4000
00028000
00000000
00000000
07800F80
0B802F40
0B407F40
0F41FF00
0F03EF00
1F0B9E00
1E2E2E00
2E7C2D00
2EF43D00
3FD03C00
3F807C00
7F007800
7D00B800
ENDCHAR
STARTCHAR uni045E
ENCODING 1118
SWIDTH 463 0
DWIDTH 11 0
BBX 13 22 -1 -5
BITMAP
002C0E00
001E6D00
0007F400
00000000
0B800B80
07801F00
07C02E00
03C07C00
03C0B400
02D1F000
02D2D000
01E3C000
01EB4000
00FF0000
00FD0000
00BC0000
00B40000
00F00000
02D00000
07C00000
FF400000
F9000000
ENDCHAR
STARTCHAR uni045F
ENCODING 1119
SWIDTH 564 0
DWIDTH 14 0
BBX 13 17 0 -4
BITMAP
07800B80
0B800B40
0B400F40
0F400F00
0F001F00
1F001E00
1E002E00
2E002D00
2D003D00
3D003C00
3C007C00
7EAAF800
7FFFF800
00B80000
00B40000
00F00000
00F00000
ENDCHAR
STARTCHAR uni0460
ENCODING 1120
SWIDTH 857 0
DWIDTH 21 0
BBX 20 17 1 0
BITMAP
07800F402E
0B801F002D
0B401F003D
0F402E003C
0F002E007C
1F003D00B8
1E003C00B8
2E007C00F4
3D007800F4
3D00B801F0
7C00B401F0
7C00F402E0
7801F402D0
7802F403D0
7D07F80B80
2FFF7FFF00
0BF80BF800
ENDCHAR
STARTCHAR uni0461
ENCODING 1121
SWIDTH 752 0
DWIDTH 18 0
BBX 17 13 1 0
BITMAP
2E00F00B80
2D01F00B40
3D01E00F40
3C02E00F00
7C02D01F00
7803D01E00
B803C02E00
B407C02D00
F407803D00
F40B807C00
B81FC0B800
7FFEFBE000
1BE0BF8000
ENDCHAR
STARTCHAR uni0462
ENCODING 1122
SWIDTH 613 0
DWIDTH 15 0
BBX 14 17 0 0
BITMAP
02E00000
02D00000
7FFF0000
6BEA0000
07C00000
07800000
0B800000
0BFFF800
0FFFFF40
0F000BC0
1F0003D0
1E0003D0
2E0003D0
2D000BC0
3D002F40
3FFBFD00
7FFFE400
ENDCHAR
STARTCHAR uni0463
ENCODING 1123
SWIDTH 530 0
DWIDTH 13 0
BBX 11 18 0 0
BITMAP
01E000
02E000
02D000
03D000
7FFF80
6BEA40
078000
0B4000
0B4000
0FFF90
0FABF4
1E00BC
1E003C
2D003C
2D007C
3C01F8
7EAFE0
7FFE40
ENDCHAR
STARTCHAR uni0464
ENCODING 1124
SWIDTH 874 0
DWIDTH 21 0
BBX 19 17 1 0
BITMAP
07C006FE40
07802FFFE0
0B80BD01F4
0B42F000B8
0F43D0007C
0F0B800028
1F0F400000
1FFFFFF400
2FAFAAA000
3D1F000000
3C1E000000
7C1E0001A0
781F0002E0
B80F4007D0
B407D01F40
F402FFFD00
F0006FE400
ENDCHAR
STARTCHAR uni0465
ENCODING 1125
SWIDTH 728 0
DWIDTH 17 0
BBX 17 13 0 0
BITMAP
07801BE400
0B80BFBE00
0B42E00F40
0F47C00780
0F0F400000
1FFFFFC000
1FAFAA8000
2D1F000000
2D0F000400
3D0F402E00
3C0B807C00
7C02FBF400
7800BF8000
ENDCHAR
STARTCHAR uni0466
ENCODING 1126
SWIDTH 589 0
DWIDTH 14 0
BBX 14 17 -1 0
BITMAP
00003C00
0000BD00
0001FD00
0002EE00
0007DE00
000B4F00
001F0F40
002D0B40
007C0B80
00F40780
01FFFFC0
03FFFFC0
07C7C3D0
0F4782D0
2E0B82E0
3D0B41E0
B80F41F0
ENDCHAR
STARTCHAR uni0467
ENCODING 1127
SWIDTH 522 0
DWIDTH 13 0
BBX 12 13 -1 0
BITMAP
0003C0
000BD0
001FE0
002EE0
007DF0
00F4F0
01F0B4
03D0B8
0BFFF8
1FBFBC
2E2D3D
7C3D2D
B43C1E
ENDCHAR
STARTCHAR uni0468
ENCODING 1128
SWIDTH 858 0
DWIDTH 21 0
BBX 18 17 1 0
BITMAP
03C0003D00
07C000BD00
078001FE00
0B8002EE00
0B4007DF00
0F400B4F00
0F001F0F40
1F002D0B40
1E007C0B80
2E00F40780
2FFFFFFFC0
3FFFFFFFC0
3C07C7C3D0
7C0F4782D0
B81E0B82E0
B83D0B41E0
F4B80F41F0
ENDCHAR
STARTCHAR uni0469
ENCODING 1129
SWIDTH 737 0
DWIDTH 18 0
BBX 15 13 1 0
BITMAP
0F400F00
0F002F40
1F003F80
1E00BB80
2E01F3C0
2D02D3D0
3D07C2D0
3C0B41E0
7FFFFFF0
7EBEFEF0
B878B8B4
B4F4B4B8
F2E0F078
ENDCHAR
STARTCHAR uni046A
ENCODING 1130
SWIDTH 831 0
DWIDTH 20 0
BBX 19 17 0 0
BITMAP
002FFFFFF4
001FFFFFD0
000F400B80
000B801F00
0007C07D00
0003D0B800
0002E2F000
0000F7D000
006FFFF900
07FFFFFF80
0F903C07D0
1F007C02E0
2D007802E0
3D00B802E0
3C00F402D0
7C00F003D0
7801F003C0
ENDCHAR
STARTCHAR uni046B
ENCODING 1131
SWIDTH 717 0
DWIDTH 17 0
BBX 15 13 0 0
BITMAP
00BFFFF8
007FABF0
003D03D0
001E0B80
000F1F00
000B7D00
01BFFF80
0BFBFFE0
1F42D1F4
2D03C0B4
3C07C0B8
7C0780B4
780B80F4
ENDCHAR
STARTCHAR uni046C
ENCODING 1132
SWIDTH 1098 0
DWIDTH 26 0
BBX 24 17 1 0
BITMAP
07C007FFFFFE
078003FFFFFC
0B8002E001F4
0B4001F003E0
0F4000F40B80
0F0000781F00
1F00003C3D00
1E00002DB800
2FFFFFFFFF80
3FAAFFFFFFF4
3D01F40B80B8
7C03D00F407C
7C07C00F003C
B80B801F007C
B80B401E0078
F40F402E00B8
F00F003D00B4
ENDCHAR
STARTCHAR uni046D
ENCODING 1133
SWIDTH 952 0
DWIDTH 23 0
BBX 21 13 0 0
BITMAP
07800FFFFF40
0B800BEABE00
0B4007C07C00
0F4002D0F400
0F0001E2E000
1F0000F78000
1FFFFFFFE400
2FAAFFBEFD00
2D02E07C1F00
3D03C0780F00
3C0780B80F00
7C0B40B40F00
780B40F01F00
ENDCHAR
STARTCHAR uni046E
ENCODING 1134
SWIDTH 506 0
DWIDTH 12 0
BBX 13 27 -1 -5
BITMAP
00074780
0002DE00
0000B800
00000000
00000000
00FFE400
00AAFD00
00001F00
00000B40
00000F40
00001F00
0001BD00
007FE000
006FE000
0000B800
00003C00
00003D00
00003C00
00007C00
0002F400
06AFD000
2FFE0000
7D000000
B4000000
78000000
2E000000
09000000
ENDCHAR
STARTCHAR uni046F
ENCODING 1135
SWIDTH 472 0
DWIDTH 11 0
BBX 12 23 -1 -5
BITMAP
00382D
001EB4
0007C0
000000
000000
02FF90
02ABF8
00007C
00003C
0001B8
00FFD0
00AFD0
0001F4
0000B4
0000F4
0002F0
06BFD0
2FFE00
7D0000
B40000
780000
2E0000
090000
ENDCHAR
STARTCHAR uni0470
ENCODING 1136
SWIDTH 675 0
DWIDTH 16 0
BBX 15 17 2 0
BITMAP
3C078078
7C0B80B8
780B40B4
B80F40F4
B40F00F0
F41F01F0
F01E01E0
F02E02D0
F42D07C0
B83D0F80
7E7D7E00
1FFFF800
06FE9000
00B80000
00B40000
00F40000
01F00000
ENDCHAR
STARTCHAR uni0471
ENCODING 1137
SWIDTH 684 0
DWIDTH 16 0
BBX 15 19 1 -6
BITMAP
2D03C0F0
3C03C0B4
3C0780B8
78078078
780B4078
B40F40B8
B40F00B4
B41F00F0
B81E02E0
7C2E07D0
3E2D2F40
1FFFFD00
02FFA000
003C0000
007C0000
00780000
00B80000
00B40000
00F40000
ENDCHAR
STARTCHAR uni0472
ENCODING 1138
SWIDTH 664 0
DWIDTH 16 0
BBX 14 17 1 0
BITMAP
001BF800
00FFFF40
03E40BC0
0B8002D0
1E0001E0
2D0001F0
3C0001F0
7FFFFFF0
BEAAABE0
B40002E0
B40003D0
B80007C0
78000F80
7D002F00
2F41BD00
0FFFF400
02FE4000
ENDCHAR
STARTCHAR uni0473
ENCODING 1139
SWIDTH 555 0
DWIDTH 13 0
BBX 12 13 1 0
BITMAP
01BF40
07FBE0
1F40B8
3C003C
B4003C
BFFFFD
FAAABC
F0007C
F000B8
B401F4
7D07E0
2FBF80
06F900
ENDCHAR
STARTCHAR uni0474
ENCODING 1140
SWIDTH 615 0
DWIDTH 15 0
BBX 14 17 2 0
BITMAP
F40001E0
B8000BE0
B8001F40
78002E00
7C007C00
3C00B800
3D00F000
2D02E000
2E03C000
1E0B8000
1E0F0000
0F2E0000
0F3C0000
0BB80000
0BF00000
07E00000
07C00000
ENDCHAR
STARTCHAR uni0475
ENCODING 1141
SWIDTH 491 0
DWIDTH 12 0
BBX 12 13 1 0
BITMAP
78006E
7800FD
3C02E0
3C03C0
2D0B80
2D0F00
1D1E00
1E3C00
0E7800
0EB000
0BE000
0BC000
078000
ENDCHAR
STARTCHAR uni0476
ENCODING 1142
SWIDTH 615 0
DWIDTH 15 0
BBX 14 21 2 0
BITMAP
1F9F0000
07DB8000
01E28000
00000000
F40001E0
B8000BE0
B8001F40
78002E00
7C007C00
3C00B800
3D00F000
2D02E000
2E03C000
1E0B8000
1E0F0000
0F2E0000
0F3C0000
0BB80000
0BF00000
07E00000
07C00000
ENDCHAR
STARTCHAR uni0477
ENCODING 1143
SWIDTH 491 0
DWIDTH 12 0
BBX 12 17 1 0
BITMAP
2E7D00
0F9F00
029A40
000000
78006E
7800FD
3C02E0
3C03C0
2D0B80
2D0F00
1D1E00
1E3C00
0E7800
0EB000
0BE000
0BC000
078000
ENDCHAR
STARTCHAR uni0478
ENCODING 1144
SWIDTH 1135 0
DWIDTH 27 0
BBX 27 22 1 -5
BITMAP
001BF900000000
00BFFF40000000
02F40BC0000000
0B8002E0000000
1F4001F0B800B8
2E0000F07C00F0
3D0000F03C02E0
7C0000F03C03C0
7C0001F02D0B80
780001E02D0F00
B80002E01E2E00
780003D01E3C00
7C000B800F7800
3D001F400FF000
2F407D000BE000
0BFFF4000BC000
01BF8000078000
000000000F0000
000000001E0000
000000007C0000
0000000BF40000
0000000B900000
ENDCHAR
STARTCHAR uni0479
ENCODING 1145
SWIDTH 1021 0
DWIDTH 25 0
BBX 24 18 1 -5
BITMAP
01BF401F001F
0BFBE00F003D
1F40F40F407C
3D007C0B40F4
B8003C0B81F0
B4003D0782D0
F0003C07C7C0
F0003C03CB40
F0007803DF00
B400F402FD00
7D07E002FC00
2FFF8001F400
06F90001F000
00000002D000
00000007C000
0000001F4000
000002FE0000
000002F40000
ENDCHAR
STARTCHAR uni047A
ENCODING 1146
SWIDTH 664 0
DWIDTH 16 0
BBX 14 21 1 -2
BITMAP
00005000
0001E000
001BF900
00FFFF40
03E6DBC0
0B8002D0
1F0001E0
3D0001F0
3C0001F0
780001F0
B80001E0
B80002E0
B40003D0
B40007C0
B8000B80
7C001F00
2E3DBD00
1FFFF400
02FF8000
00780000
00640000
ENDCHAR
STARTCHAR uni047B
ENCODING 1147
SWIDTH 554 0
DWIDTH 13 0
BBX 12 17 1 -2
BITMAP
000500
001F00
01BF80
07FFF0
1F6DB8
3D003C
78003D
B4002D
F4003D
F0003C
F00078
B400F4
79F2E0
2FFF80
0BF900
02E000
014000
ENDCHAR
STARTCHAR uni047C
ENCODING 1148
SWIDTH 854 0
DWIDTH 21 0
BBX 19 23 1 0
BITMAP
0000150000
00007FD000
0000E0BE40
0000D00B80
0000078000
0000074000
006C0F0740
02FC0907E0
07D00001F4
0F400000B8
1F000000B8
1E000000B4
2E000000F4
2D006800F0
3D00B801F0
3C00B401E0
7C00F402E0
7800F002D0
B801F003D0
7802F007C0
7D0BF81F80
2FFF7FFE00
0BF81BE400
ENDCHAR
STARTCHAR uni047D
ENCODING 1149
SWIDTH 749 0
DWIDTH 18 0
BBX 16 19 1 0
BITMAP
00005400
0003FE40
000B46E8
000A006C
00003C00
00003C00
02E0B4A4
0FD0A0BC
2E00002E
3D00001E
7C00001E
7800001E
B803C02D
B407C02D
B407803C
B40B807C
B81FD0B8
7FFEFBE0
1BE07F80
ENDCHAR
STARTCHAR uni047E
ENCODING 1150
SWIDTH 857 0
DWIDTH 21 0
BBX 20 21 1 0
BITMAP
0001555500
0003FFFF40
00000B4000
0000000000
07800F402E
0B801F002D
0B401F003D
0F402E003C
0F002E007C
1F003D00B8
1E003C00B8
2E007C00F4
3D007800F4
3D00B801F0
7C00B401F0
7C00F402E0
7801F402D0
7802F403D0
7D07F80B80
2FFF7FFF00
0BF80BF800
ENDCHAR
STARTCHAR uni047F
ENCODING 1151
SWIDTH 752 0
DWIDTH 18 0
BBX 17 19 1 0
BITMAP
0015555000
003FFFF400
0000740000
0000B40000
0000000000
0000000000
2E00F00B80
2D01F00B40
3D01E00F40
3C02E00F00
7C02D01F00
7803D01E00
B803C02E00
B407C02D00
F407803D00
F40B807C00
B81FC0B800
7FFEFBE000
1BE0BF8000
ENDCHAR
STARTCHAR uni0480
ENCODING 1152
SWIDTH 634 0
DWIDTH 15 0
BBX 14 21 1 -4
BITMAP
001BF800
00BFFF40
03E40BC0
0B8003D0
1F0002E0
2E000190
3D000000
7C000000
7C000000
78000000
B8000000
B8000000
78000000
7C000000
2E000000
0FE80000
02FC0000
00780000
00B80000
00F40000
00F00000
ENDCHAR
STARTCHAR uni0481
ENCODING 1153
SWIDTH 523 0
DWIDTH 13 0
BBX 11 17 1 -4
BITMAP
01BE40
07FBE0
1F41F4
3D00B4
780064
B40000
F40000
F00000
F00000
B40000
780000
2F9000
0BE000
02D000
03D000
03C000
078000
ENDCHAR
STARTCHAR uni0482
ENCODING 1154
SWIDTH 609 0
DWIDTH 15 0
BBX 13 16 1 0
BITMAP
00000780
00000F00
00242D00
007E7800
000BF000
0003F400
0007AE00
001E0B40
743D0000
7EB40000
0BE00000
03F80000
0B6E0000
1E070000
7C000000
F4000000
ENDCHAR
STARTCHAR uni0483
ENCODING 1155
SWIDTH 0 0
DWIDTH 0 0
BBX 9 5 -9 13
BITMAP
000640
555B40
FFFF00
E00000
500000
ENDCHAR
STARTCHAR uni0484
ENCODING 1156
SWIDTH 0 0
DWIDTH 0 0
BBX 9 3 -9 15
BITMAP
005500
6BFF40
B94380
ENDCHAR
STARTCHAR uni0485
ENCODING 1157
SWIDTH 0 0
DWIDTH 0 0
BBX 3 4 -6 15
BITMAP
B4
B4
34
24
ENDCHAR
STARTCHAR uni0486
ENCODING 1158
SWIDTH 0 0
DWIDTH 0 0
BBX 3 4 -5 15
BITMAP
7C
78
E0
80
ENDCHAR
STARTCHAR uni0488
ENCODING 1160
SWIDTH 0 0
DWIDTH 0 0
BBX 22 21 -17 -4
BITMAP
000007E00000
00000D340000
000004100000
01F800007E00
034D0000E240
010400004000
000000000000
000000000000
000000000000
7E0000001B80
D340000028A0
410000001000
000000000000
000000000000
000000000000
2F400007E000
75C0000D3400
004000041000
0001F4000000
00074D000000
000104000000
ENDCHAR
STARTCHAR uni0489
ENCODING 1161
SWIDTH 0 0
DWIDTH 0 0
BBX 21 22 -17 -5
BITMAP
000000900000
000001C00000
005002800000
007007401A00
00340001B900
00280001D000
001000000000
000000000000
000000000000
E50000002800
6E0000002F80
010000000140
000000000000
000000000000
000000000000
000000050000
02C0000E0000
1F80000B0000
280074070000
0000E0020000
0001D0000000
000280000000
ENDCHAR
STARTCHAR uni048A
ENCODING 1162
SWIDTH 736 0
DWIDTH 18 0
BBX 16 25 1 -4
BITMAP
000B03C0
00079B40
0001FD00
00000000
07C0007D
0B8001FC
0B8003FC
0F400BF8
0F002FB8
1F007DF4
1E01F4F0
2E03E1F0
2D0B81E0
3D2F02E0
3C7D02D0
7DF403D0
7FE003C0
BF8007C0
BF000780
FD000BA4
F4000BF8
000000B4
000001F0
000002D0
00000240
ENDCHAR
STARTCHAR uni048B
ENCODING 1163
SWIDTH 602 0
DWIDTH 14 0
BBX 13 21 0 -4
BITMAP
00381E00
002E7C00
000BE400
00000000
07800F80
0B802F40
0B407F40
0F41FF00
0F03EF00
1F0B9E00
1E2E2E00
2E7C2D00
2EF43D00
3FD03C00
3F807C00
7F007E40
7D00BF80
00000B40
00000F00
00002D00
00002800
ENDCHAR
STARTCHAR uni048C
ENCODING 1164
SWIDTH 613 0
DWIDTH 15 0
BBX 14 17 0 0
BITMAP
02E00000
02D00000
7FFF0000
6BEA0000
07C00000
07800000
0B800000
0BFFF800
0FFFFF40
0F000BC0
1F0003D0
1E0003D0
2E0003D0
2D000BC0
3D002F40
3FFBFD00
7FFFE400
ENDCHAR
STARTCHAR uni048D
ENCODING 1165
SWIDTH 530 0
DWIDTH 13 0
BBX 11 20 0 0
BITMAP
005000
01F000
01E000
2FFFD0
2BFA80
03D000
03C000
078000
078000
0B4000
0B4000
0FFF90
0FABF4
1E00BC
2E003C
2D003C
3D007C
3C01F8
7EAFE0
7FFE40
ENDCHAR
STARTCHAR uni048E
ENCODING 1166
SWIDTH 624 0
DWIDTH 15 0
BBX 15 17 0 0
BITMAP
01FFFE40
02FFFFE0
02D002F4
03D000B8
03C000B8
07C004B4
07802EF4
0B401FE0
0FFFFFC0
0FFFA9E0
1F000090
1E000000
2E000000
2D000000
3D000000
3C000000
7C000000
ENDCHAR
STARTCHAR uni048F
ENCODING 1167
SWIDTH 554 0
DWIDTH 13 0
BBX 13 18 -1 -5
BITMAP
02D6F800
02EFFF00
03F41F40
03D00B80
07C007C0
078007C0
0B8007C0
0B400B80
0F404F40
0F01FF00
1F80FD00
1FFBFC00
2E6FAE00
2D000800
3D000000
3C000000
7C000000
78000000
ENDCHAR
STARTCHAR uni0490
ENCODING 1168
SWIDTH 536 0
DWIDTH 13 0
BBX 15 21 0 0
BITMAP
000000B4
000000F4
000000F0
000001F0
02FFFFE0
02FFFFE0
03D00000
03C00000
07C00000
07800000
0B800000
0B400000
0F400000
0F000000
1F000000
1E000000
2E000000
2D000000
3D000000
3C000000
7C000000
ENDCHAR
STARTCHAR uni0491
ENCODING 1169
SWIDTH 437 0
DWIDTH 10 0
BBX 11 16 0 0
BITMAP
00003C
000078
0000B8
07FFF4
0BEAA4
0B4000
0F0000
0F0000
1E0000
1E0000
2D0000
2D0000
3C0000
3C0000
780000
780000
ENDCHAR
STARTCHAR uni0492
ENCODING 1170
SWIDTH 544 0
DWIDTH 13 0
BBX 14 17 0 0
BITMAP
01FFFFF0
02FFFFE0
02E00000
03D00000
03C00000
07C00000
07800000
BFFE0000
AFE90000
0F400000
0F000000
1F000000
1E000000
2E000000
2D000000
3D000000
3C000000
ENDCHAR
STARTCHAR uni0493
ENCODING 1171
SWIDTH 411 0
DWIDTH 10 0
BBX 12 13 -1 0
BITMAP
01FFFD
02FAA9
02D000
03D000
03C000
3FFF00
6FEA00
0B8000
0B4000
0F4000
0F0000
1F0000
1E0000
ENDCHAR
STARTCHAR uni0494
ENCODING 1172
SWIDTH 593 0
DWIDTH 14 0
BBX 13 20 1 -3
BITMAP
07FFFFC0
0BFFFF80
0B800000
0F400000
0F000000
1F000000
1E000000
2FFE4000
2FFFE000
3D01F800
3C007C00
7C003D00
78002D00
B8002D00
B4003D00
F4007C00
F000B800
0002F000
002FD000
00390000
ENDCHAR
STARTCHAR uni0495
ENCODING 1173
SWIDTH 492 0
DWIDTH 12 0
BBX 11 16 0 -3
BITMAP
07FFF4
0BEAA0
0B4000
0F0000
0F0000
1FF900
1FFF80
2D07D0
2D01F0
3C00F0
3C00F0
7801E0
7803D0
001B80
007E00
006400
ENDCHAR
STARTCHAR uni0496
ENCODING 1174
SWIDTH 930 0
DWIDTH 22 0
BBX 23 21 -1 -4
BITMAP
01F400B400BC
00B800F402F0
007C00F007D0
002E01F01F40
001F01E03E00
000B42E0B800
0007C3D2E000
0003FFFFC000
000BFFFFC000
001F4783D000
003E0B82F000
00BC0B41F400
02F40F40B800
07E00F007D00
0F801F003E00
2F001E002FF0
BD002E000FE0
0000000002E0
0000000002D0
0000000003C0
0000000003C0
ENDCHAR
STARTCHAR uni0497
ENCODING 1175
SWIDTH 778 0
DWIDTH 19 0
BBX 19 17 -1 -4
BITMAP
03D01E00F8
02E01E02E0
00F42D0BC0
00B83D1F40
003C3C7D00
002FFFF400
003FFFF400
00B8B8B800
02F0B43C00
07D0F42E00
0F80F01F00
3E01F00FF4
BC01E00BF0
00000001E0
00000001E0
00000002D0
00000002D0
ENDCHAR
STARTCHAR uni0498
ENCODING 1176
SWIDTH 580 0
DWIDTH 14 0
BBX 14 22 0 -5
BITMAP
001BF900
00FFFF80
03E407D0
07C002E0
0A4002E0
000003D0
00001F80
002FF900
002FFD00
00002F00
00000F40
00000B40
78000F40
7C001F00
3E00BD00
1FFFF800
02FE8000
00780000
00B40000
00B40000
00F00000
00F00000
ENDCHAR
STARTCHAR uni0499
ENCODING 1177
SWIDTH 497 0
DWIDTH 12 0
BBX 11 18 0 -5
BITMAP
00BF90
07FBF4
0F80B8
1A0078
0001F4
00FFD0
01FFD0
0001F0
0000F0
B801F0
7D02E0
2FAFC0
07F900
01E000
02D000
02D000
03C000
03C000
ENDCHAR
STARTCHAR uni049A
ENCODING 1178
SWIDTH 684 0
DWIDTH 16 0
BBX 15 21 1 -4
BITMAP
07C001F8
078007E0
0B401F80
0F407E00
0F01F800
1F07E000
1E1F8000
2FFE0000
2FFE0000
3D1F4000
3C0BC000
7C03D000
7802F000
B800F800
B4007C00
F4002FD0
F0001FC0
000003C0
00000780
00000780
00000B40
ENDCHAR
STARTCHAR uni049B
ENCODING 1179
SWIDTH 577 0
DWIDTH 14 0
BBX 13 17 0 -4
BITMAP
07801F80
0B807D00
0B41F400
0F47D000
0F1F4000
1FFD0000
1FFD0000
2E1F0000
2D0F8000
3D07C000
3C02E000
7C01FF00
7800BF00
00001E00
00002E00
00002D00
00003D00
ENDCHAR
STARTCHAR uni049C
ENCODING 1180
SWIDTH 615 0
DWIDTH 15 0
BBX 16 17 0 0
BITMAP
01E0007D
02E000F8
03D002E0
03C007C0
07CE0F40
078E2E00
0B9D7800
0BFFF000
0FFFF000
0F2CB400
1F387C00
1E243D00
2E002E00
2D002F00
3D001F40
3C000F80
7C000BC0
ENDCHAR
STARTCHAR uni049D
ENCODING 1181
SWIDTH 549 0
DWIDTH 13 0
BBX 14 13 0 0
BITMAP
078007D0
0B801F40
0B583E00
0F6CB800
0F39E000
1FFFC000
1FFFC000
2E76D000
2DB1F000
3D10F400
3C00B800
7C007C00
78003E00
ENDCHAR
STARTCHAR uni049E
ENCODING 1182
SWIDTH 638 0
DWIDTH 15 0
BBX 15 17 1 0
BITMAP
03C000FC
07C003F0
07800FC0
FFFD3F00
AFE9FC00
0F43F000
0F0FC000
1FFF0000
1FFF0000
2D0F8000
2D07C000
3C03E000
3C01F400
7800B800
B8003D00
B4002F00
F4000F80
ENDCHAR
STARTCHAR uni049F
ENCODING 1183
SWIDTH 508 0
DWIDTH 12 0
BBX 13 18 0 0
BITMAP
01F00000
01E00000
7FFF0000
6BEA0000
03C00000
03C02F40
07807D00
0B81F400
0B47D000
0F4F4000
0FFE0000
1FBD0000
1E1F0000
2E0B8000
2D07C000
3D02E000
3C01F000
7C00B800
ENDCHAR
STARTCHAR uni04A0
ENCODING 1184
SWIDTH 798 0
DWIDTH 19 0
BBX 18 17 2 0
BITMAP
BFFF0003E0
AABE000F80
002E003E00
002D00F800
003D03E000
003C0F8000
007C3E0000
007FFC0000
00BFFC0000
00B43D0000
00F42F0000
00F00F8000
01F007D000
01E002E000
02E001F400
02D000BC00
03D0003D00
ENDCHAR
STARTCHAR uni04A1
ENCODING 1185
SWIDTH 673 0
DWIDTH 16 0
BBX 16 13 1 0
BITMAP
7FFD00BD
6ABD02F4
003C0BC0
00782F00
0078BC00
00BFF000
00BFF000
00F0B800
00F07C00
01E02E00
01E01F40
02E00B80
02D003D0
ENDCHAR
STARTCHAR uni04A2
ENCODING 1186
SWIDTH 731 0
DWIDTH 18 0
BBX 17 21 0 -4
BITMAP
01E0000F40
02E0000F00
02D0001F00
03D0001E00
03C0002E00
07C0002D00
0780003D00
0BFFFFFC00
0BFFFFFC00
0F0000B800
1F0000B800
1E0000F400
2E0000F400
2D0001F000
3D0001F000
3C0002FD00
7C0002FD00
0000003C00
0000003C00
0000007800
000000B800
ENDCHAR
STARTCHAR uni04A3
ENCODING 1187
SWIDTH 592 0
DWIDTH 14 0
BBX 13 17 0 -4
BITMAP
07800B80
0B800B40
0B400F40
0F400F00
0F001F00
1FFFFE00
1FAABE00
2E003D00
2D003D00
3D003C00
3C007C00
7C007F80
7800BF40
00000F00
00000F00
00001E00
00001E00
ENDCHAR
STARTCHAR uni04A4
ENCODING 1188
SWIDTH 951 0
DWIDTH 23 0
BBX 24 17 0 0
BITMAP
01E0000FFFFE
02E0000FAAA9
02D0001F0000
03D0001E0000
03C0002E0000
07C0002D0000
0780003D0000
0BFFFFFC0000
0FFFFFFC0000
0F0000B80000
1F0000B80000
1E0000F40000
2E0000F40000
2D0001F00000
3D0001F00000
3C0002E00000
7C0002E00000
ENDCHAR
STARTCHAR uni04A5
ENCODING 1189
SWIDTH 696 0
DWIDTH 17 0
BBX 17 13 0 0
BITMAP
07800BFF80
0B400FEA40
0B400F0000
0F001F0000
0F001E0000
1FFFFE0000
1FAABD0000
2D003D0000
2D003C0000
3C007C0000
3C00780000
7800B80000
7800B40000
ENDCHAR
STARTCHAR uni04A6
ENCODING 1190
SWIDTH 998 0
DWIDTH 24 0
BBX 21 20 1 -3
BITMAP
07FFFFFD0000
0BFFFFFC0000
0B40007C0000
0F4000B80000
0F0000B40000
1F0000F40000
1E0000F00000
2E0001FFE000
2D0001FFFD00
3D0002E02F40
3C0002D00B80
7C0003D007C0
780003C003C0
B80007C003C0
B400078007C0
F4000B800B80
F0000B400F40
000000007E00
00000006F800
000000079000
ENDCHAR
STARTCHAR uni04A7
ENCODING 1191
SWIDTH 848 0
DWIDTH 20 0
BBX 19 16 0 -3
BITMAP
07FFFF4000
0BEAAF4000
0B400F0000
0F001F0000
0F001E0000
1E002FFE00
1E002FFFD0
2D003D02F0
2D003C00F4
3C007C00B8
3C007800B8
7800B800B4
7800B401F0
00000007D0
0000003F40
0000002900
ENDCHAR
STARTCHAR uni04A8
ENCODING 1192
SWIDTH 723 0
DWIDTH 17 0
BBX 16 17 1 0
BITMAP
006D1BE0
02FC7FFC
07D0F42E
0F42E01E
1E03C01F
3D07C01F
3C0B801F
7C0B802E
780F402E
B80F403D
B80F407C
B80B80B8
7C07C1F0
3D03EBD0
1F41FF40
0BFFFFF4
01BF96F4
ENDCHAR
STARTCHAR uni04A9
ENCODING 1193
SWIDTH 589 0
DWIDTH 14 0
BBX 12 13 1 0
BITMAP
02D2F8
0FCFFD
2E1E1E
3C3D0F
783C0F
B47C1F
B4781E
B4782E
B43C3C
782EB8
3D1FF0
1FFFFD
06F969
ENDCHAR
STARTCHAR uni04AA
ENCODING 1194
SWIDTH 636 0
DWIDTH 15 0
BBX 14 22 1 -5
BITMAP
001BF900
00BFFF40
03E40BC0
0B8002E0
1F0001E0
2E0001A0
3D000000
7C000000
78000000
B8000000
B8000000
B8000540
78000B40
3D001F00
2E40BD00
0BFFF400
01FF8000
00B80000
00B40000
00F00000
00F00000
01E00000
ENDCHAR
STARTCHAR uni04AB
ENCODING 1195
SWIDTH 512 0
DWIDTH 12 0
BBX 11 18 1 -5
BITMAP
01BE40
0BFFE0
2F41F4
3D0078
B80064
B40000
F00000
F00000
F00050
B401E0
7C07D0
2FBF40
07F900
07C000
078000
0B8000
0B4000
0F4000
ENDCHAR
STARTCHAR uni04AC
ENCODING 1196
SWIDTH 583 0
DWIDTH 14 0
BBX 13 21 2 -4
BITMAP
BFFFFFC0
BFFFFF80
003D0000
003D0000
007C0000
007C0000
00B80000
00B40000
00F40000
00F00000
01F00000
01E00000
02E00000
02D00000
03D00000
03FC0000
07F80000
00B40000
00B40000
00F00000
00F00000
ENDCHAR
STARTCHAR uni04AD
ENCODING 1197
SWIDTH 470 0
DWIDTH 11 0
BBX 11 17 1 -4
BITMAP
BFFFF8
AAFAA4
00F400
00F000
01E000
01E000
02D000
02D000
03C000
03C000
078000
07F400
0BF400
00F000
01F000
01E000
02E000
ENDCHAR
STARTCHAR uni04AE
ENCODING 1198
SWIDTH 587 0
DWIDTH 14 0
BBX 14 17 2 0
BITMAP
F80007D0
7C000F80
3D002E00
2E007C00
1F00F400
0F02E000
0B47C000
079F4000
03FE0000
02F80000
01F40000
01E00000
02E00000
02D00000
03D00000
03C00000
07C00000
ENDCHAR
STARTCHAR uni04AF
ENCODING 1199
SWIDTH 490 0
DWIDTH 12 0
BBX 11 18 1 -5
BITMAP
78007C
7C00B8
3C01F0
2D02D0
2D07C0
1E0B40
1E1F00
0F2D00
0F7C00
0BF400
0BF000
07D000
07C000
078000
0B4000
0B4000
0F0000
0F0000
ENDCHAR
STARTCHAR uni04B0
ENCODING 1200
SWIDTH 587 0
DWIDTH 14 0
BBX 14 17 2 0
BITMAP
F80007D0
7C000F80
3D002E00
2E007C00
1F00F400
0F02E000
0B47C000
079F4000
03FD0000
2FFF8000
2BFA4000
01E00000
02E00000
02D00000
03D00000
03C00000
07C00000
ENDCHAR
STARTCHAR uni04B1
ENCODING 1201
SWIDTH 490 0
DWIDTH 12 0
BBX 11 18 1 -5
BITMAP
78007C
7C00B8
3C01F0
2D02D0
2D07C0
1E0B40
1E1F00
0F2D00
0F7C00
0BF400
0BE000
AFF900
BFFD00
078000
0B4000
0B4000
0F0000
0F0000
ENDCHAR
STARTCHAR uni04B2
ENCODING 1202
SWIDTH 622 0
DWIDTH 15 0
BBX 16 21 -1 -4
BITMAP
01F0002F
00F8007D
007C01F8
003D03E0
002F0BC0
000F5F40
000BFD00
0003F800
0003F000
000BF400
001FB800
007D3D00
00F82E00
02F01F40
0BD00B80
1F4007F4
7E0003F4
000000F0
000000F0
000001E0
000002E0
ENDCHAR
STARTCHAR uni04B3
ENCODING 1203
SWIDTH 509 0
DWIDTH 12 0
BBX 13 17 -1 -4
BITMAP
07C00F40
02D02E00
01F0BC00
00B5F400
007BD000
003F8000
002F0000
007F4000
01FB8000
03D3D000
0B82E000
2F00FE00
7D00BE00
00002D00
00003D00
00003C00
00007C00
ENDCHAR
STARTCHAR uni04B4
ENCODING 1204
SWIDTH 874 0
DWIDTH 21 0
BBX 17 21 2 -4
BITMAP
BFFFFC03C0
AAFEA807C0
00F4000780
00F4000B80
01F0000F40
01F0000F40
02E0001F00
02D0001F00
03D0002E00
03C0002E00
07C0003D00
0780003C00
0B80007C00
0B40007800
0F4000B800
0FFFFFFF00
1FFFFFFF00
0000001E00
0000002E00
0000002D00
0000003C00
ENDCHAR
STARTCHAR uni04B5
ENCODING 1205
SWIDTH 654 0
DWIDTH 16 0
BBX 14 17 1 -4
BITMAP
BFFF43D0
ABEA03C0
03C007C0
03C00780
07800B80
07800B40
0B400F40
0F400F00
0F001F00
1F001E00
1E002E00
2FAABF80
2FFFFF80
00000B40
00000B40
00000F00
00000F00
ENDCHAR
STARTCHAR uni04B6
ENCODING 1206
SWIDTH 700 0
DWIDTH 17 0
BBX 14 21 2 -4
BITMAP
2E0002E0
2E0002E0
3D0003D0
3C0003D0
7C0007C0
7C0007C0
7C000B80
3E005F40
1FFFFF40
06BA9F00
00001F00
00001E00
00002E00
00002D00
00003D00
00003F80
00007F80
00000B40
00000F40
00000F00
00001F00
ENDCHAR
STARTCHAR uni04B7
ENCODING 1207
SWIDTH 561 0
DWIDTH 13 0
BBX 11 17 1 -4
BITMAP
2D007C
3C0078
3C00B8
7800F4
7C00F4
3D01F0
2FFFF0
06AAE0
0002E0
0002D0
0003D0
0003F8
0007F8
0000B4
0000F4
0000F0
0001F0
ENDCHAR
STARTCHAR uni04B8
ENCODING 1208
SWIDTH 663 0
DWIDTH 16 0
BBX 14 17 2 0
BITMAP
2E0002E0
2D0003D0
3D0003D0
7C0007C0
7C0A07C0
780E0B80
7C1D0B80
3E1D5F40
1FFFFF40
06BEAF00
00381F00
00382E00
00242D00
00003D00
00003C00
00007C00
00007800
ENDCHAR
STARTCHAR uni04B9
ENCODING 1209
SWIDTH 540 0
DWIDTH 13 0
BBX 11 13 2 0
BITMAP
B800F4
B400F0
F451F0
F0E2E0
F1E2E0
B9D7D0
7FFFD0
0BEBC0
02C7C0
014780
000B80
000B40
000F40
ENDCHAR
STARTCHAR uni04BA
ENCODING 1210
SWIDTH 663 0
DWIDTH 16 0
BBX 14 17 0 0
BITMAP
02D00000
03D00000
03C00000
07800000
07800000
0B400000
0FAFF900
0FFFFF40
1F500BC0
1E0003D0
2E0002D0
2D0002D0
3D0003D0
3C0003C0
7C0007C0
78000780
B8000B80
ENDCHAR
STARTCHAR uni04BB
ENCODING 1211
SWIDTH 539 0
DWIDTH 13 0
BBX 12 18 0 0
BITMAP
02E000
02D000
03C000
03C000
078000
079BE0
0BBFFC
0BD03D
0F402D
0F002D
1E002D
2E003C
2D003C
3D0078
3C0078
7C00B4
7800B4
B800F0
ENDCHAR
STARTCHAR uni04BC
ENCODING 1212
SWIDTH 754 0
DWIDTH 18 0
BBX 17 17 1 0
BITMAP
00006F9000
0007FFF800
000F807E00
002E001F00
747C000F40
38B8000B40
3DF4000F40
1FFFFFFF00
02FAAAAA00
02E0000000
02E0000000
02E0000000
01F0000000
00F4000000
00BD005000
002FFFE000
0006FE8000
ENDCHAR
STARTCHAR uni04BD
ENCODING 1213
SWIDTH 579 0
DWIDTH 14 0
BBX 13 13 0 0
BITMAP
000BF800
007FBE00
51F40B40
B3D00780
BB800780
3FFFFF80
0BEAAA40
0B400000
0B400000
0B800400
03D02E00
01FEFC00
006F9000
ENDCHAR
STARTCHAR uni04BE
ENCODING 1214
SWIDTH 754 0
DWIDTH 18 0
BBX 17 22 1 -5
BITMAP
00006F9000
0007FFF800
000F807E00
002E001F00
747C000F40
38B8000B40
3DF4000F40
1FFFFFFF00
02FAAAAA00
02E0000000
02E0000000
02E0000000
01F0000000
00F4000000
00BD005000
002FFFE000
0007FE8000
0001E00000
0002E00000
0002D00000
0003D00000
0003C00000
ENDCHAR
STARTCHAR uni04BF
ENCODING 1215
SWIDTH 579 0
DWIDTH 14 0
BBX 13 18 0 -5
BITMAP
000BF800
007FBE00
51F40B40
B3D00780
BB800780
3FFFFF80
0BEAAA40
0B400000
0B400000
0B800400
03D02E00
01FEFC00
007FD000
001E0000
001E0000
002D0000
002D0000
003C0000
ENDCHAR
STARTCHAR uni04C0
ENCODING 1216
SWIDTH 268 0
DWIDTH 6 0
BBX 5 17 1 0
BITMAP
07C0
0780
0B80
0B40
0F40
0F00
1F00
1E00
2E00
3D00
3D00
7C00
7800
B800
B400
F400
F000
ENDCHAR
STARTCHAR uni04C1
ENCODING 1217
SWIDTH 885 0
DWIDTH 21 0
BBX 23 21 -1 0
BITMAP
00000741D000
000003DB8000
000001BE0000
000000000000
01F400B400BC
00B800F402F0
007C00F007D0
002E01F01F40
001F01E03E00
000B42E0B800
0007C3D2E000
0003FFFFC000
000BFFFFC000
001F4783D000
003E0B82F000
00BC0B41F400
02F40F40B800
07E00F007D00
0F801F003E00
2F001E002F00
BD002E000F40
ENDCHAR
STARTCHAR uni04C2
ENCODING 1218
SWIDTH 747 0
DWIDTH 18 0
BBX 19 17 -1 0
BITMAP
0000B03800
000079B400
00001FD000
0000000000
03D01E00F8
02E01E02E0
00F42D0BC0
00B83D1F40
003C3C7D00
002FFFF400
003FFFF400
00B8B8B800
02F0B43C00
07D0F42E00
0F80F01F00
3E01F00F80
BC01E00BC0
ENDCHAR
STARTCHAR uni04C3
ENCODING 1219
SWIDTH 615 0
DWIDTH 15 0
BBX 16 21 0 -4
BITMAP
01E0007D
02E001F4
03D007D0
03C02F40
07C0BD00
0782F400
0B8BD000
0BFFE400
0FFFFD00
0F006F40
1F000B80
1E0007C0
2E0003D0
2D0003D0
3D0003C0
3C0007C0
7C000B80
00000F40
00007E00
0003F800
00079000
ENDCHAR
STARTCHAR uni04C4
ENCODING 1220
SWIDTH 532 0
DWIDTH 13 0
BBX 13 16 0 -3
BITMAP
07801F40
0B807D00
0B41F400
0F4BD000
0F2F0000
1FFE4000
1FFFE000
2E01F400
2D007800
3D003C00
3C007C00
7C007800
7800F400
0007E000
001F8000
00190000
ENDCHAR
STARTCHAR uni04C5
ENCODING 1221
SWIDTH 731 0
DWIDTH 18 0
BBX 17 21 -1 -4
BITMAP
0003FFFFC0
0007FFFFC0
000B800780
000B400B80
000F400B40
001F000F40
001E000F00
002E001F00
002D001E00
003C002E00
007C003D00
0078003D00
00B4007C00
01F0007C00
07D000B800
7F8000BA40
B90000FF40
0000000F00
0000001E00
0000003D00
0000002400
ENDCHAR
STARTCHAR uni04C6
ENCODING 1222
SWIDTH 603 0
DWIDTH 14 0
BBX 14 17 -1 -4
BITMAP
002FFFE0
003EABD0
003C03D0
007803C0
00B407C0
00B40780
00F00B80
00F00B40
01E00F40
02D00F00
0BC01F00
7F401F90
B9002FE0
000002D0
000003C0
00000B40
00000A00
ENDCHAR
STARTCHAR uni04C7
ENCODING 1223
SWIDTH 695 0
DWIDTH 17 0
BBX 16 22 1 -5
BITMAP
07C0003D
0B80007C
0B40007C
0F4000B8
0F0000B8
1F0000F4
1E0001F0
2FFFFFF0
2FFFFFE0
3D0002E0
3C0003D0
7C0003D0
780003C0
B80007C0
B4000780
F4000B80
F0000B40
00000F40
00001F00
00002E00
0007FC00
0007E400
ENDCHAR
STARTCHAR uni04C8
ENCODING 1224
SWIDTH 554 0
DWIDTH 13 0
BBX 13 18 0 -5
BITMAP
07800B40
0B400F40
0B400F00
0F001F00
0F001E00
1FFFFE00
1FAABD00
2D003D00
2D003C00
3C007C00
3C007800
7800B800
7800B400
0000F400
0000F000
0002E000
007FC000
007E4000
ENDCHAR
STARTCHAR uni04C9
ENCODING 1225
SWIDTH 740 0
DWIDTH 18 0
BBX 17 21 0 -4
BITMAP
01E0000F40
02E0000F00
02D0001F00
03D0001E00
03C0002E00
07C0002D00
0780003D00
0BFFFFFC00
0BFFFFFC00
0F0000B800
1F0000B800
1E0000F400
2E0000F400
2D0001F000
3D0001F000
3C0002F900
7C0002FE00
0000002D00
0000003C00
000000B400
0000009000
ENDCHAR
STARTCHAR uni04CA
ENCODING 1226
SWIDTH 601 0
DWIDTH 14 0
BBX 13 17 0 -4
BITMAP
07800B80
0B800B40
0B400F40
0F400F00
0F001F00
1FFFFE00
1FAABE00
2E003D00
2D003D00
3D003C00
3C007C00
7C007E40
7800BF80
00000B40
00000F00
00002D00
00002800
ENDCHAR
STARTCHAR uni04CB
ENCODING 1227
SWIDTH 668 0
DWIDTH 16 0
BBX 14 21 2 -4
BITMAP
2E0002E0
2E0002E0
3D0003D0
3C0003D0
7C0007C0
7C0007C0
7C000B80
3E005F40
1FFFFF40
06BA9F00
00001F00
00001E00
00002E00
00002D00
00003D00
0003FC00
0007FC00
00078000
000B4000
000B4000
000F0000
ENDCHAR
STARTCHAR uni04CC
ENCODING 1228
SWIDTH 532 0
DWIDTH 13 0
BBX 11 17 1 -4
BITMAP
2D007C
3C0078
3C00B8
7800F4
7C00F4
3D01F0
2FFFF0
06AAE0
0002E0
0002D0
0003D0
003FC0
007FC0
007800
00B400
00B400
00F000
ENDCHAR
STARTCHAR uni04CD
ENCODING 1229
SWIDTH 891 0
DWIDTH 21 0
BBX 20 21 0 -4
BITMAP
01F800003F
02F80000BF
02FC0001FE
03FD0002FE
03ED0007ED
079E000F7D
079F001E3C
0B4F003D7C
0B4B40B878
0F4B40F0B4
1F0782E0F4
1F03C7C0F0
2E03CB41F0
2E02EE01E0
3D01FD02E0
3C01F802F9
7C00F003FD
000000003C
00000000B8
00000001F0
0000000190
ENDCHAR
STARTCHAR uni04CE
ENCODING 1230
SWIDTH 761 0
DWIDTH 18 0
BBX 17 17 0 -4
BITMAP
07E0002F40
07E0003F40
0BF000BF00
0BF401FF00
0F7803EE00
1F3807AE00
1E3C0F2D00
2E2D2D3D00
2D1E7C3C00
3D0EB47C00
3C0FE07800
7C0BC0BA40
780780BF40
0000000F40
0000001F00
0000003D00
0000002400
ENDCHAR
STARTCHAR uni04CF
ENCODING 1231
SWIDTH 268 0
DWIDTH 6 0
BBX 5 17 1 0
BITMAP
07C0
0780
0B80
0B40
0F40
0F00
1F00
1E00
2E00
3D00
3D00
7C00
7800
B800
B400
F400
F000
ENDCHAR
STARTCHAR uni04D0
ENCODING 1232
SWIDTH 637 0
DWIDTH 15 0
BBX 15 21 -1 0
BITMAP
0001D074
0000F6F0
00006F80
00000000
00003D00
00007E00
0000FE00
0002EF00
0003CB00
000B8B40
001F0780
002E0780
007C03C0
00F403C0
01F002D0
03FFFFE0
07FFFFE0
0F4001F0
2E0000F0
3D0000B4
B80000B8
ENDCHAR
STARTCHAR uni04D1
ENCODING 1233
SWIDTH 532 0
DWIDTH 13 0
BBX 12 17 0 0
BITMAP
00380E
002E7D
000BE4
000000
006F90
02FAF8
0B807C
0A003D
00003D
01BFFC
0BEABC
2E0078
3C00B8
7C00F4
7D07F4
2FFFF4
07F8F4
ENDCHAR
STARTCHAR uni04D2
ENCODING 1234
SWIDTH 637 0
DWIDTH 15 0
BBX 15 22 -1 0
BITMAP
00004050
0002E0F4
0002D0B4
00000000
00000000
00003D00
00007E00
0000FE00
0002EF00
0003CB00
000B8B40
001F0780
002E0780
007C03C0
00F403C0
01F002D0
03FFFFE0
07FFFFE0
0F4001F0
2E0000F0
3D0000B4
B80000B8
ENDCHAR
STARTCHAR uni04D3
ENCODING 1235
SWIDTH 532 0
DWIDTH 13 0
BBX 12 18 0 0
BITMAP
001405
007C2E
00781E
000000
000000
006F90
02FAF8
0B807C
0A003D
00003D
01BFFC
0BEABC
2E0078
3C00B8
7C00F4
7D07F4
2FFFF4
07F8F4
ENDCHAR
STARTCHAR uni04D4
ENCODING 1236
SWIDTH 911 0
DWIDTH 22 0
BBX 24 17 -1 0
BITMAP
000000BFFFFD
000002FEAAA8
000007FC0000
00001F7C0000
00003E7C0000
0000B8780000
0001F0780000
0007D0BFFFC0
000F80BAAA80
002F00F40000
007D00F00000
01FFFFF00000
03FFFFE00000
0BC001E00000
2F4002E00000
7D0002FAAA90
F80002FFFFD0
ENDCHAR
STARTCHAR uni04D5
ENCODING 1237
SWIDTH 823 0
DWIDTH 20 0
BBX 19 13 0 0
BITMAP
00BF907F80
07FFF7FBF0
0F80BF40B8
0A007E003C
00007C003C
06FFFFFFFC
1FEAFEAAA8
7E00B80000
B800F80000
B801FC0000
B807FE0190
3FBF5FEFE0
1BF806FE40
ENDCHAR
STARTCHAR uni04D6
ENCODING 1238
SWIDTH 556 0
DWIDTH 13 0
BBX 14 21 0 0
BITMAP
000F0380
000B9B40
0002F900
00000000
01FFFFF0
02FFFFE0
02D00000
03D00000
03C00000
07C00000
07800000
0BFFFE00
0BFFFD00
0F000000
1F000000
1E000000
2E000000
2D000000
3D000000
3FFFFD00
7FFFFD00
ENDCHAR
STARTCHAR uni04D7
ENCODING 1239
SWIDTH 518 0
DWIDTH 12 0
BBX 11 17 1 0
BITMAP
01D074
00F6F0
006F80
000000
01BE40
07FFE0
1F41F0
3C00B4
780078
BFFFF8
FAAAA4
F00000
F40000
B80040
7D02D0
2FEF80
06F900
ENDCHAR
STARTCHAR uni04D8
ENCODING 1240
SWIDTH 675 0
DWIDTH 16 0
BBX 15 17 1 0
BITMAP
006FE800
02FFFF40
01901BC0
000002E0
000001F0
000000F4
000000F4
000000F4
BFFFFFF0
BEAAAAF0
B40002E0
B40003D0
B4000B80
78001F40
3E00BD00
0FFFF400
01BE4000
ENDCHAR
STARTCHAR uni04D9
ENCODING 1241
SWIDTH 516 0
DWIDTH 12 0
BBX 11 13 1 0
BITMAP
06FE00
1FEFD0
1902E0
0000F4
0000B4
0000B4
BFFFF4
FAAAF4
F001F0
F002D0
B80B80
3FBE00
0BF400
ENDCHAR
STARTCHAR uni04DA
ENCODING 1242
SWIDTH 675 0
DWIDTH 16 0
BBX 15 21 1 0
BITMAP
00140500
007C1F00
00381E00
00000000
006FE800
02FFFF40
01901BC0
000002E0
000001F0
000000F4
000000F4
000000F4
BFFFFFF0
BEAAAAF0
B40002E0
B40003D0
B4000B80
78001F40
3E00BD00
0FFFF400
01BE4000
ENDCHAR
STARTCHAR uni04DB
ENCODING 1243
SWIDTH 516 0
DWIDTH 12 0
BBX 11 18 1 0
BITMAP
004010
02E0B8
01D0B4
000000
000000
06FE00
1FEFD0
1902E0
0000F4
0000B4
0000B4
BFFFF4
FAAAF4
F001F0
F002D0
B80B80
3FBE00
0BF400
ENDCHAR
STARTCHAR uni04DC
ENCODING 1244
SWIDTH 885 0
DWIDTH 21 0
BBX 23 22 -1 0
BITMAP
000001014000
00000B83D000
00000B42D000
000000000000
000000000000
01F400B400BC
00B800F402F0
007C00F007D0
002E01F01F40
001F01E03E00
000B42E0B800
0007C3D2E000
0003FFFFC000
000BFFFFC000
001F4783D000
003E0B82F000
00BC0B41F400
02F40F40B800
07E00F007D00
0F801F003E00
2F001E002F00
BD002E000F40
ENDCHAR
STARTCHAR uni04DD
ENCODING 1245
SWIDTH 747 0
DWIDTH 18 0
BBX 19 18 -1 0
BITMAP
0000501400
0001F07C00
0000E07800
0000000000
0000000000
03D01E00F8
02E01E02E0
00F42D0BC0
00B83D1F40
003C3C7D00
002FFFF400
003FFFF400
00B8B8B800
02F0B43C00
07D0F42E00
0F80F01F00
3E01F00F80
BC01E00BC0
ENDCHAR
STARTCHAR uni04DE
ENCODING 1246
SWIDTH 580 0
DWIDTH 14 0
BBX 14 22 0 0
BITMAP
00050100
001F0B80
001E0780
00000000
00000000
001BF900
00FFFF80
03E407D0
07C002E0
0A4002E0
000003D0
00001F80
002FF900
002FFD00
00002F00
00000F40
00000B40
78000F40
7C001F00
3E00BD00
1FFFF800
02FE8000
ENDCHAR
STARTCHAR uni04DF
ENCODING 1247
SWIDTH 497 0
DWIDTH 12 0
BBX 11 18 0 0
BITMAP
005014
00F47C
00E038
000000
000000
00BF90
07FBF4
0F80B8
1A0078
0001F4
00FFD0
01FFD0
0001F0
0000F0
B801F0
7D02E0
2FAFC0
06F900
ENDCHAR
STARTCHAR uni04E0
ENCODING 1248
SWIDTH 569 0
DWIDTH 14 0
BBX 13 17 1 0
BITMAP
0BFFFF40
0BFFFF00
00007D00
0001F400
0007D000
001F4000
007D0000
00FE4000
00AFE000
0001F400
0000B800
00007800
F000B800
F400F400
BD06F000
3FFFC000
0BF90000
ENDCHAR
STARTCHAR uni04E1
ENCODING 1249
SWIDTH 569 0
DWIDTH 14 0
BBX 13 18 0 -5
BITMAP
07FFFF80
06AABF40
00007D00
0001F400
0007D000
000F4000
003E0000
00BE4000
00BFE000
0001F400
00007C00
00003C00
00003C00
F4007C00
B400B800
7D02F000
2FFFD000
06F90000
ENDCHAR
STARTCHAR uni04E2
ENCODING 1250
SWIDTH 696 0
DWIDTH 17 0
BBX 16 21 1 0
BITMAP
000AAA90
001FFFD0
00000000
00000000
07C0007D
0B8001FC
0B8003FC
0F400BF8
0F002FB8
1F007DF4
1E01F4F0
2E03E1F0
2D0B81E0
3D2F02E0
3C7D02D0
7DF403D0
7FE003C0
BF8007C0
BF000780
FD000B80
F4000B40
ENDCHAR
STARTCHAR uni04E3
ENCODING 1251
SWIDTH 564 0
DWIDTH 14 0
BBX 13 17 0 0
BITMAP
006AAA00
00BFFF00
00000000
00000000
07800F80
0B802F40
0B407F40
0F41FF00
0F03EF00
1F0B9E00
1E2E2E00
2E7C2D00
2EF43D00
3FD03C00
3F807C00
7F007800
7D00B800
ENDCHAR
STARTCHAR uni04E4
ENCODING 1252
SWIDTH 696 0
DWIDTH 17 0
BBX 16 22 1 0
BITMAP
00050140
000F43D0
000B03C0
00000000
00000000
07C0007D
0B8001FC
0B8003FC
0F400BF8
0F002FB8
1F007DF4
1E01F4F0
2E03E1F0
2D0B81E0
3D2F02E0
3C7D02D0
7DF403D0
7FE003C0
BF8007C0
BF000780
FD000B80
F4000B40
ENDCHAR
STARTCHAR uni04E5
ENCODING 1253
SWIDTH 564 0
DWIDTH 14 0
BBX 13 18 0 0
BITMAP
00140500
007C1F00
00781E00
00000000
00000000
07800F80
0B802F40
0B407F40
0F41FF00
0F03EF00
1F0B9E00
1E2E2E00
2E7C2D00
2EF43D00
3FD03C00
3F807C00
7F007800
7D00B800
ENDCHAR
STARTCHAR uni04E6
ENCODING 1254
SWIDTH 671 0
DWIDTH 16 0
BBX 14 22 1 0
BITMAP
00050140
001F07C0
001E0780
00000000
00000000
001BF900
00BFFF40
02F40BC0
0B8002E0
1F4001F0
2E0000F0
3D0000F0
7C0000F0
7C0001F0
780001E0
B80002E0
780003D0
7C000B80
3D001F40
2F407D00
0BFFF400
01BF8000
ENDCHAR
STARTCHAR uni04E7
ENCODING 1255
SWIDTH 558 0
DWIDTH 13 0
BBX 12 18 1 0
BITMAP
004010
02E0B8
01D0B4
000000
000000
01BF40
0BFBE0
1F40F4
3D007C
B8003C
B4003D
F0003C
F0003C
F00078
B400F4
7D07E0
2FFF80
06F900
ENDCHAR
STARTCHAR uni04E8
ENCODING 1256
SWIDTH 664 0
DWIDTH 16 0
BBX 14 17 1 0
BITMAP
001BF800
00FFFF40
03E40BC0
0B8002D0
1E0001E0
2D0001F0
3C0001F0
7FFFFFF0
BEAAABE0
B40002E0
B40003D0
B80007C0
78000F80
7D002F00
2F41BD00
0FFFF400
02FE4000
ENDCHAR
STARTCHAR uni04E9
ENCODING 1257
SWIDTH 555 0
DWIDTH 13 0
BBX 12 13 1 0
BITMAP
01BF40
07FBE0
1F40B8
3C003C
B4003C
BFFFFD
FAAABC
F0007C
F000B8
B401F4
7D07E0
2FBF80
06F900
ENDCHAR
STARTCHAR uni04EA
ENCODING 1258
SWIDTH 664 0
DWIDTH 16 0
BBX 14 22 1 0
BITMAP
00050140
001F07C0
000E0780
00000000
00000000
001BF800
00FFFF40
03E40BC0
0B8002D0
1E0001E0
2D0001F0
3C0001F0
7FFFFFF0
BEAAABE0
B40002E0
B40003D0
B80007C0
78000F80
7D002F00
2F41BD00
0FFFF400
02FE4000
ENDCHAR
STARTCHAR uni04EB
ENCODING 1259
SWIDTH 555 0
DWIDTH 13 0
BBX 12 18 1 0
BITMAP
004010
02E0B8
01D0B4
000000
000000
01BF40
07FBE0
1F40B8
3C003C
B4003C
BFFFFD
FAAABC
F0007C
F000B8
B401F4
7D07E0
2FBF80
06F900
ENDCHAR
STARTCHAR uni04EC
ENCODING 1260
SWIDTH 658 0
DWIDTH 16 0
BBX 14 22 1 0
BITMAP
00050100
001F0B80
001E0740
00000000
00000000
001BF800
01FFFF40
03E00BC0
0B8002D0
0F4001E0
1A0001F0
000001F0
003FFFE0
003FFFE0
000002E0
000003D0
640007C0
B8000F80
7C002F00
2E00BD00
0FFFF400
02BE8000
ENDCHAR
STARTCHAR uni04ED
ENCODING 1261
SWIDTH 526 0
DWIDTH 13 0
BBX 12 18 0 0
BITMAP
001014
00B83D
00B42D
000000
000000
006F80
03FBF0
0B80B8
1E003C
04003D
007FFD
006ABD
00007C
6400B8
7C00F4
3D03E0
1FEF80
06F900
ENDCHAR
STARTCHAR uni04EE
ENCODING 1262
SWIDTH 614 0
DWIDTH 15 0
BBX 15 21 1 0
BITMAP
002AAA40
007FFF40
00000000
00000000
1F0001F4
0F4002F0
0B8007D0
07C00F80
03D01F00
02D03D00
02E0BC00
01F0F400
00F6E000
00BBC000
007F8000
003F0000
003D0000
00B80000
01F00000
3FD00000
7E400000
ENDCHAR
STARTCHAR uni04EF
ENCODING 1263
SWIDTH 463 0
DWIDTH 11 0
BBX 13 22 -1 -5
BITMAP
006AAA40
007FFF40
00000000
00000000
0B800B80
07801F00
07C02E00
03C07C00
03C0B400
02D1F000
02D2D000
01E3C000
01EB4000
00FF0000
00FD0000
00BC0000
00B40000
00F00000
02D00000
07C00000
FF400000
F9000000
ENDCHAR
STARTCHAR uni04F0
ENCODING 1264
SWIDTH 614 0
DWIDTH 15 0
BBX 15 22 1 0
BITMAP
00140500
003D0F40
002C0F00
00000000
00000000
1F0001F4
0F4002F0
0B8007D0
07C00F80
03D01F00
02D03D00
02E0BC00
01F0F400
00F6E000
00BBC000
007F8000
003F0000
003D0000
00B80000
01F00000
3FD00000
7E400000
ENDCHAR
STARTCHAR uni04F1
ENCODING 1265
SWIDTH 463 0
DWIDTH 11 0
BBX 13 23 -1 -5
BITMAP
00140500
007C1F00
00381E00
00000000
00000000
0B800B80
07801F00
07C02E00
03C07C00
03C0B400
02D1F000
02D2D000
01E3C000
01EB4000
00FF0000
00FD0000
00BC0000
00B40000
00F00000
02D00000
07C00000
FF400000
F9000000
ENDCHAR
STARTCHAR uni04F2
ENCODING 1266
SWIDTH 614 0
DWIDTH 15 0
BBX 15 22 1 0
BITMAP
0001F2E0
0007DBC0
000F6F00
001A2D00
00000000
1F0001F4
0F4002F0
0B8007D0
07C00F80
03D01F00
02D03D00
02E0BC00
01F0F400
00F6E000
00BBC000
007F8000
003F0000
003D0000
00B80000
01F00000
3FD00000
7E400000
ENDCHAR
STARTCHAR uni04F3
ENCODING 1267
SWIDTH 463 0
DWIDTH 11 0
BBX 14 23 -1 -5
BITMAP
0002E2E0
0007CB80
000F6E00
001D6800
00000000
0B800B80
07801F00
07C02E00
03C07C00
03C0B400
02D1F000
02D2D000
01E3C000
01EB4000
00FF0000
00FD0000
00BC0000
00B40000
00F00000
02D00000
07C00000
FF400000
F9000000
ENDCHAR
STARTCHAR uni04F4
ENCODING 1268
SWIDTH 668 0
DWIDTH 16 0
BBX 14 22 2 0
BITMAP
00100400
00B82E00
00741D00
00000000
00000000
2E0002E0
2E0002E0
3D0003D0
3C0003D0
7C0007C0
7C0007C0
7C000B80
3E005F40
1FFFFF40
06BA9F00
00001F00
00001E00
00002E00
00002D00
00003D00
00003C00
00007C00
ENDCHAR
STARTCHAR uni04F5
ENCODING 1269
SWIDTH 532 0
DWIDTH 13 0
BBX 11 18 1 0
BITMAP
014050
03D1F0
03C0E0
000000
000000
2D007C
3C0078
3C00B8
7800F4
7C00F4
3D01F0
2FFFF0
06AAE0
0002E0
0002D0
0003D0
0003C0
0007C0
ENDCHAR
STARTCHAR uni04F6
ENCODING 1270
SWIDTH 544 0
DWIDTH 13 0
BBX 13 21 1 -4
BITMAP
07FFFFC0
0BFFFF80
0B800000
0F400000
0F400000
1F000000
1E000000
2E000000
2D000000
3D000000
3C000000
7C000000
78000000
B8000000
B4000000
FF000000
FE000000
1E000000
2D000000
2D000000
3C000000
ENDCHAR
STARTCHAR uni04F7
ENCODING 1271
SWIDTH 411 0
DWIDTH 10 0
BBX 11 17 0 -4
BITMAP
07FFF4
0BEAA4
0B4000
0F4000
0F0000
1F0000
1E0000
2E0000
2D0000
3D0000
3C0000
7F8000
7F8000
0B4000
0F4000
0F0000
1F0000
ENDCHAR
STARTCHAR uni04F8
ENCODING 1272
SWIDTH 843 0
DWIDTH 20 0
BBX 19 22 1 0
BITMAP
0000501400
0001F07C00
0000E07800
0000000000
0000000000
07C00000B8
07800000B8
0B800000F4
0F400000F0
0F400001F0
1F000001E0
1F000002E0
2FFFE402D0
2FFFFD03D0
3D002F03C0
3C000F47C0
7C000B4780
78000F4B80
B8001F0B40
B4007E0F40
FFEFF80F00
FFFF901F00
ENDCHAR
STARTCHAR uni04F9
ENCODING 1273
SWIDTH 757 0
DWIDTH 18 0
BBX 17 18 0 0
BITMAP
0001405000
0003D1F000
0003C0E000
0000000000
0000000000
07800007C0
0780000780
0B40000B80
0B40000B40
0FFF900F40
1FABF40F00
1E00BC1F00
2E003C1E00
2D003C2E00
3D007C2D00
3C01F83D00
7EAFE03C00
7FFE407C00
ENDCHAR
STARTCHAR uni04FA
ENCODING 1274
SWIDTH 576 0
DWIDTH 14 0
BBX 15 22 0 -5
BITMAP
00BFFFF8
00BFFFF4
00F40000
00F00000
01F00000
01E00000
02E00000
3FFF4000
2BFA0000
03C00000
07C00000
07800000
0B800000
0B400000
0F400000
1FF00000
1FE00000
02E00000
03D00000
07C00000
FF400000
F9000000
ENDCHAR
STARTCHAR uni04FB
ENCODING 1275
SWIDTH 449 0
DWIDTH 11 0
BBX 12 18 0 -5
BITMAP
01FFFD
02FAA8
02D000
03C000
03C000
7FFF00
6FEA00
0B4000
0B4000
0F0000
0F0000
1FE000
1FE000
02D000
03C000
0BC000
FF4000
F90000
ENDCHAR
STARTCHAR uni04FC
ENCODING 1276
SWIDTH 632 0
DWIDTH 15 0
BBX 16 22 -1 -5
BITMAP
01F0002F
00F8007D
007C01F8
003D03E0
002F0BC0
000F5F40
000BFD00
0003F800
0003F000
000BF400
001FB800
007D3D00
00F82E00
02F01F40
0BD00B80
1F4007F8
7E0003F8
000000B4
000000F4
000002F0
00003FD0
00003E40
ENDCHAR
STARTCHAR uni04FD
ENCODING 1277
SWIDTH 520 0
DWIDTH 12 0
BBX 13 18 -1 -5
BITMAP
07C00F40
02D02E00
01F0BC00
00B5F400
007BD000
003F8000
002F0000
007F4000
01FB8000
03D3D000
0B82E000
2F00FF00
7D00BE00
00001E00
00002D00
00007C00
000BF800
000BD000
ENDCHAR
STARTCHAR uni04FE
ENCODING 1278
SWIDTH 612 0
DWIDTH 15 0
BBX 16 17 -1 0
BITMAP
01F0002F
00F8007D
007C01F4
003D03E0
001F0B80
000F5F00
0007FD00
003FFF40
002FFA00
000FF400
002FBC00
007D3D00
01F82E00
03F01F40
0BD00B80
1F4007C0
7E0003E0
ENDCHAR
STARTCHAR uni04FF
ENCODING 1279
SWIDTH 485 0
DWIDTH 12 0
BBX 13 13 -1 0
BITMAP
07C00F40
02D02E00
01F0B800
00B5F000
003BC000
03FFF400
02BFA400
00BF4000
01FBC000
07D3D000
0F82E000
2F00F400
7D00B800
ENDCHAR
STARTCHAR uni0500
ENCODING 1280
SWIDTH 606 0
DWIDTH 15 0
BBX 15 17 0 0
BITMAP
000000B8
000000F4
000000F4
000001F0
000001F0
000002E0
000002E0
00BFFFD0
07FFFFC0
1F8007C0
3E000780
3C000B80
7C000B40
3C000F40
2E000F00
1FFFFF00
02FFFE00
ENDCHAR
STARTCHAR uni0501
ENCODING 1281
SWIDTH 551 0
DWIDTH 13 0
BBX 13 18 1 0
BITMAP
00000F40
00000F00
00001F00
00001E00
00002E00
01BE2D00
0BFFFD00
2F41FC00
3D007C00
B8007800
B400B800
F000B400
F000F400
F000F000
F401F000
B807E000
3FFFE000
0BE6D000
ENDCHAR
STARTCHAR uni0502
ENCODING 1282
SWIDTH 802 0
DWIDTH 19 0
BBX 19 17 0 0
BITMAP
000000B800
000000B400
000000F400
000000F000
000001F000
000001E000
000002E000
00AFFFD000
07FFFFD060
1F8003C0B4
2E0007C0B4
3D000B80B4
7C000B40F4
3D000F41F0
2E000F07D0
1FFFFFBF80
02FFFFF900
ENDCHAR
STARTCHAR uni0503
ENCODING 1283
SWIDTH 840 0
DWIDTH 20 0
BBX 18 18 1 0
BITMAP
00000F4000
00000F0000
00001F0000
00002E0000
00002E0000
01BE3D0000
0BFFFC0000
2F41FC01E0
3D007801E0
7800B801E0
B400B401E0
F000F402E0
F000F002D0
F001F003C0
F401F00B80
B807F42F00
3FFDFEFD00
1BE42FE000
ENDCHAR
STARTCHAR uni0504
ENCODING 1284
SWIDTH 772 0
DWIDTH 19 0
BBX 15 17 2 0
BITMAP
BFF80000
BFFF4000
000BC000
0003D000
0003D000
0007C000
000B8078
006F007C
2FF8007C
3FF8007C
007D0078
002E00B8
002E00F4
002E01F0
001F07D0
000FFF40
0006F900
ENDCHAR
STARTCHAR uni0505
ENCODING 1285
SWIDTH 631 0
DWIDTH 15 0
BBX 13 13 1 0
BITMAP
BFA00000
AAFC0000
002E0000
001E0000
002E0780
007C03C0
BFE003C0
ABF403C0
00B80780
00780B40
00782F00
007EFD00
001FE000
ENDCHAR
STARTCHAR uni0506
ENCODING 1286
SWIDTH 524 0
DWIDTH 13 0
BBX 9 21 2 -4
BITMAP
7FE400
6AFE00
001F40
000B40
000B80
000B40
001F00
00BD00
BFE000
ABF400
00BC00
003C00
003C00
003C00
007D40
007F80
003F40
000F40
001E00
003D00
002400
ENDCHAR
STARTCHAR uni0507
ENCODING 1287
SWIDTH 493 0
DWIDTH 12 0
BBX 9 17 2 -4
BITMAP
BFA000
AAFC00
002E00
001E00
002E00
007C00
FFE000
ABF000
00B800
007800
007900
00BF40
007F00
001F00
002D00
007C00
006000
ENDCHAR
STARTCHAR uni0508
ENCODING 1288
SWIDTH 944 0
DWIDTH 23 0
BBX 23 17 -1 0
BITMAP
0003FFFFC000
0003FFFF8000
0007C00B8000
000B800B4000
000B400F4000
000F400F0000
000F001F00B4
001E001E00B8
002E002E0078
002D002D00B8
003C003D00B4
007C007C00F4
00B8007C01F0
00F4007C02E0
07E0007D0BC0
7F80003FFF00
7E00000BF800
ENDCHAR
STARTCHAR uni0509
ENCODING 1289
SWIDTH 787 0
DWIDTH 19 0
BBX 19 13 -1 0
BITMAP
002FFFD000
002FABC000
003C03C014
003C07803C
007807803C
00B40B403C
00B40B403C
00F00F0078
01E00F00B4
02E01F00F0
07C00F42E0
7F400BEF80
7D0002FD00
ENDCHAR
STARTCHAR uni050A
ENCODING 1290
SWIDTH 972 0
DWIDTH 23 0
BBX 22 17 0 0
BITMAP
01E0001F0000
02E0001E0000
02D0002E0000
03D0003D0000
03C0003D0000
0780007C0000
0780007C02D0
0BFFFFF802E0
0BFFFFF801E0
0F0000F402E0
1F0000F402D0
1E0001F003D0
2E0001F007C0
2D0001F00B80
3D0001F42F00
3C0000BFFC00
7C00002FE000
ENDCHAR
STARTCHAR uni050B
ENCODING 1291
SWIDTH 808 0
DWIDTH 19 0
BBX 18 13 0 0
BITMAP
07800B8000
0B400B4000
0B400F4050
0F001F00F0
0F001F00F0
1FFFFE00F0
1FAABE00F0
2D003D00F0
3D003D01E0
3C003C02D0
7C002D0B80
78001FFF00
B80007F800
ENDCHAR
STARTCHAR uni050C
ENCODING 1292
SWIDTH 606 0
DWIDTH 15 0
BBX 13 17 1 0
BITMAP
001BF900
00BFFF40
03E40500
0B800000
1F000000
2D000000
3D000000
7C000000
78000F00
B8000F40
B8000F40
B8000F00
B8001F00
7C002E00
2E00BC00
0FFFF400
01BE4000
ENDCHAR
STARTCHAR uni050D
ENCODING 1293
SWIDTH 503 0
DWIDTH 12 0
BBX 10 13 1 0
BITMAP
01BF90
07FBD0
1F4040
3D0000
780000
B40000
F40150
F001E0
F401E0
B402D0
7D07C0
2FFF40
06F900
ENDCHAR
STARTCHAR uni050E
ENCODING 1294
SWIDTH 692 0
DWIDTH 17 0
BBX 14 17 2 0
BITMAP
FFFFFFC0
FFFFFFC0
003D0000
003C0000
007C0000
00780000
00B803C0
00B402D0
00F402D0
00F003D0
01F003C0
01E007C0
02E00B80
02E00F40
02F07E00
00FFF800
006F9000
ENDCHAR
STARTCHAR uni050F
ENCODING 1295
SWIDTH 626 0
DWIDTH 15 0
BBX 13 13 1 0
BITMAP
7FFFFC00
6AFEA800
00B80000
00B40000
00F40B40
00F00B40
01F00B40
01E00B40
02E00F00
02E01F00
01E07D00
00FFF800
006F9000
ENDCHAR
STARTCHAR uni0510
ENCODING 1296
SWIDTH 658 0
DWIDTH 16 0
BBX 15 17 1 0
BITMAP
001BF900
01FFFFC0
07E406E0
0B8000F4
0F4000A4
0F400000
07D00000
01FFE000
07FFD000
2F400000
7D000000
B8000000
B8000280
78000B80
3E006F40
1FFFFD00
01BF9000
ENDCHAR
STARTCHAR uni0511
ENCODING 1297
SWIDTH 527 0
DWIDTH 13 0
BBX 12 13 0 0
BITMAP
00AF90
07FAF8
0F803D
1F0019
0F4000
07FF80
0BEA40
3E0000
7C0000
780078
7D01F4
2FEFE0
06FE40
ENDCHAR
STARTCHAR uni0512
ENCODING 1298
SWIDTH 733 0
DWIDTH 18 0
BBX 17 22 -1 -5
BITMAP
0003FFFFC0
0007FFFFC0
000B800780
000B400B80
000F400B40
001F000F40
001E000F00
002E001F00
002D001E00
003C002E00
007C003D00
0078003D00
00B4007C00
01F0007C00
07D000B800
7F8000BF80
B90000FF40
0000000F40
0000000F00
0000002E00
000007FC00
000007E400
ENDCHAR
STARTCHAR uni0513
ENCODING 1299
SWIDTH 604 0
DWIDTH 15 0
BBX 14 18 -1 -5
BITMAP
002FFFE0
003EABD0
003C03D0
007803C0
00B407C0
00B40780
00F00B80
00F00B40
01E00F40
02D00F00
0BC01F00
7F401FE0
B9002FE0
000002D0
000003D0
000007C0
0000FF40
0000F900
ENDCHAR
STARTCHAR uni1E00
ENCODING 7680
SWIDTH 637 0
DWIDTH 15 0
BBX 15 22 -1 -5
BITMAP
00003D00
00007E00
0000FE00
0002EF00
0003CB00
000B8B40
001F0780
002E0780
007C03C0
00F403C0
01F002D0
03FFFFE0
07FFFFE0
0F4001F0
2E0000F0
3D0000B4
B80000B8
00000000
001F4000
0024C000
0025C000
001F4000
ENDCHAR
STARTCHAR uni1E01
ENCODING 7681
SWIDTH 532 0
DWIDTH 13 0
BBX 12 18 0 -5
BITMAP
006F90
02FAF8
0B807C
0A003D
00003D
01BFFC
0BEABC
2E0078
3C00B8
7C00F4
7D07F4
2FFFF4
07F8F4
000000
07D000
0D6000
0C6000
07D000
ENDCHAR
STARTCHAR uni1E3E
ENCODING 7742
SWIDTH 851 0
DWIDTH 20 0
BBX 20 22 0 0
BITMAP
0000003E00
000001F400
000002D000
0000000000
0000000000
01F800003F
02F80000BF
02FC0001FE
03FD0002FE
03ED0007ED
079E000F7D
079F001E3C
0B4F003D7C
0B4B40B878
0F4B40F0B4
1F0782E0F4
1F03C7C0F0
2E03CB41F0
2E02EE01E0
3D01FD02E0
3C01F802D0
7C00F003D0
ENDCHAR
STARTCHAR uni1E3F
ENCODING 7743
SWIDTH 854 0
DWIDTH 21 0
BBX 19 18 0 0
BITMAP
0000007D00
000001F400
0000068000
0000000000
0000000000
0B5BE42FD0
0BBFFDFFF4
0FD07F80BC
0F402F003C
1F002E003C
1E003D007C
2E003C0078
2D007C00B8
3D007800B4
3C00B800F4
7C00B400F0
7800F401F0
B800F001E0
ENDCHAR
STARTCHAR Wgrave
ENCODING 7808
SWIDTH 865 0
DWIDTH 21 0
BBX 20 22 2 0
BITMAP
0001F00000
0000780000
0000280000
0000000000
0000000000
B4003C002E
B800BC003D
B800FD0078
7801FD00B4
7803ED01F0
78079E02E0
7C0B4E03D0
3C0E0E0780
3C2D0F0B40
3C3C0B0F00
3C740B1E00
2DF00B7D00
2EE0077C00
2FD007F400
2F8007F000
1F4003E000
1F0003D000
ENDCHAR
STARTCHAR wgrave
ENCODING 7809
SWIDTH 733 0
DWIDTH 18 0
BBX 17 18 1 0
BITMAP
000B800000
0002D00000
0000A00000
0000000000
0000000000
7801E00780
7803E00B40
7807E01F00
380BF02D00
3C1EB03C00
3C2CB47800
2C7874F000
2CB075E000
2DE03AD000
1FD03B8000
1F803F4000
1F402F0000
1E002D0000
ENDCHAR
STARTCHAR Wacute
ENCODING 7810
SWIDTH 865 0
DWIDTH 21 0
BBX 20 22 2 0
BITMAP
000002E000
00000B8000
00001D0000
0000000000
0000000000
B4003C002E
B800BC003D
B800FD0078
7801FD00B4
7803ED01F0
78079E02E0
7C0B4E03D0
3C0E0E0780
3C2D0F0B40
3C3C0B0F00
3C740B1E00
2DF00B7D00
2EE0077C00
2FD007F400
2F8007F000
1F4003E000
1F0003D000
ENDCHAR
STARTCHAR wacute
ENCODING 7811
SWIDTH 733 0
DWIDTH 18 0
BBX 17 18 1 0
BITMAP
00001F8000
00007D0000
0000B40000
0000000000
0000000000
7801E00780
7803E00B40
7807E01F00
380BF02D00
3C1EB03C00
3C2CB47800
2C7874F000
2CB075E000
2DE03AD000
1FD03B8000
1F803F4000
1F402F0000
1E002D0000
ENDCHAR
STARTCHAR Wdieresis
ENCODING 7812
SWIDTH 865 0
DWIDTH 21 0
BBX 20 22 2 0
BITMAP
0001405000
0003D1F000
0002C0E000
0000000000
0000000000
B4003C002E
B800BC003D
B800FD0078
7801FD00B4
7803ED01F0
78079E02E0
7C0B4E03D0
3C0E0E0780
3C2D0F0B40
3C3C0B0F00
3C740B1E00
2DF00B7D00
2EE0077C00
2FD007F400
2F8007F000
1F4003E000
1F0003D000
ENDCHAR
STARTCHAR wdieresis
ENCODING 7813
SWIDTH 733 0
DWIDTH 18 0
BBX 17 18 1 0
BITMAP
0005014000
001F07C000
001E078000
0000000000
0000000000
7801E00780
7803E00B40
7807E01F00
380BF02D00
3C1EB03C00
3C2CB47800
2C7874F000
2CB075E000
2DE03AD000
1FD03B8000
1F803F4000
1F402F0000
1E002D0000
ENDCHAR
STARTCHAR uni1EA0
ENCODING 7840
SWIDTH 637 0
DWIDTH 15 0
BBX 15 22 -1 -5
BITMAP
00003D00
00007E00
0000FE00
0002EF00
0003CB00
000B8B40
001F0780
002E0780
007C03C0
00F403C0
01F002D0
03FFFFE0
07FFFFE0
0F4001F0
2E0000F0
3D0000B4
B80000B8
00000000
00000000
000B0000
001F4000
00050000
ENDCHAR
STARTCHAR uni1EA1
ENCODING 7841
SWIDTH 532 0
DWIDTH 13 0
BBX 12 18 0 -5
BITMAP
006F90
02FAF8
0B807C
0A003D
00003D
01BFFC
0BEABC
2E0078
3C00B8
7C00F4
7D07F4
2FFFF4
07F8F4
000000
000000
038000
07C000
014000
ENDCHAR
STARTCHAR uni1EA2
ENCODING 7842
SWIDTH 637 0
DWIDTH 15 0
BBX 15 24 -1 0
BITMAP
00000B80
000005D0
000001E0
00000F80
00000E00
00000000
00000000
00003D00
00007E00
0000FE00
0002EF00
0003CB00
000B8B40
001F0780
002E0780
007C03C0
00F403C0
01F002D0
03FFFFE0
07FFFFE0
0F4001F0
2E0000F0
3D0000B4
B80000B8
ENDCHAR
STARTCHAR uni1EA3
ENCODING 7843
SWIDTH 532 0
DWIDTH 13 0
BBX 12 20 0 0
BITMAP
0001E0
000078
00003C
0002F4
0002C0
000000
000000
006F90
02FAF8
0B807C
0A003D
00003D
01BFFC
0BEABC
2E0078
3C00B8
7C00F4
7D07F4
2FFFF4
07F8F4
ENDCHAR
STARTCHAR uni1EA4
ENCODING 7844
SWIDTH 637 0
DWIDTH 15 0
BBX 19 24 -1 0
BITMAP
00000000F4
00000003D0
00002F4740
0001FAE000
0006D0A400
0000000000
0000000000
00003D0000
00007E0000
0000FE0000
0002EF0000
0003CB0000
000B8B4000
001F078000
002E078000
007C03C000
00F403C000
01F002D000
03FFFFE000
07FFFFE000
0F4001F000
2E0000F000
3D0000B400
B80000B800
ENDCHAR
STARTCHAR uni1EA5
ENCODING 7845
SWIDTH 532 0
DWIDTH 13 0
BBX 16 20 0 0
BITMAP
0000002E
000000B8
0007E0A0
002FB800
00B82D00
00000000
00000000
006F9000
02FAF800
0B807C00
0A003D00
00003D00
01BFFC00
0BEABC00
2E007800
3C00B800
7C00F400
7D07F400
2FFFF400
07F8F400
ENDCHAR
STARTCHAR uni1EA6
ENCODING 7846
SWIDTH 637 0
DWIDTH 15 0
BBX 15 24 -1 0
BITMAP
00780000
002C0000
001D0000
00002F40
0001FAE0
0006D0A4
00000000
00003D00
00007E00
0000FE00
0002EF00
0003CB00
000B8B40
001F0780
002E0780
007C03C0
00F403C0
01F002D0
03FFFFE0
07FFFFE0
0F4001F0
2E0000F0
3D0000B4
B80000B8
ENDCHAR
STARTCHAR uni1EA7
ENCODING 7847
SWIDTH 532 0
DWIDTH 13 0
BBX 12 20 0 0
BITMAP
0F0000
074000
028000
0007E0
002EB8
00B82D
000000
006F90
02FAF8
0B807C
0A003D
00003D
01BFFC
0BEABC
2E0078
3C00B8
7C00F4
7D07F4
2FFFF4
07F8F4
ENDCHAR
STARTCHAR uni1EA8
ENCODING 7848
SWIDTH 637 0
DWIDTH 15 0
BBX 17 24 -1 0
BITMAP
0000000B40
00000001C0
00000006C0
00002F8E00
0001F5E000
0006C0A400
0000000000
00003D0000
00007E0000
0000FE0000
0002EF0000
0003CB0000
000B8B4000
001F078000
002E078000
007C03C000
00F403C000
01F002D000
03FFFFE000
07FFFFE000
0F4001F000
2E0000F000
3D0000B400
B80000B800
ENDCHAR
STARTCHAR uni1EA9
ENCODING 7849
SWIDTH 532 0
DWIDTH 13 0
BBX 15 21 0 0
BITMAP
000001E0
00000078
000001B4
0007E2C0
002E7800
00B41D00
00000000
00000000
006F9000
02FAF800
0B807C00
0A003D00
00003D00
01BFFC00
0BEABC00
2E007800
3C00B800
7C00F400
7D07F400
2FFFF400
07F8F400
ENDCHAR
STARTCHAR uni1EAA
ENCODING 7850
SWIDTH 637 0
DWIDTH 15 0
BBX 15 24 -1 0
BITMAP
00007E74
000092E0
00000000
00002F40
0001F6D0
000680A4
00000000
00003D00
00007E00
0000FE00
0002EF00
0003CB00
000B8B40
001F0780
002E0780
007C03C0
00F403C0
01F002D0
03FFFFE0
07FFFFE0
0F4001F0
2E0000F0
3D0000B4
B80000B8
ENDCHAR
STARTCHAR uni1EAB
ENCODING 7851
SWIDTH 532 0
DWIDTH 13 0
BBX 12 21 0 0
BITMAP
000100
000F9A
001878
000000
0007E0
002E78
00B41D
000000
006F90
02FAF8
0B807C
0A003D
00003D
01BFFC
0BEABC
2E0078
3C00B8
7C00F4
7D07F4
2FFFF4
07F8F4
ENDCHAR
STARTCHAR uni1EAC
ENCODING 7852
SWIDTH 637 0
DWIDTH 15 0
BBX 15 27 -1 -5
BITMAP
00001F40
0001BAD0
0002E0F0
00000000
00000000
00003D00
00007E00
0000FE00
0002EF00
0003CB00
000B8B40
001F0780
002E0780
007C03C0
00F403C0
01F002D0
03FFFFE0
07FFFFE0
0F4001F0
2E0000F0
3D0000B4
B80000B8
00000000
00000000
000B0000
001F4000
00050000
ENDCHAR
STARTCHAR uni1EAD
ENCODING 7853
SWIDTH 532 0
DWIDTH 13 0
BBX 12 23 0 -5
BITMAP
0006E0
002FB8
00782D
000000
000000
006F90
02FAF8
0B807C
0A003D
00003D
01BFFC
0BEABC
2E0078
3C00B8
7C00F4
7D07F4
2FFFF4
07F8F4
000000
000000
038000
07C000
014000
ENDCHAR
STARTCHAR uni1EAE
ENCODING 7854
SWIDTH 637 0
DWIDTH 15 0
BBX 15 24 -1 0
BITMAP
000001D0
00000340
00000400
0001D1B0
00007F90
00000000
00000000
00003D00
00007E00
0000FE00
0002EF00
0003CB00
000B8B40
001F0780
002E0780
007C03C0
00F403C0
01F002D0
03FFFFE0
07FFFFE0
0F4001F0
2E0000F0
3D0000B4
B80000B8
ENDCHAR
STARTCHAR uni1EAF
ENCODING 7855
SWIDTH 532 0
DWIDTH 13 0
BBX 12 20 0 0
BITMAP
000038
000090
000000
00382D
001BF4
000000
000000
006F90
02FAF8
0B807C
0A003D
00003D
01BFFC
0BEABC
2E0078
3C00B8
7C00F4
7D07F4
2FFFF4
07F8F4
ENDCHAR
STARTCHAR uni1EB0
ENCODING 7856
SWIDTH 637 0
DWIDTH 15 0
BBX 15 23 -1 0
BITMAP
00001C00
00000900
0001D1B0
00007F90
00000000
00000000
00003D00
00007E00
0000FE00
0002EF00
0003CB00
000B8B40
001F0780
002E0780
007C03C0
00F403C0
01F002D0
03FFFFE0
07FFFFE0
0F4001F0
2E0000F0
3D0000B4
B80000B8
ENDCHAR
STARTCHAR uni1EB1
ENCODING 7857
SWIDTH 532 0
DWIDTH 13 0
BBX 12 19 0 0
BITMAP
000340
000180
00382D
001BF4
000000
000000
006F90
02FAF8
0B807C
0A003D
00003D
01BFFC
0BEABC
2E0078
3C00B8
7C00F4
7D07F4
2FFFF4
07F8F4
ENDCHAR
STARTCHAR uni1EB2
ENCODING 7858
SWIDTH 637 0
DWIDTH 15 0
BBX 15 25 -1 0
BITMAP
00000790
000000E0
000006D0
00000B00
0001D1B0
00007F90
00000000
00000000
00003D00
00007E00
0000FE00
0002EF00
0003CB00
000B8B40
001F0780
002E0780
007C03C0
00F403C0
01F002D0
03FFFFE0
07FFFFE0
0F4001F0
2E0000F0
3D0000B4
B80000B8
ENDCHAR
STARTCHAR uni1EB3
ENCODING 7859
SWIDTH 532 0
DWIDTH 13 0
BBX 12 21 0 0
BITMAP
0000E4
00002C
0000B8
0001D0
00382D
001BE4
000000
000000
006F90
02FAF8
0B807C
0A003D
00003D
01BFFC
0BEABC
2E0078
3C00B8
7C00F4
7D07F4
2FFFF4
07F8F4
ENDCHAR
STARTCHAR uni1EB4
ENCODING 7860
SWIDTH 637 0
DWIDTH 15 0
BBX 15 26 -1 0
BITMAP
00001404
00007E68
000092E0
00000000
0001D0B0
0000E1E0
00006F80
00000000
00000000
00003D00
00007E00
0000FE00
0002EF00
0003CB00
000B8B40
001F0780
002E0780
007C03C0
00F403C0
01F002D0
03FFFFE0
07FFFFE0
0F4001F0
2E0000F0
3D0000B4
B80000B8
ENDCHAR
STARTCHAR uni1EB5
ENCODING 7861
SWIDTH 532 0
DWIDTH 13 0
BBX 12 22 0 0
BITMAP
000101
000FDB
00187D
000000
00381D
002D6C
000BE4
000000
000000
006F90
02FAF8
0B807C
0A003D
00003D
01BFFC
0BEABC
2E0078
3C00B8
7C00F4
7D07F4
2FFFF4
07F8F4
ENDCHAR
STARTCHAR uni1EB6
ENCODING 7862
SWIDTH 637 0
DWIDTH 15 0
BBX 15 26 -1 -5
BITMAP
0001D074
0000F6F0
00006F80
00000000
00003D00
00007E00
0000FE00
0002EF00
0003CB00
000B8B40
001F0780
002E0780
007C03C0
00F403C0
01F002D0
03FFFFE0
07FFFFE0
0F4001F0
2E0000F0
3D0000B4
B80000B8
00000000
00000000
000B0000
001F4000
00050000
ENDCHAR
STARTCHAR uni1EB7
ENCODING 7863
SWIDTH 532 0
DWIDTH 13 0
BBX 12 22 0 -5
BITMAP
00380E
002E7D
000BE4
000000
006F90
02FAF8
0B807C
0A003D
00003D
01BFFC
0BEABC
2E0078
3C00B8
7C00F4
7D07F4
2FFFF4
07F8F4
000000
000000
038000
07C000
014000
ENDCHAR
STARTCHAR uni1EB8
ENCODING 7864
SWIDTH 556 0
DWIDTH 13 0
BBX 14 22 0 -5
BITMAP
01FFFFF0
02FFFFE0
02D00000
03D00000
03C00000
07C00000
07800000
0BFFFE00
0BFFFD00
0F000000
1F000000
1E000000
2E000000
2D000000
3D000000
3FFFFD00
7FFFFD00
00000000
00000000
00B40000
00F40000
00500000
ENDCHAR
STARTCHAR uni1EB9
ENCODING 7865
SWIDTH 518 0
DWIDTH 12 0
BBX 11 18 1 -5
BITMAP
01BE40
07FFE0
1F41F0
3C00B4
780078
BFFFF8
FAAAA4
F00000
F40000
B80040
7D02D0
2FEF80
06F900
000000
000000
078000
07C000
014000
ENDCHAR
STARTCHAR uni1EBA
ENCODING 7866
SWIDTH 556 0
DWIDTH 13 0
BBX 14 24 0 0
BITMAP
00007800
00001F00
00000B00
00007D00
0000B000
00000000
00000000
01FFFFF0
02FFFFE0
02D00000
03D00000
03C00000
07C00000
07800000
0BFFFE00
0BFFFD00
0F000000
1F000000
1E000000
2E000000
2D000000
3D000000
3FFFFD00
7FFFFD00
ENDCHAR
STARTCHAR uni1EBB
ENCODING 7867
SWIDTH 518 0
DWIDTH 12 0
BBX 11 20 1 0
BITMAP
000B80
0005D0
0001E0
000B80
000E00
000000
000000
01BE40
07FFE0
1F41F0
3C00B4
780078
BFFFF8
FAAAA4
F00000
F40000
B80040
7D02D0
2FEF80
06F900
ENDCHAR
STARTCHAR uni1EBC
ENCODING 7868
SWIDTH 556 0
DWIDTH 13 0
BBX 14 22 0 0
BITMAP
00064090
001FFBC0
00282F40
00000000
00000000
01FFFFF0
02FFFFE0
02D00000
03D00000
03C00000
07C00000
07800000
0BFFFE00
0BFFFD00
0F000000
1F000000
1E000000
2E000000
2D000000
3D000000
3FFFFD00
7FFFFD00
ENDCHAR
STARTCHAR uni1EBD
ENCODING 7869
SWIDTH 518 0
DWIDTH 12 0
BBX 11 18 1 0
BITMAP
00A418
02FFB8
0746E0
000000
000000
01BE40
07FFE0
1F41F0
3C00B4
780078
BFFFF8
FAAAA4
F00000
F40000
B80040
7D02D0
2FEF80
06F900
ENDCHAR
STARTCHAR uni1EBE
ENCODING 7870
SWIDTH 556 0
DWIDTH 13 0
BBX 17 24 0 0
BITMAP
0000000B80
0000002E00
0001F82800
000BDF0000
002E078000
0000000000
0000000000
01FFFFF000
02FFFFE000
02D0000000
03D0000000
03C0000000
07C0000000
0780000000
0BFFFE0000
0BFFFD0000
0F00000000
1F00000000
1E00000000
2E00000000
2D00000000
3D00000000
3FFFFD0000
7FFFFD0000
ENDCHAR
STARTCHAR uni1EBF
ENCODING 7871
SWIDTH 518 0
DWIDTH 12 0
BBX 15 20 1 0
BITMAP
000000F4
000003D0
002F4740
01FAE000
06D0A400
00000000
00000000
01BE4000
07FFE000
1F41F000
3C00B400
78007800
BFFFF800
FAAAA400
F0000000
F4000000
B8004000
7D02D000
2FEF8000
06F90000
ENDCHAR
STARTCHAR uni1EC0
ENCODING 7872
SWIDTH 556 0
DWIDTH 13 0
BBX 14 24 0 0
BITMAP
03C00000
01E00000
00A00000
0001F800
000BDE00
002E0780
00000000
01FFFFF0
02FFFFE0
02D00000
03D00000
03C00000
07C00000
07800000
0BFFFE00
0BFFFD00
0F000000
1F000000
1E000000
2E000000
2D000000
3D000000
3FFFFD00
7FFFFD00
ENDCHAR
STARTCHAR uni1EC1
ENCODING 7873
SWIDTH 518 0
DWIDTH 12 0
BBX 11 20 1 0
BITMAP
780000
2C0000
1D0000
002F40
01FAE0
06D0A4
000000
01BE40
07FFE0
1F41F0
3C00B4
780078
BFFFF8
FAAAA4
F00000
F40000
B80040
7D02D0
2FEF80
06F900
ENDCHAR
STARTCHAR uni1EC2
ENCODING 7874
SWIDTH 556 0
DWIDTH 13 0
BBX 16 24 0 0
BITMAP
00000038
0000000E
0000006D
0001FCB0
000B9F00
002D0780
00000000
01FFFFF0
02FFFFE0
02D00000
03D00000
03C00000
07C00000
07800000
0BFFFE00
0BFFFD00
0F000000
1F000000
1E000000
2E000000
2D000000
3D000000
3FFFFD00
7FFFFD00
ENDCHAR
STARTCHAR uni1EC3
ENCODING 7875
SWIDTH 518 0
DWIDTH 12 0
BBX 14 21 1 0
BITMAP
00000740
000001D0
000006C0
002F8E00
01F5E000
06D0B400
00000000
00000000
01BE4000
07FFE000
1F41F000
3C00B400
78007800
BFFFF800
FAAAA400
F0000000
F4000000
B8004000
7D02D000
2FEF8000
06F90000
ENDCHAR
STARTCHAR uni1EC4
ENCODING 7876
SWIDTH 556 0
DWIDTH 13 0
BBX 14 25 0 0
BITMAP
00004000
0002E680
00061E00
00000000
0001F800
000B9E00
002D0740
00000000
01FFFFF0
02FFFFE0
02D00000
03D00000
03C00000
07C00000
07800000
0BFFFE00
0BFFFD00
0F000000
1F000000
1E000000
2E000000
2D000000
3D000000
3FFFFD00
7FFFFD00
ENDCHAR
STARTCHAR uni1EC5
ENCODING 7877
SWIDTH 518 0
DWIDTH 12 0
BBX 11 20 1 0
BITMAP
007E74
0092E0
000000
002F40
01F6D0
06D0A4
000000
01BE40
07FFE0
1F41F0
3C00B4
780078
BFFFF8
FAAAA4
F00000
F40000
B80040
7D02D0
2FEF80
06F900
ENDCHAR
STARTCHAR uni1EC6
ENCODING 7878
SWIDTH 556 0
DWIDTH 13 0
BBX 14 27 0 -5
BITMAP
0001B800
000BEE00
001E0B40
00000000
00000000
01FFFFF0
02FFFFE0
02D00000
03D00000
03C00000
07C00000
07800000
0BFFFE00
0BFFFD00
0F000000
1F000000
1E000000
2E000000
2D000000
3D000000
3FFFFD00
7FFFFD00
00000000
00000000
00B40000
00F40000
00500000
ENDCHAR
STARTCHAR uni1EC7
ENCODING 7879
SWIDTH 518 0
DWIDTH 12 0
BBX 11 23 1 -5
BITMAP
001F40
01BAE0
02E0F0
000000
000000
01BE40
07FFE0
1F41F0
3C00B4
780078
BFFFF8
FAAAA4
F00000
F40000
B80040
7D02D0
2FEF80
06F900
000000
000000
078000
07C000
014000
ENDCHAR
STARTCHAR uni1EC8
ENCODING 7880
SWIDTH 268 0
DWIDTH 6 0
BBX 7 24 1 0
BITMAP
00E4
006C
002C
01F4
01C0
0000
0000
07C0
0780
0B80
0B40
0F40
0F00
1F00
1E00
2E00
3D00
3D00
7C00
7800
B800
B400
F400
F000
ENDCHAR
STARTCHAR uni1EC9
ENCODING 7881
SWIDTH 244 0
DWIDTH 6 0
BBX 7 20 0 0
BITMAP
00E4
006C
002C
01F8
01C0
0000
0000
0780
0B80
0B40
0F40
0F00
1F00
1E00
2E00
2D00
3D00
3C00
7C00
7800
ENDCHAR
STARTCHAR uni1ECA
ENCODING 7882
SWIDTH 268 0
DWIDTH 6 0
BBX 6 22 0 -5
BITMAP
01F0
01E0
02E0
02D0
03D0
03C0
07C0
0780
0B80
0F40
0F40
1F00
1E00
2E00
2D00
3D00
3C00
0000
0000
7400
B800
5000
ENDCHAR
STARTCHAR uni1ECB
ENCODING 7883
SWIDTH 240 0
DWIDTH 6 0
BBX 6 23 0 -5
BITMAP
0040
02E0
02D0
0000
0000
0780
0B80
0B40
0F40
0F00
1F00
1E00
2E00
2D00
3D00
3C00
7C00
7800
0000
0000
B000
F400
5000
ENDCHAR
STARTCHAR uni1ECC
ENCODING 7884
SWIDTH 671 0
DWIDTH 16 0
BBX 14 22 1 -5
BITMAP
001BF900
00BFFF40
02F40BC0
0B8002E0
1F4001F0
2E0000F0
3D0000F0
7C0000F0
7C0001F0
780001E0
B80002E0
780003D0
7C000B80
3D001F40
2F407D00
0BFFF400
01BF8000
00000000
00000000
00B40000
00F40000
00500000
ENDCHAR
STARTCHAR uni1ECD
ENCODING 7885
SWIDTH 558 0
DWIDTH 13 0
BBX 12 18 1 -5
BITMAP
01BF40
0BFBE0
1F40F4
3D007C
B8003C
B4003D
F0003C
F0003C
F00078
B400F4
7D07E0
2FFF80
06F900
000000
000000
03C000
07C000
014000
ENDCHAR
STARTCHAR uni1ECE
ENCODING 7886
SWIDTH 671 0
DWIDTH 16 0
BBX 14 24 1 0
BITMAP
00007800
00001E00
00000B00
00007D00
0000B000
00000000
00000000
001BF900
00BFFF40
02F40BC0
0B8002E0
1F4001F0
2E0000F0
3D0000F0
7C0000F0
7C0001F0
780001E0
B80002E0
780003D0
7C000B80
3D001F40
2F407D00
0BFFF400
01BF8000
ENDCHAR
STARTCHAR uni1ECF
ENCODING 7887
SWIDTH 558 0
DWIDTH 13 0
BBX 12 20 1 0
BITMAP
000780
0001E0
0000E0
000BD0
000E00
000000
000000
01BF40
0BFBE0
1F40F4
3D007C
B8003C
B4003D
F0003C
F0003C
F00078
B400F4
7D07E0
2FFF80
06F900
ENDCHAR
STARTCHAR uni1ED0
ENCODING 7888
SWIDTH 671 0
DWIDTH 16 0
BBX 17 24 1 0
BITMAP
0000000B80
0000002E00
0001F82800
000BEE0000
002E078000
0000000000
0000000000
001BF90000
00BFFF4000
02F40BC000
0B8002E000
1F4001F000
2E0000F000
3D0000F000
7C0000F000
7C0001F000
780001E000
B80002E000
780003D000
7C000B8000
3D001F4000
2F407D0000
0BFFF40000
01BF800000
ENDCHAR
STARTCHAR uni1ED1
ENCODING 7889
SWIDTH 558 0
DWIDTH 13 0
BBX 15 20 1 0
BITMAP
000000F4
000002E0
001F8780
01BAE000
02E0A400
00000000
00000000
01BF4000
0BFBE000
1F40F400
3D007C00
B8003C00
B4003D00
F0003C00
F0003C00
F0007800
B400F400
7D07E000
2FFF8000
06F90000
ENDCHAR
STARTCHAR uni1ED2
ENCODING 7890
SWIDTH 671 0
DWIDTH 16 0
BBX 14 24 1 0
BITMAP
03C00000
01D00000
00A00000
0001F800
000BEE00
002E0740
00000000
001BF900
00BFFF40
02F40BC0
0B8002E0
1F4001F0
2E0000F0
3D0000F0
7C0000F0
7C0001F0
780001E0
B80002E0
780003D0
7C000B80
3D001F40
2F407D00
0BFFF400
01BF8000
ENDCHAR
STARTCHAR uni1ED3
ENCODING 7891
SWIDTH 558 0
DWIDTH 13 0
BBX 12 20 1 0
BITMAP
780000
2D0000
0D0000
002F80
01FAE0
02D0A4
000000
01BF40
0BFBE0
1F40F4
3D007C
B8003C
B4003D
F0003C
F0003C
F00078
B400F4
7D07E0
2FFF80
06F900
ENDCHAR
STARTCHAR uni1ED4
ENCODING 7892
SWIDTH 671 0
DWIDTH 16 0
BBX 16 24 1 0
BITMAP
00000038
0000001E
0000006D
0001FCB0
000B9F00
002D0780
00000000
001BF900
00BFFF40
02F40BC0
0B8002E0
1F4001F0
2E0000F0
3D0000F0
7C0000F0
7C0001F0
780001E0
B80002E0
780003D0
7C000B80
3D001F40
2F407D00
0BFFF400
01BF8000
ENDCHAR
STARTCHAR uni1ED5
ENCODING 7893
SWIDTH 558 0
DWIDTH 13 0
BBX 14 21 1 0
BITMAP
00000780
000001D0
000006C0
002F8A00
01F5E000
06D07400
00000000
00000000
01BF4000
0BFBE000
1F40F400
3D007C00
B8003C00
B4003D00
F0003C00
F0003C00
F0007800
B400F400
7D07E000
2FFF8000
06F90000
ENDCHAR
STARTCHAR uni1ED6
ENCODING 7894
SWIDTH 671 0
DWIDTH 16 0
BBX 14 25 1 0
BITMAP
00004000
0002E680
00061E00
00000000
0001F800
000B9E00
002D0740
00000000
001BF900
00BFFF40
02F40BC0
0B8002E0
1F4001F0
2E0000F0
3D0000F0
7C0000F0
7C0001F0
780001E0
B80002E0
780003D0
7C000B80
3D001F40
2F407D00
0BFFF400
01BF8000
ENDCHAR
STARTCHAR uni1ED7
ENCODING 7895
SWIDTH 558 0
DWIDTH 13 0
BBX 12 20 1 0
BITMAP
007E74
00A2E0
000000
002F40
01F6E0
06D0B4
000000
01BF40
0BFBE0
1F40F4
3D007C
B8003C
B4003D
F0003C
F0003C
F00078
B400F4
7D07E0
2FFF80
06F900
ENDCHAR
STARTCHAR uni1ED8
ENCODING 7896
SWIDTH 671 0
DWIDTH 16 0
BBX 14 27 1 -5
BITMAP
0001B800
000BEE00
001E0B40
00000000
00000000
001BF900
00BFFF40
02F40BC0
0B8002E0
1F4001F0
2E0000F0
3D0000F0
7C0000F0
7C0001F0
780001E0
B80002E0
780003D0
7C000B80
3D001F40
2F407D00
0BFFF400
01BF8000
00000000
00000000
00B40000
00F40000
00500000
ENDCHAR
STARTCHAR uni1ED9
ENCODING 7897
SWIDTH 558 0
DWIDTH 13 0
BBX 12 23 1 -5
BITMAP
001F40
00BAE0
02E0F4
000000
000000
01BF40
0BFBE0
1F40F4
3D007C
B8003C
B4003D
F0003C
F0003C
F00078
B400F4
7D07E0
2FFF80
06F900
000000
000000
03C000
07C000
014000
ENDCHAR
STARTCHAR uni1EDA
ENCODING 7898
SWIDTH 670 0
DWIDTH 16 0
BBX 17 22 1 0
BITMAP
00001F8000
00007D0000
0000B40000
0000000040
00000002C0
001BF803C0
00BFFF5F40
03E40BFD00
0B8003E000
1F0001E000
3D0001F000
3C0001F000
780001F000
B80001E000
B40002E000
B40003D000
B80007C000
B8000B8000
7C001F0000
2F40BD0000
0FFFF40000
01BE400000
ENDCHAR
STARTCHAR uni1EDB
ENCODING 7899
SWIDTH 559 0
DWIDTH 13 0
BBX 14 18 1 0
BITMAP
0001F800
0007D000
000B4000
00000000
000000A0
01BF40E0
0BFFE2D0
1F40BF40
3D007C00
B8003D00
B4003D00
F0003D00
F0007C00
F000B800
B400F400
7C07E000
2FBF8000
06F90000
ENDCHAR
STARTCHAR uni1EDC
ENCODING 7900
SWIDTH 670 0
DWIDTH 16 0
BBX 17 22 1 0
BITMAP
000B800000
0002D00000
0000E00000
0000000040
00000002C0
001BF803C0
00BFFF5F40
03E40BFD00
0B8003E000
1F0001E000
3D0001F000
3C0001F000
780001F000
B80001E000
B40002E000
B40003D000
B80007C000
B8000B8000
7C001F0000
2F40BD0000
0FFFF40000
01BE400000
ENDCHAR
STARTCHAR uni1EDD
ENCODING 7901
SWIDTH 559 0
DWIDTH 13 0
BBX 14 18 1 0
BITMAP
00B80000
002D0000
000E0000
00000000
000000A0
01BF40E0
0BFFE2D0
1F40BF40
3D007C00
B8003D00
B4003D00
F0003D00
F0007C00
F000B800
B400F400
7C07E000
2FBF8000
06F90000
ENDCHAR
STARTCHAR uni1EDE
ENCODING 7902
SWIDTH 670 0
DWIDTH 16 0
BBX 17 24 1 0
BITMAP
0000780000
00001E0000
00000F0000
0000BD0000
0000B00000
0000000040
00000002C0
001BF803C0
00BFFF5F40
03E40BFD00
0B8003E000
1F0001E000
3D0001F000
3C0001F000
780001F000
B80001E000
B40002E000
B40003D000
B80007C000
B8000B8000
7C001F0000
2F40BD0000
0FFFF40000
01BE400000
ENDCHAR
STARTCHAR uni1EDF
ENCODING 7903
SWIDTH 559 0
DWIDTH 13 0
BBX 14 20 1 0
BITMAP
00078000
0001E000
0000B000
000BD000
000B0000
00000000
000000A0
01BF40E0
0BFFE2D0
1F40BF40
3D007C00
B8003D00
B4003D00
F0003D00
F0007C00
F000B800
B400F400
7C07E000
2FBF8000
06F90000
ENDCHAR
STARTCHAR uni1EE0
ENCODING 7904
SWIDTH 670 0
DWIDTH 16 0
BBX 17 22 1 0
BITMAP
0006409000
002FFBC000
00386F4000
0000000040
00000002C0
001BF803C0
00BFFF5F40
03E40BFD00
0B8003E000
1F0001E000
3D0001F000
3C0001F000
780001F000
B80001E000
B40002E000
B40003D000
B80007C000
B8000B8000
7C001F0000
2F40BD0000
0FFFF40000
01BE400000
ENDCHAR
STARTCHAR uni1EE1
ENCODING 7905
SWIDTH 559 0
DWIDTH 13 0
BBX 14 18 1 0
BITMAP
00640900
01FFBC00
0386F400
00000000
000000A0
01BF40E0
0BFFE2D0
1F40BF40
3D007C00
B8003D00
B4003D00
F0003D00
F0007C00
F000B800
B400F400
7C07E000
2FBF8000
06F90000
ENDCHAR
STARTCHAR uni1EE2
ENCODING 7906
SWIDTH 670 0
DWIDTH 16 0
BBX 17 24 1 -5
BITMAP
0000000040
00000002C0
001BF803C0
00BFFF5F40
03E40BFD00
0B8003E000
1F0001E000
3D0001F000
3C0001F000
780001F000
B80001E000
B40002E000
B40003D000
B80007C000
B8000B8000
7C001F0000
2F40BD0000
0FFFF40000
01BE400000
0000000000
0000000000
00B0000000
00F4000000
0050000000
ENDCHAR
STARTCHAR uni1EE3
ENCODING 7907
SWIDTH 559 0
DWIDTH 13 0
BBX 14 19 1 -5
BITMAP
000000A0
01BF40E0
0BFFE2D0
1F40BF40
3D007C00
B8003D00
B4003D00
F0003D00
F0007C00
F000B800
B400F400
7C07E000
2FBF8000
06F90000
00000000
00000000
03800000
07C00000
01400000
ENDCHAR
STARTCHAR uni1EE4
ENCODING 7908
SWIDTH 633 0
DWIDTH 15 0
BBX 15 22 1 -5
BITMAP
0B4000F4
0F4000F0
0F0001F0
1F0001E0
1E0002E0
2E0002D0
2D0003D0
3D0003C0
3C0007C0
7C000780
78000B80
B8000F40
B8001F00
7C002E00
3E00BC00
1FFFF400
06FE4000
00000000
00000000
01E00000
01F00000
00500000
ENDCHAR
STARTCHAR uni1EE5
ENCODING 7909
SWIDTH 539 0
DWIDTH 13 0
BBX 12 18 1 -5
BITMAP
1E003D
2E003C
2D007C
3D0078
3C00B8
7C00B4
7800F4
B800F0
B401F0
B402E0
B80BE0
7FFFD0
1BE6D0
000000
000000
0B0000
1F4000
050000
ENDCHAR
STARTCHAR uni1EE6
ENCODING 7910
SWIDTH 633 0
DWIDTH 15 0
BBX 15 24 1 0
BITMAP
0000B400
00006D00
00001D00
0000F800
0000E000
00000000
00000000
0B4000F4
0F4000F0
0F0001F0
1F0001E0
1E0002E0
2E0002D0
2D0003D0
3D0003C0
3C0007C0
7C000780
78000B80
B8000F40
B8001F00
7C002E00
3E00BC00
1FFFF400
06FE4000
ENDCHAR
STARTCHAR uni1EE7
ENCODING 7911
SWIDTH 539 0
DWIDTH 13 0
BBX 12 20 1 0
BITMAP
000780
0001E0
0000E0
000BD0
000E00
000000
000000
1E003D
2E003C
2D007C
3D0078
3C00B8
7C00B4
7800F4
B800F0
B401F0
B402E0
B80BE0
7FFFD0
1BE6D0
ENDCHAR
STARTCHAR uni1EE8
ENCODING 7912
SWIDTH 679 0
DWIDTH 16 0
BBX 19 22 1 0
BITMAP
00001F4000
00007D0000
0000B40000
0000000024
0000000078
0B8000B4B4
0B4000F6E0
0F4000FF80
0F0001F500
1F0002E000
1E0002D000
2E0003D000
2D0003C000
3D0007C000
3C00078000
78000B8000
78000B4000
B8000F0000
7C002E0000
3E00BC0000
1FFFF40000
02FE400000
ENDCHAR
STARTCHAR uni1EE9
ENCODING 7913
SWIDTH 604 0
DWIDTH 15 0
BBX 15 18 1 0
BITMAP
0001F400
0007D000
000B4000
00000000
00000018
1E003D38
2E003DB4
2D007FD0
3D007D00
3C00B800
7C00B800
7800F400
B800F000
B401F000
B402E000
B80BE000
7FFFD000
1BE6D000
ENDCHAR
STARTCHAR uni1EEA
ENCODING 7914
SWIDTH 679 0
DWIDTH 16 0
BBX 19 22 1 0
BITMAP
000B800000
0002D00000
0000E00000
0000000024
0000000078
0B8000B4B4
0B4000F6E0
0F4000FF80
0F0001F500
1F0002E000
1E0002D000
2E0003D000
2D0003C000
3D0007C000
3C00078000
78000B8000
78000B4000
B8000F0000
7C002E0000
3E00BC0000
1FFFF40000
02FE400000
ENDCHAR
STARTCHAR uni1EEB
ENCODING 7915
SWIDTH 604 0
DWIDTH 15 0
BBX 15 18 1 0
BITMAP
00B80000
002D0000
000E0000
00000000
00000018
1E003D38
2E003DB4
2D007FD0
3D007D00
3C00B800
7C00B800
7800F400
B800F000
B401F000
B402E000
B80BE000
7FFFD000
1BE6D000
ENDCHAR
STARTCHAR uni1EEC
ENCODING 7916
SWIDTH 679 0
DWIDTH 16 0
BBX 19 24 1 0
BITMAP
0000780000
00001E0000
00000E0000
0000BD0000
0000A00000
0000000024
0000000078
0B8000B4B4
0B4000F6E0
0F4000FF80
0F0001F500
1F0002E000
1E0002D000
2E0003D000
2D0003C000
3D0007C000
3C00078000
78000B8000
78000B4000
B8000F0000
7C002E0000
3E00BC0000
1FFFF40000
02FE400000
ENDCHAR
STARTCHAR uni1EED
ENCODING 7917
SWIDTH 604 0
DWIDTH 15 0
BBX 15 20 1 0
BITMAP
00078000
0001E000
0000E000
000BD000
000B0000
00000000
00000018
1E003D38
2E003DB4
2D007FD0
3D007D00
3C00B800
7C00B800
7800F400
B800F000
B401F000
B402E000
B80BE000
7FFFD000
1BE6D000
ENDCHAR
STARTCHAR uni1EEE
ENCODING 7918
SWIDTH 679 0
DWIDTH 16 0
BBX 19 22 1 0
BITMAP
0006418000
002FFBC000
00386E4000
0000000024
0000000078
0B8000B4B4
0B4000F6E0
0F4000FF80
0F0001F500
1F0002E000
1E0002D000
2E0003D000
2D0003C000
3D0007C000
3C00078000
78000B8000
78000B4000
B8000F0000
7C002E0000
3E00BC0000
1FFFF40000
02FE400000
ENDCHAR
STARTCHAR uni1EEF
ENCODING 7919
SWIDTH 604 0
DWIDTH 15 0
BBX 15 18 1 0
BITMAP
00641900
02FFBC00
0386E400
00000000
00000018
1E003D38
2E003DB4
2D007FD0
3D007D00
3C00B800
7C00B800
7800F400
B800F000
B401F000
B402E000
B80BE000
7FFFD000
1BE6D000
ENDCHAR
STARTCHAR uni1EF0
ENCODING 7920
SWIDTH 679 0
DWIDTH 16 0
BBX 19 24 1 -5
BITMAP
0000000024
0000000078
0B8000B4B4
0B4000F6E0
0F4000FF80
0F0001F500
1F0002E000
1E0002D000
2E0003D000
2D0003C000
3D0007C000
3C00078000
78000B8000
78000B4000
B8000F0000
7C002E0000
3E00BC0000
1FFFF40000
02FE400000
0000000000
0000000000
00B0000000
00F4000000
0050000000
ENDCHAR
STARTCHAR uni1EF1
ENCODING 7921
SWIDTH 604 0
DWIDTH 15 0
BBX 15 19 1 -5
BITMAP
00000018
1E003D38
2E003DB4
2D007FD0
3D007D00
3C00B800
7C00B800
7800F400
B800F000
B401F000
B402E000
B80BE000
7FFFD000
1BE6D000
00000000
00000000
07800000
0B800000
01000000
ENDCHAR
STARTCHAR Ygrave
ENCODING 7922
SWIDTH 587 0
DWIDTH 14 0
BBX 14 22 2 0
BITMAP
00B80000
002D0000
000E0000
00000000
00000000
F80007D0
7C000F80
3D002E00
2E007C00
1F00F400
0F02E000
0B47C000
079F4000
03FE0000
02F80000
01F40000
01E00000
02E00000
02D00000
03D00000
03C00000
07C00000
ENDCHAR
STARTCHAR ygrave
ENCODING 7923
SWIDTH 463 0
DWIDTH 11 0
BBX 13 23 -1 -5
BITMAP
001F0000
000B8000
00028000
00000000
00000000
0B800B80
07801F00
07C02E00
03C07C00
03C0B400
02D1F000
02D2D000
01E3C000
01EB4000
00FF0000
00FD0000
00BC0000
00B40000
00F00000
02D00000
07C00000
FF400000
F9000000
ENDCHAR
STARTCHAR uni1EF4
ENCODING 7924
SWIDTH 587 0
DWIDTH 14 0
BBX 14 22 2 -5
BITMAP
F80007D0
7C000F80
3D002E00
2E007C00
1F00F400
0F02E000
0B47C000
079F4000
03FE0000
02F80000
01F40000
01E00000
02E00000
02D00000
03D00000
03C00000
07C00000
00000000
00000000
0B400000
0F400000
05000000
ENDCHAR
STARTCHAR uni1EF5
ENCODING 7925
SWIDTH 463 0
DWIDTH 11 0
BBX 13 20 -1 -7
BITMAP
0B800B80
07801F00
07C02E00
03C07C00
03C0B400
02D1F000
02D2D000
01E3C000
01EB4000
00FF0000
00FD0000
00BC0000
00B40000
00F00000
02D00000
07C00000
FF400000
F90B0000
001F4000
00050000
ENDCHAR
STARTCHAR uni1EF6
ENCODING 7926
SWIDTH 587 0
DWIDTH 14 0
BBX 14 24 2 0
BITMAP
00078000
0001E000
0000B000
000BD000
000B0000
00000000
00000000
F80007D0
7C000F80
3D002E00
2E007C00
1F00F400
0F02E000
0B47C000
079F4000
03FE0000
02F80000
01F40000
01E00000
02E00000
02D00000
03D00000
03C00000
07C00000
ENDCHAR
STARTCHAR uni1EF7
ENCODING 7927
SWIDTH 463 0
DWIDTH 11 0
BBX 13 25 -1 -5
BITMAP
0000E400
00006C00
00002C00
0001F400
0002C000
00000000
00000000
0B800B80
07801F00
07C02E00
03C07C00
03C0B400
02D1F000
02D2D000
01E3C000
01EB4000
00FF0000
00FD0000
00BC0000
00B40000
00F00000
02D00000
07C00000
FF400000
F9000000
ENDCHAR
STARTCHAR uni1EF8
ENCODING 7928
SWIDTH 587 0
DWIDTH 14 0
BBX 14 22 2 0
BITMAP
00640900
01FFBC00
0386F400
00000000
00000000
F80007D0
7C000F80
3D002E00
2E007C00
1F00F400
0F02E000
0B47C000
079F4000
03FE0000
02F80000
01F40000
01E00000
02E00000
02D00000
03D00000
03C00000
07C00000
ENDCHAR
STARTCHAR uni1EF9
ENCODING 7929
SWIDTH 463 0
DWIDTH 11 0
BBX 13 23 -1 -5
BITMAP
001A0240
007FEF40
00B0BD00
00000000
00000000
0B800B80
07801F00
07C02E00
03C07C00
03C0B400
02D1F000
02D2D000
01E3C000
01EB4000
00FF0000
00FD0000
00BC0000
00B40000
00F00000
02D00000
07C00000
FF400000
F9000000
ENDCHAR
STARTCHAR uni1F4D
ENCODING 8013
SWIDTH 706 0
DWIDTH 17 0
BBX 20 17 -4 0
BITMAP
B43D01BF80
B4B40FFFF4
74D03E40BC
2A80B8003D
0001F0001E
0002D0001F
0003C0001F
000780001F
000B80001E
000B80002E
000B40003D
000B80007C
00078000B8
0007D001F0
0002F40BD0
0000BFFF40
00001BE800
ENDCHAR
STARTCHAR uni2000
ENCODING 8192
SWIDTH 499 0
DWIDTH 12 0
BBX 1 1 0 0
BITMAP
00
ENDCHAR
STARTCHAR uni2001
ENCODING 8193
SWIDTH 994 0
DWIDTH 24 0
BBX 1 1 0 0
BITMAP
00
ENDCHAR
STARTCHAR uni2002
ENCODING 8194
SWIDTH 499 0
DWIDTH 12 0
BBX 1 1 0 0
BITMAP
00
ENDCHAR
STARTCHAR uni2003
ENCODING 8195
SWIDTH 994 0
DWIDTH 24 0
BBX 1 1 0 0
BITMAP
00
ENDCHAR
STARTCHAR uni2004
ENCODING 8196
SWIDTH 334 0
DWIDTH 8 0
BBX 1 1 0 0
BITMAP
00
ENDCHAR
STARTCHAR uni2005
ENCODING 8197
SWIDTH 251 0
DWIDTH 6 0
BBX 1 1 0 0
BITMAP
00
ENDCHAR
STARTCHAR uni2006
ENCODING 8198
SWIDTH 169 0
DWIDTH 4 0
BBX 1 1 0 0
BITMAP
00
ENDCHAR
STARTCHAR uni2007
ENCODING 8199
SWIDTH 549 0
DWIDTH 13 0
BBX 1 1 0 0
BITMAP
00
ENDCHAR
STARTCHAR uni2008
ENCODING 8200
SWIDTH 270 0
DWIDTH 6 0
BBX 1 1 0 0
BITMAP
00
ENDCHAR
STARTCHAR uni2009
ENCODING 8201
SWIDTH 202 0
DWIDTH 5 0
BBX 1 1 0 0
BITMAP
00
ENDCHAR
STARTCHAR uni200A
ENCODING 8202
SWIDTH 104 0
DWIDTH 3 0
BBX 1 1 0 0
BITMAP
00
ENDCHAR
STARTCHAR uni200B
ENCODING 8203
SWIDTH 0 0
DWIDTH 0 0
BBX 1 1 0 0
BITMAP
00
ENDCHAR
STARTCHAR uni2010
ENCODING 8208
SWIDTH 271 0
DWIDTH 7 0
BBX 6 2 0 6
BITMAP
7FF0
6AA0
ENDCHAR
STARTCHAR uni2011
ENCODING 8209
SWIDTH 271 0
DWIDTH 7 0
BBX 6 2 0 6
BITMAP
7FF0
6AA0
ENDCHAR
STARTCHAR endash
ENCODING 8211
SWIDTH 641 0
DWIDTH 15 0
BBX 12 2 2 7
BITMAP
BFFFFE
AAAAA9
ENDCHAR
STARTCHAR emdash
ENCODING 8212
SWIDTH 762 0
DWIDTH 18 0
BBX 16 2 2 7
BITMAP
FFFFFFFD
AAAAAAA8
ENDCHAR
STARTCHAR uni2015
ENCODING 8213
SWIDTH 762 0
DWIDTH 18 0
BBX 16 2 2 7
BITMAP
FFFFFFFD
AAAAAAA8
ENDCHAR
STARTCHAR underscoredbl
ENCODING 8215
SWIDTH 446 0
DWIDTH 11 0
BBX 12 5 -2 -5
BITMAP
3FFFFD
6AAAA8
000000
BFFFF8
AAAAA4
ENDCHAR
STARTCHAR quoteleft
ENCODING 8216
SWIDTH 198 0
DWIDTH 5 0
BBX 4 6 2 12
BITMAP
0A
1E
3C
78
B4
F4
ENDCHAR
STARTCHAR quoteright
ENCODING 8217
SWIDTH 198 0
DWIDTH 5 0
BBX 4 6 2 12
BITMAP
2E
2D
3C
78
F4
90
ENDCHAR
STARTCHAR quotesinglbase
ENCODING 8218
SWIDTH 197 0
DWIDTH 5 0
BBX 4 5 -1 -3
BITMAP
1E
2D
3C
B4
A0
ENDCHAR
STARTCHAR quotereversed
ENCODING 8219
SWIDTH 198 0
DWIDTH 5 0
BBX 3 6 2 12
BITMAP
78
78
78
78
3C
18
ENDCHAR
STARTCHAR quotedblleft
ENCODING 8220
SWIDTH 347 0
DWIDTH 8 0
BBX 8 6 2 12
BITMAP
0A09
1E2D
3D78
78B4
B8F0
B5F0
ENDCHAR
STARTCHAR quotedblright
ENCODING 8221
SWIDTH 351 0
DWIDTH 8 0
BBX 8 6 2 12
BITMAP
1E3D
2E3C
3D78
7CB4
B5E0
9180
ENDCHAR
STARTCHAR quotedblbase
ENCODING 8222
SWIDTH 338 0
DWIDTH 8 0
BBX 7 6 -1 -3
BITMAP
1E3C
2E3C
2D78
3CB4
B5E0
A180
ENDCHAR
STARTCHAR dagger
ENCODING 8224
SWIDTH 539 0
DWIDTH 13 0
BBX 12 17 1 0
BITMAP
001F00
001E00
002E00
002D00
7FFFFF
6ABEAA
007C00
007800
007800
00B800
00B400
00F400
00F000
01F000
01E000
02E000
02D000
ENDCHAR
STARTCHAR daggerdbl
ENCODING 8225
SWIDTH 557 0
DWIDTH 13 0
BBX 13 22 0 -5
BITMAP
0003C000
0007C000
00078000
000B8000
1FFFFFC0
1AAFEA80
000F0000
000F0000
001E0000
001E0000
002E0000
002D0000
003D0000
003C0000
007C0000
AAFEA900
FFFFFD00
00B40000
00B40000
00F00000
00F00000
01F00000
ENDCHAR
STARTCHAR bullet
ENCODING 8226
SWIDTH 331 0
DWIDTH 8 0
BBX 5 5 2 6
BITMAP
6E00
FF40
FF40
FF40
7E00
ENDCHAR
STARTCHAR twodotenleader
ENCODING 8229
SWIDTH 461 0
DWIDTH 11 0
BBX 9 3 0 0
BITMAP
140500
7D1F40
380E00
ENDCHAR
STARTCHAR ellipsis
ENCODING 8230
SWIDTH 653 0
DWIDTH 16 0
BBX 13 3 0 0
BITMAP
14050240
7D1F4BC0
380E0780
ENDCHAR
STARTCHAR uni2027
ENCODING 8231
SWIDTH 186 0
DWIDTH 4 0
BBX 3 3 1 5
BITMAP
B4
F4
50
ENDCHAR
STARTCHAR perthousand
ENCODING 8240
SWIDTH 934 0
DWIDTH 22 0
BBX 19 17 2 0
BITMAP
1B90000000
79B4000000
B038060000
E0380E0000
D0382C0000
E074B40000
BAE1D00000
2F83800000
000F000000
002C6F4BD0
0075E6FEB4
01E3C0F038
038380E02C
0B0740E038
2D0381E074
2402DBF9F0
0000BD2F80
ENDCHAR
STARTCHAR minute
ENCODING 8242
SWIDTH 173 0
DWIDTH 4 0
BBX 3 6 2 12
BITMAP
78
74
74
B0
A0
E0
ENDCHAR
STARTCHAR second
ENCODING 8243
SWIDTH 314 0
DWIDTH 8 0
BBX 6 6 2 12
BITMAP
28A0
38E0
34E0
75D0
71C0
A180
ENDCHAR
STARTCHAR guilsinglleft
ENCODING 8249
SWIDTH 295 0
DWIDTH 7 0
BBX 6 9 1 2
BITMAP
01E0
0780
1F00
3C00
B400
7800
2C00
1D00
0B00
ENDCHAR
STARTCHAR guilsinglright
ENCODING 8250
SWIDTH 295 0
DWIDTH 7 0
BBX 6 9 0 2
BITMAP
0E00
0740
0380
02D0
01E0
03C0
0B40
2D00
B400
ENDCHAR
STARTCHAR exclamdbl
ENCODING 8252
SWIDTH 508 0
DWIDTH 12 0
BBX 11 17 1 0
BITMAP
07807C
0B80B8
0B40B4
0F40B4
0F00F0
1E00F0
1E01E0
2D01E0
2D02D0
3C02C0
3C03C0
780380
000000
000000
500500
F40F40
A00B00
ENDCHAR
STARTCHAR fraction
ENCODING 8260
SWIDTH 445 0
DWIDTH 11 0
BBX 11 14 0 1
BITMAP
000018
000038
0000B0
0002D0
000740
001E00
003800
00B000
02D000
074000
0E0000
3C0000
B40000
900000
ENDCHAR
STARTCHAR uni2074
ENCODING 8308
SWIDTH 360 0
DWIDTH 9 0
BBX 8 9 1 8
BITMAP
002D
00BD
02FC
077C
1E38
3878
BFFE
6AF9
00B0
ENDCHAR
STARTCHAR uni207F
ENCODING 8319
SWIDTH 414 0
DWIDTH 10 0
BBX 9 9 1 8
BITMAP
0E7E00
0FEF40
1E0780
2D0780
2D0780
3C0B40
3C0B40
780F00
780F00
ENDCHAR
STARTCHAR franc
ENCODING 8355
SWIDTH 541 0
DWIDTH 13 0
BBX 15 17 -1 0
BITMAP
007FFFFC
00BFFFF8
00B40000
00F40000
00F00000
01F00000
01E00000
02E00000
02FFFF40
03FFFF40
07C00000
07C00000
0B800000
7FFF0000
6FEA0000
0F000000
1F000000
ENDCHAR
STARTCHAR lira
ENCODING 8356
SWIDTH 568 0
DWIDTH 14 0
BBX 14 17 0 0
BITMAP
0006FD00
002FFF80
00BD07D0
00F402D0
01F00190
01E00000
02E00000
2FFFD000
17E54000
03D00000
3FFFC000
1BD54000
07800000
0B400000
1F000000
BFAABE00
FFFFFE00
ENDCHAR
STARTCHAR uni20A6
ENCODING 8358
SWIDTH 772 0
DWIDTH 19 0
BBX 19 17 0 0
BITMAP
00BC0003D0
00BD0003C0
00FF0007C0
00FF400B80
01FB800B80
01E3D00F40
3FFFFFFFF8
2BFAFEBFA4
03D0B81F00
03C07C1E00
BFFFFFFFF0
AFEABFBFA0
0B800F7D00
0B400BFC00
0F4003F800
0F0002F800
1F0000F400
ENDCHAR
STARTCHAR peseta
ENCODING 8359
SWIDTH 800 0
DWIDTH 19 0
BBX 19 17 0 0
BITMAP
01FFE40000
02FAFD0B80
02D02F0B40
03C00F4F40
03C00BFFF4
07800FAFA0
07800F1E00
0B402E2E00
0F41BC2D00
0FFFF03D00
1FAA403C00
1E00007C00
2E00007800
2D0000B800
3D0000B800
3C00007F40
7C00002F40
ENDCHAR
STARTCHAR uni20A8
ENCODING 8360
SWIDTH 1030 0
DWIDTH 25 0
BBX 24 17 0 0
BITMAP
01FFFA000000
02FFFFC00000
02D007E00000
03D001F00000
03C001F06FE0
07C001F1FFF8
078003E7D03D
0B801FC7801E
0FFFFE078000
0FEAF403F900
1F00B800BFD0
1E007C0006F4
2E003D000078
2D002E2D007C
3D001F1F00B8
3C000F4BFFE0
7C000B81FE40
ENDCHAR
STARTCHAR uni20A9
ENCODING 8361
SWIDTH 722 0
DWIDTH 17 0
BBX 18 17 0 0
BITMAP
0B803D00F0
0B803D01E0
07807D02D0
0780BD03C0
0780ED0780
0781ED0B40
3FFFFFFFE0
2FEFFFBF90
078B5D3D00
078F1D7800
BFFFFFFFC0
ABFEBFFA80
03B81EE000
03F41FD000
03F01F8000
03E01F4000
03D01F0000
ENDCHAR
STARTCHAR uni20AA
ENCODING 8362
SWIDTH 752 0
DWIDTH 18 0
BBX 18 13 0 0
BITMAP
0BFFF403D0
0BEAFD03C0
0F402F07C0
0F000F0780
1F0B4F0B80
1E0F5F0B40
2E0F1E0F40
2D1F2E0F00
3D1E2D1F00
3C2E002E00
7C2D007D00
783FABF800
B83FFFE000
ENDCHAR
STARTCHAR dong
ENCODING 8363
SWIDTH 566 0
DWIDTH 14 0
BBX 15 22 0 -4
BITMAP
000003D0
000003C0
0000FFFC
0001AFE8
00000B80
006F8B40
02FFFF40
0BD07F00
0F401F00
2E001E00
2D002E00
3C002D00
3C003D00
3C003C00
3D007C00
2E01F800
0FFFF800
02F9B400
00000000
00000000
BFFFF800
AAAAA400
ENDCHAR
STARTCHAR Euro
ENCODING 8364
SWIDTH 549 0
DWIDTH 13 0
BBX 13 17 1 0
BITMAP
0006FF40
002FFF40
00BD0000
01F40000
02D00000
03C00000
7FFFD000
5B954000
0B800000
FFFF8000
5F954000
0F400000
0F400000
0B800000
07D00000
02FFE000
006FE000
ENDCHAR
STARTCHAR uni20B1
ENCODING 8369
SWIDTH 714 0
DWIDTH 17 0
BBX 17 17 1 0
BITMAP
02FFFA0000
03FFFFD000
03C002F000
7FFFFFFFC0
6FEAAAFE80
0B8000F400
FFFFFFFF40
AFAAABFA00
0F001BC000
1FFFFF4000
1FFFA40000
2E00000000
2D00000000
3D00000000
7C00000000
7C00000000
B800000000
ENDCHAR
STARTCHAR uni20B9
ENCODING 8377
SWIDTH 505 0
DWIDTH 12 0
BBX 12 17 1 0
BITMAP
1FFFFF
2FFFFE
000BC0
0003C0
7FFFFD
BFFFF8
000B80
006F40
FFFD00
FE9000
7D0000
2E0000
1F4000
0BC000
03E000
01F400
00BC00
ENDCHAR
STARTCHAR uni20BA
ENCODING 8378
SWIDTH 544 0
DWIDTH 13 0
BBX 13 17 0 0
BITMAP
007C0000
007C0000
00B89000
00BFD000
01FF8000
1FF40000
3FF18000
25FF8000
06FE4F40
6FE01F00
BFD01E00
93C02D00
07C07C00
0780F400
0B47E000
0BFF8000
0BF90000
ENDCHAR
STARTCHAR uni20BC
ENCODING 8380
SWIDTH 645 0
DWIDTH 15 0
BBX 14 13 0 0
BITMAP
0002E000
0002D000
002FF800
01FFFE00
07E7DF80
0F4787C0
2E0B82D0
3D0B42D0
780F42E0
B80F02E0
B41F02D0
F41E02D0
F02E03D0
ENDCHAR
ENDFONT
